<?xml version="1.0" encoding="utf-8"?>
<!-- Generator: Adobe Illustrator 23.1.1, SVG Export Plug-In . SVG Version: 6.00 Build 0)  -->
<svg version="1.1" id="Capa_1" xmlns="http://www.w3.org/2000/svg" xmlns:xlink="http://www.w3.org/1999/xlink" x="0px" y="0px"
	 viewBox="0 0 726 1250.4" style="enable-background:new 0 0 726 1250.4;" xml:space="preserve">
<style type="text/css">
	.st0{fill:url(#Rectangle_1_);}
	.st1{opacity:0.89;}
	.st2{fill:#1B1B1B;}
	.st3{opacity:0.34;}
	.st4{fill:#FFFFFF;}
	.st5{fill:url(#SVGID_1_);}
	.st6{fill:url(#SVGID_2_);}
	.st7{fill:url(#SVGID_3_);}
	.st8{fill:url(#SVGID_4_);}
	.st9{fill:url(#SVGID_5_);}
	.st10{fill:#BC9E6C;}
	.st11{fill:#AF8241;}
	.st12{opacity:0.89;fill:#AF8241;}
	.st13{opacity:0.89;fill:#1B1B1B;}
</style>
<title>estante</title>
<desc>Created with Sketch.</desc>
<g id="escritorio">
	<g transform="translate(-357.000000, 0.000000)">
		<g id="estante" transform="translate(357.000000, -387.000000)">
			<g transform="translate(673.000000, 537.000000)">
				<g id="img-poste">
					
						<linearGradient id="Rectangle_1_" gradientUnits="userSpaceOnUse" x1="-1248.6333" y1="970.4208" x2="-1248.6333" y2="969.5051" gradientTransform="matrix(30 0 0 -520 37479 504864.1875)">
						<stop  offset="0" style="stop-color:#444242"/>
						<stop  offset="0.13" style="stop-color:#474545"/>
						<stop  offset="0.24" style="stop-color:#515050"/>
						<stop  offset="0.33" style="stop-color:#606060"/>
						<stop  offset="0.49" style="stop-color:#5C5C5F"/>
						<stop  offset="0.52" style="stop-color:#5B5B5F"/>
						<stop  offset="0.79" style="stop-color:#606060"/>
						<stop  offset="0.87" style="stop-color:#5D5C5C"/>
						<stop  offset="0.94" style="stop-color:#535252"/>
						<stop  offset="1" style="stop-color:#444242"/>
					</linearGradient>
					<rect id="Rectangle" x="5" y="202.8" class="st0" width="30" height="520"/>
					<g id="Group" transform="translate(31.000000, 7.000000)" class="st1">
						<path id="Path" class="st2" d="M4,198.3c0,2.3-0.1,4.3-0.2,6.6C3.8,202.3,4,200.7,4,198.3z"/>
						<polygon class="st2" points="3.8,204.9 3.8,204.9 3.8,204.8 						"/>
						<path class="st2" d="M4.1,682.4c0-0.6,0-1.3,0-2V682.4z"/>
						<path class="st2" d="M1.2,324.1l0.2,0.4c0,5.8-0.2,1.7-0.3,7.1c0.3,2.1-0.1,9,0,10.9c0,0,0,2.6-0.2,2.4c0.1,1.4,0.1,2.9,0,4.3
							c0,0.6,0-0.4,0.1-0.9v3.8c0,1.5-0.2,1.9-0.2,0.2c-0.2,10-0.6,57.9-0.5,68.7c0.1-1.4,0-4.7,0.3-6c0.1,2.8,0,4.3,0,5.5
							c-0.3,1.1,0,6.2-0.4,8.6l0.2,0.8l-0.1,1.4c0.1,4.6,0.1,9.3,0,14c0,6.4,0.3,9.4,0.2,12.9c0-0.5,0-1.9,0.2-0.3
							c-0.2,0.3,0.1,4.3,0,5.2c0,1.6,0,6.9,0.2,5.1c-0.1,0.9-0.1,5.6-0.2,2.8c0,1.6,0,3.1,0,4.3v-2.1c-0.1,3.9-0.1,7.9,0,11.8v-2
							c0.1,2.4,0,4.8-0.2,7.1v-3.3c0,5.3,0,8.6,0.2,12.9v-1.6c0.2,5.6,0.6,35.2,0.9,40.4l0.4-2.5l0.2,4.3c0-0.5-0.5-2.2-0.5-2.6
							c0.1,9.6,0.7,59.3,0.7,68.3c0,3.6-0.1,0.6-0.2,0.6c0,4.3,0.1,1.9,0.2,5.6c0,1,0,0-0.1-0.8c0,1.6,0,3.1,0,3.2
							c0-2,0.1-1.2,0.2-2v4.8l0,0c0.1,2.4,0.2,4.9,0.3,7.3c0.1,7.9,0.2,16.4,0.4,24.3c0,0,0-1.8-0.1-3.4c0,1,0,2.4,0,3.7
							c0-1.9,0,3.3,0,1.9c0.2,5.8,0.3,13.3,0.4,18.4c0,0,0.3,3,0.4,5.6c0.1,2.7,0,5.3,0,5.3c0,1.6,0,3-0.1,3.7
							c0-1.2,0.1-3.6,0.2-5.2v-0.3c0.1-3.4,0-1.4,0.2-4.6c0,0,0,3.2-0.2,6.2c0-2.7,0.2-5.4,0.2-6.5s0-1,0.1-2.8
							c0.1-1.8,0.1-4.9,0.2-7.6l0,0c0.2-6.1,0.2-9.3,0.4-15v0.6c0-2.3,0.2-5.7,0.3-9.5c0,1-0.1,1.9,0,0c0.1-4.3,0.2-6.5,0.3-9.9
							v-2.9c0.4-14.3,1.1-70.7,1.1-85.1v0.6c0.2-21.9,0.4-66.8,0.2-89.4c0.2-3.5,0.1-8.3,0.2-11.9c0,2-0.2,1.3-0.2-0.3
							c0-11.1,0-0.8-0.2-12c-0.1-12.9-0.2-62.5-0.2-74c-0.2-6.2-0.1-13.9-0.3-19.9v0.6c0-6.5-0.3-43.1-0.5-50.8v1
							c-0.2-6.6,0-5.7,0-10.9c-0.2-2.3-0.4-4.7-0.3-7.1l0,0c0-3.2-0.3-10.8-0.4-16v0.2c-0.1-4.3-0.2-12.9-0.3-16.1
							c-0.1-7.3-0.3-18.7-0.5-28.5l-0.1-6.3V200c0,0,0.2-2.5,0.2-3.5c0,2.1-0.1,4.2-0.2,6.2l0,0v2.6c-0.1,3.1-0.1,4.3-0.1,4.3
							l0.1-4.3c0,3.1,0,0.9,0-0.3c0,1.2,0,2.4-0.1,3.6c-0.1,1.2,0-0.5,0-0.9c0,1.7-0.1,4-0.1,6c0,3.1,0,0-0.1,3.9
							c-0.6,19.5-1,38.3-1.4,58c0,0.4,0,0,0-0.6c0,5.9-0.2,11.1-0.2,16.6c0,0.8-0.1,1.6-0.2,2.3c0-0.4,0,7-0.2,14.6
							S1.2,323.8,1.2,324.1z"/>
					</g>
					<g transform="translate(0.000000, 7.000000)" class="st1">
						<path class="st2" d="M1.7,198.3c-0.1,2.2-0.2,4.4-0.2,6.6C1.7,202.7,1.7,200.5,1.7,198.3L1.7,198.3z"/>
						<path class="st2" d="M8,682.4v-1.9C8,681.1,8,681.8,8,682.4L8,682.4z"/>
						<path class="st2" d="M1.1,324.1l0.2,0.4c0,5.8-0.3,1.7-0.2,7.1c0.3,2.1,0,9,0.2,10.9c0,0,0,2.6-0.1,2.4c0.1,1.4,0.1,2.9,0,4.3
							c0,0.6,0-0.4,0.1-0.9v3.8c0,1.5-0.2,1.9-0.2,0.2C1.1,362.4,1,410.3,1,421c0.1-1.4,0-4.7,0.3-6c0.1,2.8,0,4.3,0,5.5
							c-0.3,1.1,0,6.2-0.4,8.6l0.2,0.8v1.4c0.1,4.7,0.1,9.3,0,14c0,6.4,0.3,9.4,0.2,12.9c0-0.5,0-1.9,0.2-0.3c-0.2,0.3,0,4.3,0,5.2
							c0,1.6,0,6.9,0.2,5.1c0,0.9-0.1,5.6-0.2,2.8c0,1.6,0,3.1,0,4.3v-2.1c0,5.4-0.1,8.3,0,11.8v-2c0.1,2.4,0,4.8-0.2,7.1V487
							c0,5.3,0,8.6,0.1,12.9v-1.6c0.2,5.6,0.4,35.2,0.7,40.4l0.2-2.4l0.1,4.3c0-0.5-0.5-2.2-0.5-2.6c0,9.6,0.1,59.4,0,68.3
							c0,3.6-0.3,0.6-0.3,0.6c0,4.3,0.2,1.9,0.2,5.6c0,1-0.1,0-0.2-0.8c0,1.1,0,2.2,0,3.2c0-2,0.3-1.2,0.4-2v4.8H1.8
							c0.2,2.4,0.3,4.9,0.3,7.3c0,7.9,0,16.5,0,24.3c-0.1-1.1-0.2-2.3-0.2-3.4c0,1.1,0,2.7,0,3.7c0.1-1.9,0,3.3,0.1,1.9
							c0.3,5.8,0,13.3,0.3,18.4c0.3,0.5,5,11,5.4,11c0,1.6,0,3.1,0,3.7c0.1-1.7,0.1-3.5,0-5.2l-0.2-0.3c0-1.5,0-3.1,0-4.6
							c0.3,2,0.5,4.1,0.5,6.2c0.1-2.2,0.1-4.4,0-6.5c0-2.5,0.2,0.3,0.2-2.8c-0.1-2.6-0.2-5.3-0.1-7.9l0,0c0.2-6.1-0.2-9.3,0-15v0.6
							c0.1-2,0-5.9,0-9.5c0,1-0.1,1.9-0.2,0c0-4.3,0-6.9,0.1-9.9l-0.1-2.9c0-14.3-0.2-70.7-0.2-85.1v0.6c0-21.9,0-66.8-0.3-89.4
							c0.2-3.5,0.1-8.3,0.2-11.9c0,2-0.2,1.3-0.2-0.3c0-11.1,0-0.8-0.2-12c-0.1-12.9,0-62.5,0.1-74c-0.2-6.2,0-13.9-0.2-19.9v0.6
							c0-6.5,0.1-43.1,0-50.8v1c-0.1-3.6,0-7.2,0.2-10.9c-0.2,0.6-0.4-5-0.4-7.1l0,0c0-3.3-0.3-10.6-0.3-16l0.3,0.3
							c-0.1-4.3,0-12.9,0-16.1c0-7.3,0.3-18.7,0-28.5l0.4-6.3V200c0,0-4.6-10.2-5.5,2.8H1.7v2.6c0,3.1,0,4.3,0,4.3v-4.3
							c0,3.1,0,0.9-0.2-0.3c0,1.3,0,2.5,0,3.6s0-0.5,0-0.9c0.1,2,0.1,4,0,6c0,3.1-0.2,0-0.2,3.9c0,19.3-0.2,38.2-0.1,57.9
							c0,0.4,0,0,0-0.6c0,5.9,0,11.2,0,16.6c0,0.8-0.1,1.6-0.2,2.3C1.1,292.7,1.1,323.6,1.1,324.1z"/>
					</g>
					<g transform="translate(16.000000, 0.000000)" class="st1">
						<path class="st2" d="M1.3,197.9c-0.1,1.1-0.2,2.2-0.1,3.3C1.3,200.1,1.3,199,1.3,197.9z"/>
						<polygon class="st2" points="1.1,201 1.1,201 1.1,201 						"/>
						<path class="st2" d="M1.6,257.6h0.2c0,2.8-0.2,0.8-0.1,3.4c0.3,1,0,4.3,0.2,5.1c0,0,0,1.2,0,1.2s0,1.3,0.1,2.1s0-0.2,0-0.4
							v1.8c0,0.7-0.1,0.9-0.1,0c0,4.7,0.3,27.5,0.4,32.6c0-0.6,0-2.2,0.1-2.8c0.1,1.3,0,2,0.1,2.6c0.1,0.6,0,2.9-0.2,4v0.4v0.7
							c0.1,2.2,0.2,4.4,0.1,6.6c0,3.1,0.2,4.3,0.2,6.2c0,0,0-0.9,0,0c0,0,0,2.1,0,2.5c0,0.4,0,3.3,0.1,2.4c0,0.4,0,2.7-0.1,1.3
							c0,0.7,0,1.4,0,2v-0.8c0,2.5,0,3.9,0,5.6v-0.9c0.1,1.1,0.1,2.3,0,3.4V335c0,2.5,0,4.1,0.1,6.1v-0.7c0.1,2.7,0.4,16.7,0.5,19.2
							v-1.1v2.1c0-0.3-0.2-1-0.2-1.3c0,4.6,0.3,27.9,0.4,32.5c0,1.7,0,0.3,0,0.3c0,1.6,0,1.5,0,2.7c0,0.5,0,0,0-0.4c0,0.5,0,1,0,1.6
							c0-0.3,0-0.6,0-0.9v2.2c0,1.2,0,2.3,0,3.5c0,3.8,0,7.8,0.1,11.6c0-0.6,0-1.1,0-1.6c0,0.4,0,0.9,0,1.7c0-0.9,0,1.6,0,0.9
							c0,4.7,0,5.3,0,8.6c0,0,0,1.4,0,2.7c0,1.3,0,2.4,0,2.5v1.8c0-0.9,0-1.7,0-2.5l0,0c0-1.4,0-0.9,0-2.2v3v-3.1v-1.3
							c0-1,0-2.2,0-3.6l0,0c0-3.3,0-4,0-7.1v0.3c0-1.5,0-2.4,0-4.3c0,0.5,0,0.9,0,0c0-2.2,0-2.7,0-4.7v-1.4c0-6.8,0.4-33.6,0.5-40.4
							v0.3c0.1-10.4,0.4-31.7,0.4-42.5c0.1-1.6,0.1-3.9,0.2-5.7c0,0.9-0.1,0.6,0,0c0-5.3,0-0.3,0-5.7c0-6.2,0.4-29.7,0.5-35.1
							c-0.1-2.9,0-6.6,0-9.5v0.3c0-3.1,0.3-20.5,0.3-24.1v0.5c0-1.7,0-3.5,0.2-5.2c-0.2,0.3-0.3-2.3-0.3-3.4l0,0
							c0-1.6-0.2-5-0.2-7.6h0.1c-0.1-2.2,0-6.1,0-7.6c0.2-4.5,0.3-9,0.2-13.6l1.5-3.2v-0.4c-0.8-0.8-1.6-1.5-2.5-1.8
							c-1.3-0.3-2.7,0-3.1,3.1l-0.1-0.1v1.3c0,1.5,0.1,2.2,0,2.1v-2.1c0,1.5-0.1,0.4-0.2,0c0,0.6,0,1.2,0,1.7s0-0.2,0-0.4
							c0.1,0.9,0.2,1.9,0.1,2.8c0,1.5-0.2,0-0.2,1.8c0,9.3,0,18.3,0.2,27.6c0,0,0,0,0-0.3c0,2.9,0.1,5.2,0.2,7.9
							c0,0.4-0.1,0.8-0.1,1.1c0-0.2,0.1,3.3,0.2,6.9C1.5,254,1.6,257.3,1.6,257.6z"/>
					</g>
					<g transform="translate(23.000000, 277.000000)" class="st3">
						<path class="st4" d="M5.4,445.2c0.1-1.1,0.2-2.2,0.1-3.4C5.4,442.9,5.3,444.1,5.4,445.2L5.4,445.2z"/>
						<path class="st4" d="M5.5,441.8L5.5,441.8L5.5,441.8z"/>
						<path class="st4" d="M5,380.8l-0.2-0.2c0-3,0.2-0.9,0.1-3.6c-0.3-1.1,0-4.6-0.2-5.6c0,0,0-1.3,0-1.2c0,0.1,0-1.4,0-2.2
							s0,0,0,0.5v-2c0-0.7,0.1-0.9,0.1,0c0-5.1-0.3-29.7-0.4-35.2c0,0.7,0,2.4,0,3c0-1.4,0-2.1,0-2.8c0-0.6,0-3.2,0.2-4.3v-0.4v-0.7
							c-0.2-6.4,0-1.5-0.1-7.2c0-3.3-0.2-4.9-0.2-6.7c0,0.3,0,1,0,0c0,0,0-2.2,0-2.7s0-3.5-0.1-2.6c0-0.4,0-2.8,0-1.4
							c0-0.8,0-1.6,0-2.2v1.1c0-2.8,0-4.3-0.1-6v1c-0.1-1.2-0.1-2.4,0-3.7v1.7c0-2.7,0-4.3-0.1-6.6v0.8c-0.1-2.9-0.3-18-0.4-20.6
							v1.2v-2.3c0,0.3,0.2,1.1,0.2,1.3c0-4.9-0.3-30.2-0.4-34.9c0-1.9,0-0.3,0-0.3c0-1.7,0-1.5,0-2.8c0-0.5,0,0,0,0.4
							c0-0.8,0-1.6,0-1.6c0,0.3,0,0.7,0,1v-2.3c0-0.6,0-1.4,0-3.7c0-4.3,0-8.6,0-12.5c0,0.6,0,1.2,0,1.8c0-0.5,0-1,0-1.9
							c0,0.9,0-1.7,0-0.9c0-4.9,0-5.8,0-9.4c0,0,0-1.5,0-2.9s0-2.5,0-2.7s0-1.4,0-1.9c0,0.9,0,1.8,0,2.7l0,0c0,1.6,0,1,0,2.4v-3.2
							c0,1.1,0,1.4,0,3.4c0,0.6,0,0.8,0,1.4s0,2.3,0,3.9l0,0c0,3.5,0,4.3-0.1,7.7v-0.3c0,1.5,0,2.7,0,4.8c0-0.5,0-1,0,0
							c0,2.3,0,2.9,0,5v1.5c0,7.3-0.4,36.2-0.5,43.6v-0.3C2.7,280,2.4,303,2.3,314.6c0,1.8,0,4.3-0.1,6.1c0-1,0-0.7,0,0
							c0,5.7,0,0.4,0,6.2c0,6.6-0.4,32-0.5,37.9c0.1,3.1,0,7.1,0,10.2v-0.3c0,3.5-0.3,22-0.3,25.9V400c0,1.9,0,3.7-0.2,5.6
							c0.2-0.3,0.3,2.5,0.3,3.7l0,0c0,1.6,0.2,5.4,0.2,8.1H1.5c0,2.3,0,6.6,0,8.2c0,3.7-0.4,9.6-0.2,14.6l-0.4,3.3v0.5
							c0.8,0.8,1.6,1.4,2.4,1.8c1.3,0.5,2.7,0,3.1-3.2h0.1v-1.3c0-1.6-0.1-2.3,0-2.2v2.2c0-1.6,0.1-0.5,0.2,0c0-0.6,0-1.2,0-1.8
							c0-0.3,0,0,0,0.5c-0.1-1-0.1-2.1-0.1-3.1c0-1.6,0.2,0,0.2-2c0-10,0-19.7-0.2-29.7c0,0,0,0,0,0.3c0-3.1-0.1-5.6-0.2-8.6
							c0-0.4,0.1-0.8,0.1-1.2c0,0-0.1-3.6-0.2-7.5C6.2,384,5.1,381,5,380.8z"/>
					</g>
				</g>
			</g>
			<g transform="translate(673.000000, 1074.000000)">
				<g>
					
						<linearGradient id="SVGID_1_" gradientUnits="userSpaceOnUse" x1="-1248.6333" y1="433.4208" x2="-1248.6333" y2="432.5051" gradientTransform="matrix(30 0 0 -520 37479 225624.2031)">
						<stop  offset="0" style="stop-color:#444242"/>
						<stop  offset="0.13" style="stop-color:#474545"/>
						<stop  offset="0.24" style="stop-color:#515050"/>
						<stop  offset="0.33" style="stop-color:#606060"/>
						<stop  offset="0.49" style="stop-color:#5C5C5F"/>
						<stop  offset="0.52" style="stop-color:#5B5B5F"/>
						<stop  offset="0.79" style="stop-color:#606060"/>
						<stop  offset="0.87" style="stop-color:#5D5C5C"/>
						<stop  offset="0.94" style="stop-color:#535252"/>
						<stop  offset="1" style="stop-color:#444242"/>
					</linearGradient>
					<rect x="5" y="202.8" class="st5" width="30" height="520"/>
					<g transform="translate(31.000000, 7.000000)" class="st1">
						<path class="st2" d="M4,198.3c0,2.3-0.1,4.3-0.2,6.6C3.8,202.3,4,200.7,4,198.3z"/>
						<polygon class="st2" points="3.8,204.9 3.8,204.9 3.8,204.8 						"/>
						<path class="st2" d="M4.1,682.4c0-0.6,0-1.3,0-2V682.4z"/>
						<path class="st2" d="M1.2,324.1l0.2,0.4c0,5.8-0.2,1.7-0.3,7.1c0.3,2.1-0.1,9,0,10.9c0,0,0,2.6-0.2,2.4c0.1,1.4,0.1,2.9,0,4.3
							c0,0.6,0-0.4,0.1-0.9v3.8c0,1.5-0.2,1.9-0.2,0.2c-0.2,10-0.6,57.9-0.5,68.7c0.1-1.4,0-4.7,0.3-6c0.1,2.8,0,4.3,0,5.5
							c-0.3,1.1,0,6.2-0.4,8.6l0.2,0.8l-0.1,1.4c0.1,4.6,0.1,9.3,0,14c0,6.4,0.3,9.4,0.2,12.9c0-0.5,0-1.9,0.2-0.3
							c-0.2,0.3,0.1,4.3,0,5.2c0,1.6,0,6.9,0.2,5.1c-0.1,0.9-0.1,5.6-0.2,2.8c0,1.6,0,3.1,0,4.3v-2.1c-0.1,3.9-0.1,7.9,0,11.8v-2
							c0.1,2.4,0,4.8-0.2,7.1v-3.3c0,5.3,0,8.6,0.2,12.9v-1.6c0.2,5.6,0.6,35.2,0.9,40.4l0.4-2.5l0.2,4.3c0-0.5-0.5-2.2-0.5-2.6
							c0.1,9.6,0.7,59.3,0.7,68.3c0,3.6-0.1,0.6-0.2,0.6c0,4.3,0.1,1.9,0.2,5.6c0,1,0,0-0.1-0.8c0,1.6,0,3.1,0,3.2
							c0-2,0.1-1.2,0.2-2v4.8l0,0c0.1,2.4,0.2,4.9,0.3,7.3c0.1,7.9,0.2,16.4,0.4,24.3c0,0,0-1.8-0.1-3.4c0,1,0,2.4,0,3.7
							c0-1.9,0,3.3,0,1.9c0.2,5.8,0.3,13.3,0.4,18.4c0,0,0.3,3,0.4,5.6c0.1,2.7,0,5.3,0,5.3c0,1.6,0,3-0.1,3.7
							c0-1.2,0.1-3.6,0.2-5.2v-0.3c0.1-3.4,0-1.4,0.2-4.6c0,0,0,3.2-0.2,6.2c0-2.7,0.2-5.4,0.2-6.5s0-1,0.1-2.8
							c0.1-1.8,0.1-4.9,0.2-7.6l0,0c0.2-6.1,0.2-9.3,0.4-15v0.6c0-2.3,0.2-5.7,0.3-9.5c0,1-0.1,1.9,0,0c0.1-4.3,0.2-6.5,0.3-9.9
							v-2.9c0.4-14.3,1.1-70.7,1.1-85.1v0.6c0.2-21.9,0.4-66.8,0.2-89.4c0.2-3.5,0.1-8.3,0.2-11.9c0,2-0.2,1.3-0.2-0.3
							c0-11.1,0-0.8-0.2-12c-0.1-12.9-0.2-62.5-0.2-74c-0.2-6.2-0.1-13.9-0.3-19.9v0.6c0-6.5-0.3-43.1-0.5-50.8v1
							c-0.2-6.6,0-5.7,0-10.9c-0.2-2.3-0.4-4.7-0.3-7.1l0,0c0-3.2-0.3-10.8-0.4-16v0.2c-0.1-4.3-0.2-12.9-0.3-16.1
							c-0.1-7.3-0.3-18.7-0.5-28.5l-0.1-6.3V200c0,0,0.2-2.5,0.2-3.5c0,2.1-0.1,4.2-0.2,6.2l0,0v2.6c-0.1,3.1-0.1,4.3-0.1,4.3
							l0.1-4.3c0,3.1,0,0.9,0-0.3c0,1.2,0,2.4-0.1,3.6c-0.1,1.2,0-0.5,0-0.9c0,1.7-0.1,4-0.1,6c0,3.1,0,0-0.1,3.9
							c-0.6,19.5-1,38.3-1.4,58c0,0.4,0,0,0-0.6c0,5.9-0.2,11.1-0.2,16.6c0,0.8-0.1,1.6-0.2,2.3c0-0.4,0,7-0.2,14.6
							S1.2,323.8,1.2,324.1z"/>
					</g>
					<g transform="translate(0.000000, 7.000000)" class="st1">
						<path class="st2" d="M1.7,198.3c-0.1,2.2-0.2,4.4-0.2,6.6C1.7,202.7,1.7,200.5,1.7,198.3L1.7,198.3z"/>
						<path class="st2" d="M8,682.4v-1.9C8,681.1,8,681.8,8,682.4L8,682.4z"/>
						<path class="st2" d="M1.1,324.1l0.2,0.4c0,5.8-0.3,1.7-0.2,7.1c0.3,2.1,0,9,0.2,10.9c0,0,0,2.6-0.1,2.4c0.1,1.4,0.1,2.9,0,4.3
							c0,0.6,0-0.4,0.1-0.9v3.8c0,1.5-0.2,1.9-0.2,0.2C1.1,362.4,1,410.3,1,421c0.1-1.4,0-4.7,0.3-6c0.1,2.8,0,4.3,0,5.5
							c-0.3,1.1,0,6.2-0.4,8.6l0.2,0.8v1.4c0.1,4.7,0.1,9.3,0,14c0,6.4,0.3,9.4,0.2,12.9c0-0.5,0-1.9,0.2-0.3c-0.2,0.3,0,4.3,0,5.2
							c0,1.6,0,6.9,0.2,5.1c0,0.9-0.1,5.6-0.2,2.8c0,1.6,0,3.1,0,4.3v-2.1c0,5.4-0.1,8.3,0,11.8v-2c0.1,2.4,0,4.8-0.2,7.1V487
							c0,5.3,0,8.6,0.1,12.9v-1.6c0.2,5.6,0.4,35.2,0.7,40.4l0.2-2.4l0.1,4.3c0-0.5-0.5-2.2-0.5-2.6c0,9.6,0.1,59.4,0,68.3
							c0,3.6-0.3,0.6-0.3,0.6c0,4.3,0.2,1.9,0.2,5.6c0,1-0.1,0-0.2-0.8c0,1.1,0,2.2,0,3.2c0-2,0.3-1.2,0.4-2v4.8H1.8
							c0.2,2.4,0.3,4.9,0.3,7.3c0,7.9,0,16.5,0,24.3c-0.1-1.1-0.2-2.3-0.2-3.4c0,1.1,0,2.7,0,3.7c0.1-1.9,0,3.3,0.1,1.9
							c0.3,5.8,0,13.3,0.3,18.4c0.3,0.5,5,11,5.4,11c0,1.6,0,3.1,0,3.7c0.1-1.7,0.1-3.5,0-5.2l-0.2-0.3c0-1.5,0-3.1,0-4.6
							c0.3,2,0.5,4.1,0.5,6.2c0.1-2.2,0.1-4.4,0-6.5c0-2.5,0.2,0.3,0.2-2.8c-0.1-2.6-0.2-5.3-0.1-7.9l0,0c0.2-6.1-0.2-9.3,0-15v0.6
							c0.1-2,0-5.9,0-9.5c0,1-0.1,1.9-0.2,0c0-4.3,0-6.9,0.1-9.9l-0.1-2.9c0-14.3-0.2-70.7-0.2-85.1v0.6c0-21.9,0-66.8-0.3-89.4
							c0.2-3.5,0.1-8.3,0.2-11.9c0,2-0.2,1.3-0.2-0.3c0-11.1,0-0.8-0.2-12c-0.1-12.9,0-62.5,0.1-74c-0.2-6.2,0-13.9-0.2-19.9v0.6
							c0-6.5,0.1-43.1,0-50.8v1c-0.1-3.6,0-7.2,0.2-10.9c-0.2,0.6-0.4-5-0.4-7.1l0,0c0-3.3-0.3-10.6-0.3-16l0.3,0.3
							c-0.1-4.3,0-12.9,0-16.1c0-7.3,0.3-18.7,0-28.5l0.4-6.3V200c0,0-4.6-10.2-5.5,2.8H1.7v2.6c0,3.1,0,4.3,0,4.3v-4.3
							c0,3.1,0,0.9-0.2-0.3c0,1.3,0,2.5,0,3.6s0-0.5,0-0.9c0.1,2,0.1,4,0,6c0,3.1-0.2,0-0.2,3.9c0,19.3-0.2,38.2-0.1,57.9
							c0,0.4,0,0,0-0.6c0,5.9,0,11.2,0,16.6c0,0.8-0.1,1.6-0.2,2.3C1.1,292.7,1.1,323.6,1.1,324.1z"/>
					</g>
					<g transform="translate(16.000000, 0.000000)" class="st1">
						<path class="st2" d="M1.3,197.9c-0.1,1.1-0.2,2.2-0.1,3.3C1.3,200.1,1.3,199,1.3,197.9z"/>
						<polygon class="st2" points="1.1,201 1.1,201 1.1,201 						"/>
						<path class="st2" d="M1.6,257.6h0.2c0,2.8-0.2,0.8-0.1,3.4c0.3,1,0,4.3,0.2,5.1c0,0,0,1.2,0,1.2s0,1.3,0.1,2.1s0-0.2,0-0.4
							v1.8c0,0.7-0.1,0.9-0.1,0c0,4.7,0.3,27.5,0.4,32.6c0-0.6,0-2.2,0.1-2.8c0.1,1.3,0,2,0.1,2.6c0.1,0.6,0,2.9-0.2,4v0.4v0.7
							c0.1,2.2,0.2,4.4,0.1,6.6c0,3.1,0.2,4.3,0.2,6.2c0,0,0-0.9,0,0c0,0,0,2.1,0,2.5c0,0.4,0,3.3,0.1,2.4c0,0.4,0,2.7-0.1,1.3
							c0,0.7,0,1.4,0,2v-0.8c0,2.5,0,3.9,0,5.6v-0.9c0.1,1.1,0.1,2.3,0,3.4V335c0,2.5,0,4.1,0.1,6.1v-0.7c0.1,2.7,0.4,16.7,0.5,19.2
							v-1.1v2.1c0-0.3-0.2-1-0.2-1.3c0,4.6,0.3,27.9,0.4,32.5c0,1.7,0,0.3,0,0.3c0,1.6,0,1.5,0,2.7c0,0.5,0,0,0-0.4c0,0.5,0,1,0,1.6
							c0-0.3,0-0.6,0-0.9v2.2c0,1.2,0,2.3,0,3.5c0,3.8,0,7.8,0.1,11.6c0-0.6,0-1.1,0-1.6c0,0.4,0,0.9,0,1.7c0-0.9,0,1.6,0,0.9
							c0,4.7,0,5.3,0,8.6c0,0,0,1.4,0,2.7c0,1.3,0,2.4,0,2.5v1.8c0-0.9,0-1.7,0-2.5l0,0c0-1.4,0-0.9,0-2.2v3v-3.1v-1.3
							c0-1,0-2.2,0-3.6l0,0c0-3.3,0-4,0-7.1v0.3c0-1.5,0-2.4,0-4.3c0,0.5,0,0.9,0,0c0-2.2,0-2.7,0-4.7v-1.4c0-6.8,0.4-33.6,0.5-40.4
							v0.3c0.1-10.4,0.4-31.7,0.4-42.5c0.1-1.6,0.1-3.9,0.2-5.7c0,0.9-0.1,0.6,0,0c0-5.3,0-0.3,0-5.7c0-6.2,0.4-29.7,0.5-35.1
							c-0.1-2.9,0-6.6,0-9.5v0.3c0-3.1,0.3-20.5,0.3-24.1v0.5c0-1.7,0-3.5,0.2-5.2c-0.2,0.3-0.3-2.3-0.3-3.4l0,0
							c0-1.6-0.2-5-0.2-7.6h0.1c-0.1-2.2,0-6.1,0-7.6c0.2-4.5,0.3-9,0.2-13.6l1.5-3.2v-0.4c-0.8-0.8-1.6-1.5-2.5-1.8
							c-1.3-0.3-2.7,0-3.1,3.1l-0.1-0.1v1.3c0,1.5,0.1,2.2,0,2.1v-2.1c0,1.5-0.1,0.4-0.2,0c0,0.6,0,1.2,0,1.7s0-0.2,0-0.4
							c0.1,0.9,0.2,1.9,0.1,2.8c0,1.5-0.2,0-0.2,1.8c0,9.3,0,18.3,0.2,27.6c0,0,0,0,0-0.3c0,2.9,0.1,5.2,0.2,7.9
							c0,0.4-0.1,0.8-0.1,1.1c0-0.2,0.1,3.3,0.2,6.9C1.5,254,1.6,257.3,1.6,257.6z"/>
					</g>
					<g transform="translate(23.000000, 277.000000)" class="st3">
						<path class="st4" d="M5.4,445.2c0.1-1.1,0.2-2.2,0.1-3.4C5.4,442.9,5.3,444.1,5.4,445.2L5.4,445.2z"/>
						<path class="st4" d="M5.5,441.8L5.5,441.8L5.5,441.8z"/>
						<path class="st4" d="M5,380.8l-0.2-0.2c0-3,0.2-0.9,0.1-3.6c-0.3-1.1,0-4.6-0.2-5.6c0,0,0-1.3,0-1.2c0,0.1,0-1.4,0-2.2
							s0,0,0,0.5v-2c0-0.7,0.1-0.9,0.1,0c0-5.1-0.3-29.7-0.4-35.2c0,0.7,0,2.4,0,3c0-1.4,0-2.1,0-2.8c0-0.6,0-3.2,0.2-4.3v-0.4v-0.7
							c-0.2-6.4,0-1.5-0.1-7.2c0-3.3-0.2-4.9-0.2-6.7c0,0.3,0,1,0,0c0,0,0-2.2,0-2.7s0-3.5-0.1-2.6c0-0.4,0-2.8,0-1.4
							c0-0.8,0-1.6,0-2.2v1.1c0-2.8,0-4.3-0.1-6v1c-0.1-1.2-0.1-2.4,0-3.7v1.7c0-2.7,0-4.3-0.1-6.6v0.8c-0.1-2.9-0.3-18-0.4-20.6
							v1.2v-2.3c0,0.3,0.2,1.1,0.2,1.3c0-4.9-0.3-30.2-0.4-34.9c0-1.9,0-0.3,0-0.3c0-1.7,0-1.5,0-2.8c0-0.5,0,0,0,0.4
							c0-0.8,0-1.6,0-1.6c0,0.3,0,0.7,0,1v-2.3c0-0.6,0-1.4,0-3.7c0-4.3,0-8.6,0-12.5c0,0.6,0,1.2,0,1.8c0-0.5,0-1,0-1.9
							c0,0.9,0-1.7,0-0.9c0-4.9,0-5.8,0-9.4c0,0,0-1.5,0-2.9s0-2.5,0-2.7s0-1.4,0-1.9c0,0.9,0,1.8,0,2.7l0,0c0,1.6,0,1,0,2.4v-3.2
							c0,1.1,0,1.4,0,3.4c0,0.6,0,0.8,0,1.4s0,2.3,0,3.9l0,0c0,3.5,0,4.3-0.1,7.7v-0.3c0,1.5,0,2.7,0,4.8c0-0.5,0-1,0,0
							c0,2.3,0,2.9,0,5v1.5c0,7.3-0.4,36.2-0.5,43.6v-0.3C2.7,280,2.4,303,2.3,314.6c0,1.8,0,4.3-0.1,6.1c0-1,0-0.7,0,0
							c0,5.7,0,0.4,0,6.2c0,6.6-0.4,32-0.5,37.9c0.1,3.1,0,7.1,0,10.2v-0.3c0,3.5-0.3,22-0.3,25.9V400c0,1.9,0,3.7-0.2,5.6
							c0.2-0.3,0.3,2.5,0.3,3.7l0,0c0,1.6,0.2,5.4,0.2,8.1H1.5c0,2.3,0,6.6,0,8.2c0,3.7-0.4,9.6-0.2,14.6l-0.4,3.3v0.5
							c0.8,0.8,1.6,1.4,2.4,1.8c1.3,0.5,2.7,0,3.1-3.2h0.1v-1.3c0-1.6-0.1-2.3,0-2.2v2.2c0-1.6,0.1-0.5,0.2,0c0-0.6,0-1.2,0-1.8
							c0-0.3,0,0,0,0.5c-0.1-1-0.1-2.1-0.1-3.1c0-1.6,0.2,0,0.2-2c0-10,0-19.7-0.2-29.7c0,0,0,0,0,0.3c0-3.1-0.1-5.6-0.2-8.6
							c0-0.4,0.1-0.8,0.1-1.2c0,0-0.1-3.6-0.2-7.5C6.2,384,5.1,381,5,380.8z"/>
					</g>
				</g>
			</g>
			<g transform="translate(673.000000, 0.000000)">
				<g>
					
						<linearGradient id="SVGID_2_" gradientUnits="userSpaceOnUse" x1="-1248.6333" y1="1507.4208" x2="-1248.6333" y2="1506.5051" gradientTransform="matrix(30 0 0 -520 37479 784104.1875)">
						<stop  offset="0" style="stop-color:#444242"/>
						<stop  offset="0.13" style="stop-color:#474545"/>
						<stop  offset="0.24" style="stop-color:#515050"/>
						<stop  offset="0.33" style="stop-color:#606060"/>
						<stop  offset="0.49" style="stop-color:#5C5C5F"/>
						<stop  offset="0.52" style="stop-color:#5B5B5F"/>
						<stop  offset="0.79" style="stop-color:#606060"/>
						<stop  offset="0.87" style="stop-color:#5D5C5C"/>
						<stop  offset="0.94" style="stop-color:#535252"/>
						<stop  offset="1" style="stop-color:#444242"/>
					</linearGradient>
					<rect x="5" y="202.8" class="st6" width="30" height="520"/>
					<g transform="translate(31.000000, 7.000000)" class="st1">
						<path class="st2" d="M4,198.3c0,2.3-0.1,4.3-0.2,6.6C3.8,202.3,4,200.7,4,198.3z"/>
						<polygon class="st2" points="3.8,204.9 3.8,204.9 3.8,204.8 						"/>
						<path class="st2" d="M4.1,682.4c0-0.6,0-1.3,0-2V682.4z"/>
						<path class="st2" d="M1.2,324.1l0.2,0.4c0,5.8-0.2,1.7-0.3,7.1c0.3,2.1-0.1,9,0,10.9c0,0,0,2.6-0.2,2.4c0.1,1.4,0.1,2.9,0,4.3
							c0,0.6,0-0.4,0.1-0.9v3.8c0,1.5-0.2,1.9-0.2,0.2c-0.2,10-0.6,57.9-0.5,68.7c0.1-1.4,0-4.7,0.3-6c0.1,2.8,0,4.3,0,5.5
							c-0.3,1.1,0,6.2-0.4,8.6l0.2,0.8l-0.1,1.4c0.1,4.6,0.1,9.3,0,14c0,6.4,0.3,9.4,0.2,12.9c0-0.5,0-1.9,0.2-0.3
							c-0.2,0.3,0.1,4.3,0,5.2c0,1.6,0,6.9,0.2,5.1c-0.1,0.9-0.1,5.6-0.2,2.8c0,1.6,0,3.1,0,4.3v-2.1c-0.1,3.9-0.1,7.9,0,11.8v-2
							c0.1,2.4,0,4.8-0.2,7.1v-3.3c0,5.3,0,8.6,0.2,12.9v-1.6c0.2,5.6,0.6,35.2,0.9,40.4l0.4-2.5l0.2,4.3c0-0.5-0.5-2.2-0.5-2.6
							c0.1,9.6,0.7,59.3,0.7,68.3c0,3.6-0.1,0.6-0.2,0.6c0,4.3,0.1,1.9,0.2,5.6c0,1,0,0-0.1-0.8c0,1.6,0,3.1,0,3.2
							c0-2,0.1-1.2,0.2-2v4.8l0,0c0.1,2.4,0.2,4.9,0.3,7.3c0.1,7.9,0.2,16.4,0.4,24.3c0,0,0-1.8-0.1-3.4c0,1,0,2.4,0,3.7
							c0-1.9,0,3.3,0,1.9c0.2,5.8,0.3,13.3,0.4,18.4c0,0,0.3,3,0.4,5.6c0.1,2.7,0,5.3,0,5.3c0,1.6,0,3-0.1,3.7
							c0-1.2,0.1-3.6,0.2-5.2v-0.3c0.1-3.4,0-1.4,0.2-4.6c0,0,0,3.2-0.2,6.2c0-2.7,0.2-5.4,0.2-6.5s0-1,0.1-2.8
							c0.1-1.8,0.1-4.9,0.2-7.6l0,0c0.2-6.1,0.2-9.3,0.4-15v0.6c0-2.3,0.2-5.7,0.3-9.5c0,1-0.1,1.9,0,0c0.1-4.3,0.2-6.5,0.3-9.9
							v-2.9c0.4-14.3,1.1-70.7,1.1-85.1v0.6c0.2-21.9,0.4-66.8,0.2-89.4c0.2-3.5,0.1-8.3,0.2-11.9c0,2-0.2,1.3-0.2-0.3
							c0-11.1,0-0.8-0.2-12c-0.1-12.9-0.2-62.5-0.2-74c-0.2-6.2-0.1-13.9-0.3-19.9v0.6c0-6.5-0.3-43.1-0.5-50.8v1
							c-0.2-6.6,0-5.7,0-10.9c-0.2-2.3-0.4-4.7-0.3-7.1l0,0c0-3.2-0.3-10.8-0.4-16v0.2c-0.1-4.3-0.2-12.9-0.3-16.1
							c-0.1-7.3-0.3-18.7-0.5-28.5l-0.1-6.3V200c0,0,0.2-2.5,0.2-3.5c0,2.1-0.1,4.2-0.2,6.2l0,0v2.6c-0.1,3.1-0.1,4.3-0.1,4.3
							l0.1-4.3c0,3.1,0,0.9,0-0.3c0,1.2,0,2.4-0.1,3.6c-0.1,1.2,0-0.5,0-0.9c0,1.7-0.1,4-0.1,6c0,3.1,0,0-0.1,3.9
							c-0.6,19.5-1,38.3-1.4,58c0,0.4,0,0,0-0.6c0,5.9-0.2,11.1-0.2,16.6c0,0.8-0.1,1.6-0.2,2.3c0-0.4,0,7-0.2,14.6
							S1.2,323.8,1.2,324.1z"/>
					</g>
					<g transform="translate(0.000000, 7.000000)" class="st1">
						<path class="st2" d="M1.7,198.3c-0.1,2.2-0.2,4.4-0.2,6.6C1.7,202.7,1.7,200.5,1.7,198.3L1.7,198.3z"/>
						<path class="st2" d="M8,682.4v-1.9C8,681.1,8,681.8,8,682.4L8,682.4z"/>
						<path class="st2" d="M1.1,324.1l0.2,0.4c0,5.8-0.3,1.7-0.2,7.1c0.3,2.1,0,9,0.2,10.9c0,0,0,2.6-0.1,2.4c0.1,1.4,0.1,2.9,0,4.3
							c0,0.6,0-0.4,0.1-0.9v3.8c0,1.5-0.2,1.9-0.2,0.2C1.1,362.4,1,410.3,1,421c0.1-1.4,0-4.7,0.3-6c0.1,2.8,0,4.3,0,5.5
							c-0.3,1.1,0,6.2-0.4,8.6l0.2,0.8v1.4c0.1,4.7,0.1,9.3,0,14c0,6.4,0.3,9.4,0.2,12.9c0-0.5,0-1.9,0.2-0.3c-0.2,0.3,0,4.3,0,5.2
							c0,1.6,0,6.9,0.2,5.1c0,0.9-0.1,5.6-0.2,2.8c0,1.6,0,3.1,0,4.3v-2.1c0,5.4-0.1,8.3,0,11.8v-2c0.1,2.4,0,4.8-0.2,7.1V487
							c0,5.3,0,8.6,0.1,12.9v-1.6c0.2,5.6,0.4,35.2,0.7,40.4l0.2-2.4l0.1,4.3c0-0.5-0.5-2.2-0.5-2.6c0,9.6,0.1,59.4,0,68.3
							c0,3.6-0.3,0.6-0.3,0.6c0,4.3,0.2,1.9,0.2,5.6c0,1-0.1,0-0.2-0.8c0,1.1,0,2.2,0,3.2c0-2,0.3-1.2,0.4-2v4.8H1.8
							c0.2,2.4,0.3,4.9,0.3,7.3c0,7.9,0,16.5,0,24.3c-0.1-1.1-0.2-2.3-0.2-3.4c0,1.1,0,2.7,0,3.7c0.1-1.9,0,3.3,0.1,1.9
							c0.3,5.8,0,13.3,0.3,18.4c0.3,0.5,5,11,5.4,11c0,1.6,0,3.1,0,3.7c0.1-1.7,0.1-3.5,0-5.2l-0.2-0.3c0-1.5,0-3.1,0-4.6
							c0.3,2,0.5,4.1,0.5,6.2c0.1-2.2,0.1-4.4,0-6.5c0-2.5,0.2,0.3,0.2-2.8c-0.1-2.6-0.2-5.3-0.1-7.9l0,0c0.2-6.1-0.2-9.3,0-15v0.6
							c0.1-2,0-5.9,0-9.5c0,1-0.1,1.9-0.2,0c0-4.3,0-6.9,0.1-9.9l-0.1-2.9c0-14.3-0.2-70.7-0.2-85.1v0.6c0-21.9,0-66.8-0.3-89.4
							c0.2-3.5,0.1-8.3,0.2-11.9c0,2-0.2,1.3-0.2-0.3c0-11.1,0-0.8-0.2-12c-0.1-12.9,0-62.5,0.1-74c-0.2-6.2,0-13.9-0.2-19.9v0.6
							c0-6.5,0.1-43.1,0-50.8v1c-0.1-3.6,0-7.2,0.2-10.9c-0.2,0.6-0.4-5-0.4-7.1l0,0c0-3.3-0.3-10.6-0.3-16l0.3,0.3
							c-0.1-4.3,0-12.9,0-16.1c0-7.3,0.3-18.7,0-28.5l0.4-6.3V200c0,0-4.6-10.2-5.5,2.8H1.7v2.6c0,3.1,0,4.3,0,4.3v-4.3
							c0,3.1,0,0.9-0.2-0.3c0,1.3,0,2.5,0,3.6s0-0.5,0-0.9c0.1,2,0.1,4,0,6c0,3.1-0.2,0-0.2,3.9c0,19.3-0.2,38.2-0.1,57.9
							c0,0.4,0,0,0-0.6c0,5.9,0,11.2,0,16.6c0,0.8-0.1,1.6-0.2,2.3C1.1,292.7,1.1,323.6,1.1,324.1z"/>
					</g>
					<g transform="translate(16.000000, 0.000000)" class="st1">
						<path class="st2" d="M1.3,197.9c-0.1,1.1-0.2,2.2-0.1,3.3C1.3,200.1,1.3,199,1.3,197.9z"/>
						<polygon class="st2" points="1.1,201 1.1,201 1.1,201 						"/>
						<path class="st2" d="M1.6,257.6h0.2c0,2.8-0.2,0.8-0.1,3.4c0.3,1,0,4.3,0.2,5.1c0,0,0,1.2,0,1.2s0,1.3,0.1,2.1s0-0.2,0-0.4
							v1.8c0,0.7-0.1,0.9-0.1,0c0,4.7,0.3,27.5,0.4,32.6c0-0.6,0-2.2,0.1-2.8c0.1,1.3,0,2,0.1,2.6c0.1,0.6,0,2.9-0.2,4v0.4v0.7
							c0.1,2.2,0.2,4.4,0.1,6.6c0,3.1,0.2,4.3,0.2,6.2c0,0,0-0.9,0,0c0,0,0,2.1,0,2.5c0,0.4,0,3.3,0.1,2.4c0,0.4,0,2.7-0.1,1.3
							c0,0.7,0,1.4,0,2v-0.8c0,2.5,0,3.9,0,5.6v-0.9c0.1,1.1,0.1,2.3,0,3.4V335c0,2.5,0,4.1,0.1,6.1v-0.7c0.1,2.7,0.4,16.7,0.5,19.2
							v-1.1v2.1c0-0.3-0.2-1-0.2-1.3c0,4.6,0.3,27.9,0.4,32.5c0,1.7,0,0.3,0,0.3c0,1.6,0,1.5,0,2.7c0,0.5,0,0,0-0.4c0,0.5,0,1,0,1.6
							c0-0.3,0-0.6,0-0.9v2.2c0,1.2,0,2.3,0,3.5c0,3.8,0,7.8,0.1,11.6c0-0.6,0-1.1,0-1.6c0,0.4,0,0.9,0,1.7c0-0.9,0,1.6,0,0.9
							c0,4.7,0,5.3,0,8.6c0,0,0,1.4,0,2.7c0,1.3,0,2.4,0,2.5v1.8c0-0.9,0-1.7,0-2.5l0,0c0-1.4,0-0.9,0-2.2v3v-3.1v-1.3
							c0-1,0-2.2,0-3.6l0,0c0-3.3,0-4,0-7.1v0.3c0-1.5,0-2.4,0-4.3c0,0.5,0,0.9,0,0c0-2.2,0-2.7,0-4.7v-1.4c0-6.8,0.4-33.6,0.5-40.4
							v0.3c0.1-10.4,0.4-31.7,0.4-42.5c0.1-1.6,0.1-3.9,0.2-5.7c0,0.9-0.1,0.6,0,0c0-5.3,0-0.3,0-5.7c0-6.2,0.4-29.7,0.5-35.1
							c-0.1-2.9,0-6.6,0-9.5v0.3c0-3.1,0.3-20.5,0.3-24.1v0.5c0-1.7,0-3.5,0.2-5.2c-0.2,0.3-0.3-2.3-0.3-3.4l0,0
							c0-1.6-0.2-5-0.2-7.6h0.1c-0.1-2.2,0-6.1,0-7.6c0.2-4.5,0.3-9,0.2-13.6l1.5-3.2v-0.4c-0.8-0.8-1.6-1.5-2.5-1.8
							c-1.3-0.3-2.7,0-3.1,3.1l-0.1-0.1v1.3c0,1.5,0.1,2.2,0,2.1v-2.1c0,1.5-0.1,0.4-0.2,0c0,0.6,0,1.2,0,1.7s0-0.2,0-0.4
							c0.1,0.9,0.2,1.9,0.1,2.8c0,1.5-0.2,0-0.2,1.8c0,9.3,0,18.3,0.2,27.6c0,0,0,0,0-0.3c0,2.9,0.1,5.2,0.2,7.9
							c0,0.4-0.1,0.8-0.1,1.1c0-0.2,0.1,3.3,0.2,6.9C1.5,254,1.6,257.3,1.6,257.6z"/>
					</g>
					<g transform="translate(23.000000, 277.000000)" class="st3">
						<path class="st4" d="M5.4,445.2c0.1-1.1,0.2-2.2,0.1-3.4C5.4,442.9,5.3,444.1,5.4,445.2L5.4,445.2z"/>
						<path class="st4" d="M5.5,441.8L5.5,441.8L5.5,441.8z"/>
						<path class="st4" d="M5,380.8l-0.2-0.2c0-3,0.2-0.9,0.1-3.6c-0.3-1.1,0-4.6-0.2-5.6c0,0,0-1.3,0-1.2c0,0.1,0-1.4,0-2.2
							s0,0,0,0.5v-2c0-0.7,0.1-0.9,0.1,0c0-5.1-0.3-29.7-0.4-35.2c0,0.7,0,2.4,0,3c0-1.4,0-2.1,0-2.8c0-0.6,0-3.2,0.2-4.3v-0.4v-0.7
							c-0.2-6.4,0-1.5-0.1-7.2c0-3.3-0.2-4.9-0.2-6.7c0,0.3,0,1,0,0c0,0,0-2.2,0-2.7s0-3.5-0.1-2.6c0-0.4,0-2.8,0-1.4
							c0-0.8,0-1.6,0-2.2v1.1c0-2.8,0-4.3-0.1-6v1c-0.1-1.2-0.1-2.4,0-3.7v1.7c0-2.7,0-4.3-0.1-6.6v0.8c-0.1-2.9-0.3-18-0.4-20.6
							v1.2v-2.3c0,0.3,0.2,1.1,0.2,1.3c0-4.9-0.3-30.2-0.4-34.9c0-1.9,0-0.3,0-0.3c0-1.7,0-1.5,0-2.8c0-0.5,0,0,0,0.4
							c0-0.8,0-1.6,0-1.6c0,0.3,0,0.7,0,1v-2.3c0-0.6,0-1.4,0-3.7c0-4.3,0-8.6,0-12.5c0,0.6,0,1.2,0,1.8c0-0.5,0-1,0-1.9
							c0,0.9,0-1.7,0-0.9c0-4.9,0-5.8,0-9.4c0,0,0-1.5,0-2.9s0-2.5,0-2.7s0-1.4,0-1.9c0,0.9,0,1.8,0,2.7l0,0c0,1.6,0,1,0,2.4v-3.2
							c0,1.1,0,1.4,0,3.4c0,0.6,0,0.8,0,1.4s0,2.3,0,3.9l0,0c0,3.5,0,4.3-0.1,7.7v-0.3c0,1.5,0,2.7,0,4.8c0-0.5,0-1,0,0
							c0,2.3,0,2.9,0,5v1.5c0,7.3-0.4,36.2-0.5,43.6v-0.3C2.7,280,2.4,303,2.3,314.6c0,1.8,0,4.3-0.1,6.1c0-1,0-0.7,0,0
							c0,5.7,0,0.4,0,6.2c0,6.6-0.4,32-0.5,37.9c0.1,3.1,0,7.1,0,10.2v-0.3c0,3.5-0.3,22-0.3,25.9V400c0,1.9,0,3.7-0.2,5.6
							c0.2-0.3,0.3,2.5,0.3,3.7l0,0c0,1.6,0.2,5.4,0.2,8.1H1.5c0,2.3,0,6.6,0,8.2c0,3.7-0.4,9.6-0.2,14.6l-0.4,3.3v0.5
							c0.8,0.8,1.6,1.4,2.4,1.8c1.3,0.5,2.7,0,3.1-3.2h0.1v-1.3c0-1.6-0.1-2.3,0-2.2v2.2c0-1.6,0.1-0.5,0.2,0c0-0.6,0-1.2,0-1.8
							c0-0.3,0,0,0,0.5c-0.1-1-0.1-2.1-0.1-3.1c0-1.6,0.2,0,0.2-2c0-10,0-19.7-0.2-29.7c0,0,0,0,0,0.3c0-3.1-0.1-5.6-0.2-8.6
							c0-0.4,0.1-0.8,0.1-1.2c0,0-0.1-3.6-0.2-7.5C6.2,384,5.1,381,5,380.8z"/>
					</g>
				</g>
			</g>
			<g transform="translate(21.000000, 537.000000)">
				<g>
					
						<linearGradient id="SVGID_3_" gradientUnits="userSpaceOnUse" x1="-596.6334" y1="970.4208" x2="-596.6334" y2="969.5051" gradientTransform="matrix(30 0 0 -520 17919 504864.1875)">
						<stop  offset="0" style="stop-color:#444242"/>
						<stop  offset="0.13" style="stop-color:#474545"/>
						<stop  offset="0.24" style="stop-color:#515050"/>
						<stop  offset="0.33" style="stop-color:#606060"/>
						<stop  offset="0.49" style="stop-color:#5C5C5F"/>
						<stop  offset="0.52" style="stop-color:#5B5B5F"/>
						<stop  offset="0.79" style="stop-color:#606060"/>
						<stop  offset="0.87" style="stop-color:#5D5C5C"/>
						<stop  offset="0.94" style="stop-color:#535252"/>
						<stop  offset="1" style="stop-color:#444242"/>
					</linearGradient>
					<rect x="5" y="202.8" class="st7" width="30" height="520"/>
					<g transform="translate(31.000000, 7.000000)" class="st1">
						<path class="st2" d="M4,198.3c0,2.3-0.1,4.3-0.2,6.6C3.8,202.3,4,200.7,4,198.3z"/>
						<polygon class="st2" points="3.8,204.9 3.8,204.9 3.8,204.8 						"/>
						<path class="st2" d="M4.1,682.4c0-0.6,0-1.3,0-2V682.4z"/>
						<path class="st2" d="M1.2,324.1l0.2,0.4c0,5.8-0.2,1.7-0.3,7.1c0.3,2.1-0.1,9,0,10.9c0,0,0,2.6-0.2,2.4c0.1,1.4,0.1,2.9,0,4.3
							c0,0.6,0-0.4,0.1-0.9v3.8c0,1.5-0.2,1.9-0.2,0.2c-0.2,10-0.6,57.9-0.5,68.7c0.1-1.4,0-4.7,0.3-6c0.1,2.8,0,4.3,0,5.5
							c-0.3,1.1,0,6.2-0.4,8.6l0.2,0.8l-0.1,1.4c0.1,4.6,0.1,9.3,0,14c0,6.4,0.3,9.4,0.2,12.9c0-0.5,0-1.9,0.2-0.3
							c-0.2,0.3,0.1,4.3,0,5.2c0,1.6,0,6.9,0.2,5.1c-0.1,0.9-0.1,5.6-0.2,2.8c0,1.6,0,3.1,0,4.3v-2.1c-0.1,3.9-0.1,7.9,0,11.8v-2
							c0.1,2.4,0,4.8-0.2,7.1v-3.3c0,5.3,0,8.6,0.2,12.9v-1.6c0.2,5.6,0.6,35.2,0.9,40.4l0.4-2.5l0.2,4.3c0-0.5-0.5-2.2-0.5-2.6
							c0.1,9.6,0.7,59.3,0.7,68.3c0,3.6-0.1,0.6-0.2,0.6c0,4.3,0.1,1.9,0.2,5.6c0,1,0,0-0.1-0.8c0,1.6,0,3.1,0,3.2
							c0-2,0.1-1.2,0.2-2v4.8l0,0c0.1,2.4,0.2,4.9,0.3,7.3c0.1,7.9,0.2,16.4,0.4,24.3c0,0,0-1.8-0.1-3.4c0,1,0,2.4,0,3.7
							c0-1.9,0,3.3,0,1.9c0.2,5.8,0.3,13.3,0.4,18.4c0,0,0.3,3,0.4,5.6c0.1,2.7,0,5.3,0,5.3c0,1.6,0,3-0.1,3.7
							c0-1.2,0.1-3.6,0.2-5.2v-0.3c0.1-3.4,0-1.4,0.2-4.6c0,0,0,3.2-0.2,6.2c0-2.7,0.2-5.4,0.2-6.5s0-1,0.1-2.8
							c0.1-1.8,0.1-4.9,0.2-7.6l0,0c0.2-6.1,0.2-9.3,0.4-15v0.6c0-2.3,0.2-5.7,0.3-9.5c0,1-0.1,1.9,0,0c0.1-4.3,0.2-6.5,0.3-9.9
							v-2.9c0.4-14.3,1.1-70.7,1.1-85.1v0.6c0.2-21.9,0.4-66.8,0.2-89.4c0.2-3.5,0.1-8.3,0.2-11.9c0,2-0.2,1.3-0.2-0.3
							c0-11.1,0-0.8-0.2-12c-0.1-12.9-0.2-62.5-0.2-74c-0.2-6.2-0.1-13.9-0.3-19.9v0.6c0-6.5-0.3-43.1-0.5-50.8v1
							c-0.2-6.6,0-5.7,0-10.9c-0.2-2.3-0.4-4.7-0.3-7.1l0,0c0-3.2-0.3-10.8-0.4-16v0.2c-0.1-4.3-0.2-12.9-0.3-16.1
							c-0.1-7.3-0.3-18.7-0.5-28.5l-0.1-6.3V200c0,0,0.2-2.5,0.2-3.5c0,2.1-0.1,4.2-0.2,6.2l0,0v2.6c-0.1,3.1-0.1,4.3-0.1,4.3
							l0.1-4.3c0,3.1,0,0.9,0-0.3c0,1.2,0,2.4-0.1,3.6c-0.1,1.2,0-0.5,0-0.9c0,1.7-0.1,4-0.1,6c0,3.1,0,0-0.1,3.9
							c-0.6,19.5-1,38.3-1.4,58c0,0.4,0,0,0-0.6c0,5.9-0.2,11.1-0.2,16.6c0,0.8-0.1,1.6-0.2,2.3c0-0.4,0,7-0.2,14.6
							S1.2,323.8,1.2,324.1z"/>
					</g>
					<g transform="translate(0.000000, 7.000000)" class="st1">
						<path class="st2" d="M1.7,198.3c-0.1,2.2-0.2,4.4-0.2,6.6C1.7,202.7,1.7,200.5,1.7,198.3L1.7,198.3z"/>
						<path class="st2" d="M8,682.4v-1.9C8,681.1,8,681.8,8,682.4L8,682.4z"/>
						<path class="st2" d="M1.1,324.1l0.2,0.4c0,5.8-0.3,1.7-0.2,7.1c0.3,2.1,0,9,0.2,10.9c0,0,0,2.6-0.1,2.4c0.1,1.4,0.1,2.9,0,4.3
							c0,0.6,0-0.4,0.1-0.9v3.8c0,1.5-0.2,1.9-0.2,0.2C1.1,362.4,1,410.3,1,421c0.1-1.4,0-4.7,0.3-6c0.1,2.8,0,4.3,0,5.5
							c-0.3,1.1,0,6.2-0.4,8.6l0.2,0.8v1.4c0.1,4.7,0.1,9.3,0,14c0,6.4,0.3,9.4,0.2,12.9c0-0.5,0-1.9,0.2-0.3c-0.2,0.3,0,4.3,0,5.2
							c0,1.6,0,6.9,0.2,5.1c0,0.9-0.1,5.6-0.2,2.8c0,1.6,0,3.1,0,4.3v-2.1c0,5.4-0.1,8.3,0,11.8v-2c0.1,2.4,0,4.8-0.2,7.1V487
							c0,5.3,0,8.6,0.1,12.9v-1.6c0.2,5.6,0.4,35.2,0.7,40.4l0.2-2.4l0.1,4.3c0-0.5-0.5-2.2-0.5-2.6c0,9.6,0.1,59.4,0,68.3
							c0,3.6-0.3,0.6-0.3,0.6c0,4.3,0.2,1.9,0.2,5.6c0,1-0.1,0-0.2-0.8c0,1.1,0,2.2,0,3.2c0-2,0.3-1.2,0.4-2v4.8H1.8
							c0.2,2.4,0.3,4.9,0.3,7.3c0,7.9,0,16.5,0,24.3c-0.1-1.1-0.2-2.3-0.2-3.4c0,1.1,0,2.7,0,3.7c0.1-1.9,0,3.3,0.1,1.9
							c0.3,5.8,0,13.3,0.3,18.4c0.3,0.5,5,11,5.4,11c0,1.6,0,3.1,0,3.7c0.1-1.7,0.1-3.5,0-5.2l-0.2-0.3c0-1.5,0-3.1,0-4.6
							c0.3,2,0.5,4.1,0.5,6.2c0.1-2.2,0.1-4.4,0-6.5c0-2.5,0.2,0.3,0.2-2.8c-0.1-2.6-0.2-5.3-0.1-7.9l0,0c0.2-6.1-0.2-9.3,0-15v0.6
							c0.1-2,0-5.9,0-9.5c0,1-0.1,1.9-0.2,0c0-4.3,0-6.9,0.1-9.9l-0.1-2.9c0-14.3-0.2-70.7-0.2-85.1v0.6c0-21.9,0-66.8-0.3-89.4
							c0.2-3.5,0.1-8.3,0.2-11.9c0,2-0.2,1.3-0.2-0.3c0-11.1,0-0.8-0.2-12c-0.1-12.9,0-62.5,0.1-74c-0.2-6.2,0-13.9-0.2-19.9v0.6
							c0-6.5,0.1-43.1,0-50.8v1c-0.1-3.6,0-7.2,0.2-10.9c-0.2,0.6-0.4-5-0.4-7.1l0,0c0-3.3-0.3-10.6-0.3-16l0.3,0.3
							c-0.1-4.3,0-12.9,0-16.1c0-7.3,0.3-18.7,0-28.5l0.4-6.3V200c0,0-4.6-10.2-5.5,2.8H1.7v2.6c0,3.1,0,4.3,0,4.3v-4.3
							c0,3.1,0,0.9-0.2-0.3c0,1.3,0,2.5,0,3.6s0-0.5,0-0.9c0.1,2,0.1,4,0,6c0,3.1-0.2,0-0.2,3.9c0,19.3-0.2,38.2-0.1,57.9
							c0,0.4,0,0,0-0.6c0,5.9,0,11.2,0,16.6c0,0.8-0.1,1.6-0.2,2.3C1.1,292.7,1.1,323.6,1.1,324.1z"/>
					</g>
					<g transform="translate(16.000000, 0.000000)" class="st1">
						<path class="st2" d="M1.3,197.9c-0.1,1.1-0.2,2.2-0.1,3.3C1.3,200.1,1.3,199,1.3,197.9z"/>
						<polygon class="st2" points="1.1,201 1.1,201 1.1,201 						"/>
						<path class="st2" d="M1.6,257.6h0.2c0,2.8-0.2,0.8-0.1,3.4c0.3,1,0,4.3,0.2,5.1c0,0,0,1.2,0,1.2s0,1.3,0.1,2.1s0-0.2,0-0.4
							v1.8c0,0.7-0.1,0.9-0.1,0c0,4.7,0.3,27.5,0.4,32.6c0-0.6,0-2.2,0.1-2.8c0.1,1.3,0,2,0.1,2.6c0.1,0.6,0,2.9-0.2,4v0.4v0.7
							c0.1,2.2,0.2,4.4,0.1,6.6c0,3.1,0.2,4.3,0.2,6.2c0,0,0-0.9,0,0c0,0,0,2.1,0,2.5c0,0.4,0,3.3,0.1,2.4c0,0.4,0,2.7-0.1,1.3
							c0,0.7,0,1.4,0,2v-0.8c0,2.5,0,3.9,0,5.6v-0.9c0.1,1.1,0.1,2.3,0,3.4V335c0,2.5,0,4.1,0.1,6.1v-0.7c0.1,2.7,0.4,16.7,0.5,19.2
							v-1.1v2.1c0-0.3-0.2-1-0.2-1.3c0,4.6,0.3,27.9,0.4,32.5c0,1.7,0,0.3,0,0.3c0,1.6,0,1.5,0,2.7c0,0.5,0,0,0-0.4c0,0.5,0,1,0,1.6
							c0-0.3,0-0.6,0-0.9v2.2c0,1.2,0,2.3,0,3.5c0,3.8,0,7.8,0.1,11.6c0-0.6,0-1.1,0-1.6c0,0.4,0,0.9,0,1.7c0-0.9,0,1.6,0,0.9
							c0,4.7,0,5.3,0,8.6c0,0,0,1.4,0,2.7c0,1.3,0,2.4,0,2.5v1.8c0-0.9,0-1.7,0-2.5l0,0c0-1.4,0-0.9,0-2.2v3v-3.1v-1.3
							c0-1,0-2.2,0-3.6l0,0c0-3.3,0-4,0-7.1v0.3c0-1.5,0-2.4,0-4.3c0,0.5,0,0.9,0,0c0-2.2,0-2.7,0-4.7v-1.4c0-6.8,0.4-33.6,0.5-40.4
							v0.3c0.1-10.4,0.4-31.7,0.4-42.5c0.1-1.6,0.1-3.9,0.2-5.7c0,0.9-0.1,0.6,0,0c0-5.3,0-0.3,0-5.7c0-6.2,0.4-29.7,0.5-35.1
							c-0.1-2.9,0-6.6,0-9.5v0.3c0-3.1,0.3-20.5,0.3-24.1v0.5c0-1.7,0-3.5,0.2-5.2c-0.2,0.3-0.3-2.3-0.3-3.4l0,0
							c0-1.6-0.2-5-0.2-7.6h0.1c-0.1-2.2,0-6.1,0-7.6c0.2-4.5,0.3-9,0.2-13.6l1.5-3.2v-0.4c-0.8-0.8-1.6-1.5-2.5-1.8
							c-1.3-0.3-2.7,0-3.1,3.1l-0.1-0.1v1.3c0,1.5,0.1,2.2,0,2.1v-2.1c0,1.5-0.1,0.4-0.2,0c0,0.6,0,1.2,0,1.7s0-0.2,0-0.4
							c0.1,0.9,0.2,1.9,0.1,2.8c0,1.5-0.2,0-0.2,1.8c0,9.3,0,18.3,0.2,27.6c0,0,0,0,0-0.3c0,2.9,0.1,5.2,0.2,7.9
							c0,0.4-0.1,0.8-0.1,1.1c0-0.2,0.1,3.3,0.2,6.9C1.5,254,1.6,257.3,1.6,257.6z"/>
					</g>
					<g transform="translate(23.000000, 277.000000)" class="st3">
						<path class="st4" d="M5.4,445.2c0.1-1.1,0.2-2.2,0.1-3.4C5.4,442.9,5.3,444.1,5.4,445.2L5.4,445.2z"/>
						<path class="st4" d="M5.5,441.8L5.5,441.8L5.5,441.8z"/>
						<path class="st4" d="M5,380.8l-0.2-0.2c0-3,0.2-0.9,0.1-3.6c-0.3-1.1,0-4.6-0.2-5.6c0,0,0-1.3,0-1.2c0,0.1,0-1.4,0-2.2
							s0,0,0,0.5v-2c0-0.7,0.1-0.9,0.1,0c0-5.1-0.3-29.7-0.4-35.2c0,0.7,0,2.4,0,3c0-1.4,0-2.1,0-2.8c0-0.6,0-3.2,0.2-4.3v-0.4v-0.7
							c-0.2-6.4,0-1.5-0.1-7.2c0-3.3-0.2-4.9-0.2-6.7c0,0.3,0,1,0,0c0,0,0-2.2,0-2.7s0-3.5-0.1-2.6c0-0.4,0-2.8,0-1.4
							c0-0.8,0-1.6,0-2.2v1.1c0-2.8,0-4.3-0.1-6v1c-0.1-1.2-0.1-2.4,0-3.7v1.7c0-2.7,0-4.3-0.1-6.6v0.8c-0.1-2.9-0.3-18-0.4-20.6
							v1.2v-2.3c0,0.3,0.2,1.1,0.2,1.3c0-4.9-0.3-30.2-0.4-34.9c0-1.9,0-0.3,0-0.3c0-1.7,0-1.5,0-2.8c0-0.5,0,0,0,0.4
							c0-0.8,0-1.6,0-1.6c0,0.3,0,0.7,0,1v-2.3c0-0.6,0-1.4,0-3.7c0-4.3,0-8.6,0-12.5c0,0.6,0,1.2,0,1.8c0-0.5,0-1,0-1.9
							c0,0.9,0-1.7,0-0.9c0-4.9,0-5.8,0-9.4c0,0,0-1.5,0-2.9s0-2.5,0-2.7s0-1.4,0-1.9c0,0.9,0,1.8,0,2.7l0,0c0,1.6,0,1,0,2.4v-3.2
							c0,1.1,0,1.4,0,3.4c0,0.6,0,0.8,0,1.4s0,2.3,0,3.9l0,0c0,3.5,0,4.3-0.1,7.7v-0.3c0,1.5,0,2.7,0,4.8c0-0.5,0-1,0,0
							c0,2.3,0,2.9,0,5v1.5c0,7.3-0.4,36.2-0.5,43.6v-0.3C2.7,280,2.4,303,2.3,314.6c0,1.8,0,4.3-0.1,6.1c0-1,0-0.7,0,0
							c0,5.7,0,0.4,0,6.2c0,6.6-0.4,32-0.5,37.9c0.1,3.1,0,7.1,0,10.2v-0.3c0,3.5-0.3,22-0.3,25.9V400c0,1.9,0,3.7-0.2,5.6
							c0.2-0.3,0.3,2.5,0.3,3.7l0,0c0,1.6,0.2,5.4,0.2,8.1H1.5c0,2.3,0,6.6,0,8.2c0,3.7-0.4,9.6-0.2,14.6l-0.4,3.3v0.5
							c0.8,0.8,1.6,1.4,2.4,1.8c1.3,0.5,2.7,0,3.1-3.2h0.1v-1.3c0-1.6-0.1-2.3,0-2.2v2.2c0-1.6,0.1-0.5,0.2,0c0-0.6,0-1.2,0-1.8
							c0-0.3,0,0,0,0.5c-0.1-1-0.1-2.1-0.1-3.1c0-1.6,0.2,0,0.2-2c0-10,0-19.7-0.2-29.7c0,0,0,0,0,0.3c0-3.1-0.1-5.6-0.2-8.6
							c0-0.4,0.1-0.8,0.1-1.2c0,0-0.1-3.6-0.2-7.5C6.2,384,5.1,381,5,380.8z"/>
					</g>
				</g>
			</g>
			<g transform="translate(21.000000, 1074.000000)">
				<g>
					
						<linearGradient id="SVGID_4_" gradientUnits="userSpaceOnUse" x1="-596.6334" y1="433.4208" x2="-596.6334" y2="432.5051" gradientTransform="matrix(30 0 0 -520 17919 225624.2031)">
						<stop  offset="0" style="stop-color:#444242"/>
						<stop  offset="0.13" style="stop-color:#474545"/>
						<stop  offset="0.24" style="stop-color:#515050"/>
						<stop  offset="0.33" style="stop-color:#606060"/>
						<stop  offset="0.49" style="stop-color:#5C5C5F"/>
						<stop  offset="0.52" style="stop-color:#5B5B5F"/>
						<stop  offset="0.79" style="stop-color:#606060"/>
						<stop  offset="0.87" style="stop-color:#5D5C5C"/>
						<stop  offset="0.94" style="stop-color:#535252"/>
						<stop  offset="1" style="stop-color:#444242"/>
					</linearGradient>
					<rect x="5" y="202.8" class="st8" width="30" height="520"/>
					<g transform="translate(31.000000, 7.000000)" class="st1">
						<path class="st2" d="M4,198.3c0,2.3-0.1,4.3-0.2,6.6C3.8,202.3,4,200.7,4,198.3z"/>
						<polygon class="st2" points="3.8,204.9 3.8,204.9 3.8,204.8 						"/>
						<path class="st2" d="M4.1,682.4c0-0.6,0-1.3,0-2V682.4z"/>
						<path class="st2" d="M1.2,324.1l0.2,0.4c0,5.8-0.2,1.7-0.3,7.1c0.3,2.1-0.1,9,0,10.9c0,0,0,2.6-0.2,2.4c0.1,1.4,0.1,2.9,0,4.3
							c0,0.6,0-0.4,0.1-0.9v3.8c0,1.5-0.2,1.9-0.2,0.2c-0.2,10-0.6,57.9-0.5,68.7c0.1-1.4,0-4.7,0.3-6c0.1,2.8,0,4.3,0,5.5
							c-0.3,1.1,0,6.2-0.4,8.6l0.2,0.8l-0.1,1.4c0.1,4.6,0.1,9.3,0,14c0,6.4,0.3,9.4,0.2,12.9c0-0.5,0-1.9,0.2-0.3
							c-0.2,0.3,0.1,4.3,0,5.2c0,1.6,0,6.9,0.2,5.1c-0.1,0.9-0.1,5.6-0.2,2.8c0,1.6,0,3.1,0,4.3v-2.1c-0.1,3.9-0.1,7.9,0,11.8v-2
							c0.1,2.4,0,4.8-0.2,7.1v-3.3c0,5.3,0,8.6,0.2,12.9v-1.6c0.2,5.6,0.6,35.2,0.9,40.4l0.4-2.5l0.2,4.3c0-0.5-0.5-2.2-0.5-2.6
							c0.1,9.6,0.7,59.3,0.7,68.3c0,3.6-0.1,0.6-0.2,0.6c0,4.3,0.1,1.9,0.2,5.6c0,1,0,0-0.1-0.8c0,1.6,0,3.1,0,3.2
							c0-2,0.1-1.2,0.2-2v4.8l0,0c0.1,2.4,0.2,4.9,0.3,7.3c0.1,7.9,0.2,16.4,0.4,24.3c0,0,0-1.8-0.1-3.4c0,1,0,2.4,0,3.7
							c0-1.9,0,3.3,0,1.9c0.2,5.8,0.3,13.3,0.4,18.4c0,0,0.3,3,0.4,5.6c0.1,2.7,0,5.3,0,5.3c0,1.6,0,3-0.1,3.7
							c0-1.2,0.1-3.6,0.2-5.2v-0.3c0.1-3.4,0-1.4,0.2-4.6c0,0,0,3.2-0.2,6.2c0-2.7,0.2-5.4,0.2-6.5s0-1,0.1-2.8
							c0.1-1.8,0.1-4.9,0.2-7.6l0,0c0.2-6.1,0.2-9.3,0.4-15v0.6c0-2.3,0.2-5.7,0.3-9.5c0,1-0.1,1.9,0,0c0.1-4.3,0.2-6.5,0.3-9.9
							v-2.9c0.4-14.3,1.1-70.7,1.1-85.1v0.6c0.2-21.9,0.4-66.8,0.2-89.4c0.2-3.5,0.1-8.3,0.2-11.9c0,2-0.2,1.3-0.2-0.3
							c0-11.1,0-0.8-0.2-12c-0.1-12.9-0.2-62.5-0.2-74c-0.2-6.2-0.1-13.9-0.3-19.9v0.6c0-6.5-0.3-43.1-0.5-50.8v1
							c-0.2-6.6,0-5.7,0-10.9c-0.2-2.3-0.4-4.7-0.3-7.1l0,0c0-3.2-0.3-10.8-0.4-16v0.2c-0.1-4.3-0.2-12.9-0.3-16.1
							c-0.1-7.3-0.3-18.7-0.5-28.5l-0.1-6.3V200c0,0,0.2-2.5,0.2-3.5c0,2.1-0.1,4.2-0.2,6.2l0,0v2.6c-0.1,3.1-0.1,4.3-0.1,4.3
							l0.1-4.3c0,3.1,0,0.9,0-0.3c0,1.2,0,2.4-0.1,3.6c-0.1,1.2,0-0.5,0-0.9c0,1.7-0.1,4-0.1,6c0,3.1,0,0-0.1,3.9
							c-0.6,19.5-1,38.3-1.4,58c0,0.4,0,0,0-0.6c0,5.9-0.2,11.1-0.2,16.6c0,0.8-0.1,1.6-0.2,2.3c0-0.4,0,7-0.2,14.6
							S1.2,323.8,1.2,324.1z"/>
					</g>
					<g transform="translate(0.000000, 7.000000)" class="st1">
						<path class="st2" d="M1.7,198.3c-0.1,2.2-0.2,4.4-0.2,6.6C1.7,202.7,1.7,200.5,1.7,198.3L1.7,198.3z"/>
						<path class="st2" d="M8,682.4v-1.9C8,681.1,8,681.8,8,682.4L8,682.4z"/>
						<path class="st2" d="M1.1,324.1l0.2,0.4c0,5.8-0.3,1.7-0.2,7.1c0.3,2.1,0,9,0.2,10.9c0,0,0,2.6-0.1,2.4c0.1,1.4,0.1,2.9,0,4.3
							c0,0.6,0-0.4,0.1-0.9v3.8c0,1.5-0.2,1.9-0.2,0.2C1.1,362.4,1,410.3,1,421c0.1-1.4,0-4.7,0.3-6c0.1,2.8,0,4.3,0,5.5
							c-0.3,1.1,0,6.2-0.4,8.6l0.2,0.8v1.4c0.1,4.7,0.1,9.3,0,14c0,6.4,0.3,9.4,0.2,12.9c0-0.5,0-1.9,0.2-0.3c-0.2,0.3,0,4.3,0,5.2
							c0,1.6,0,6.9,0.2,5.1c0,0.9-0.1,5.6-0.2,2.8c0,1.6,0,3.1,0,4.3v-2.1c0,5.4-0.1,8.3,0,11.8v-2c0.1,2.4,0,4.8-0.2,7.1V487
							c0,5.3,0,8.6,0.1,12.9v-1.6c0.2,5.6,0.4,35.2,0.7,40.4l0.2-2.4l0.1,4.3c0-0.5-0.5-2.2-0.5-2.6c0,9.6,0.1,59.4,0,68.3
							c0,3.6-0.3,0.6-0.3,0.6c0,4.3,0.2,1.9,0.2,5.6c0,1-0.1,0-0.2-0.8c0,1.1,0,2.2,0,3.2c0-2,0.3-1.2,0.4-2v4.8H1.8
							c0.2,2.4,0.3,4.9,0.3,7.3c0,7.9,0,16.5,0,24.3c-0.1-1.1-0.2-2.3-0.2-3.4c0,1.1,0,2.7,0,3.7c0.1-1.9,0,3.3,0.1,1.9
							c0.3,5.8,0,13.3,0.3,18.4c0.3,0.5,5,11,5.4,11c0,1.6,0,3.1,0,3.7c0.1-1.7,0.1-3.5,0-5.2l-0.2-0.3c0-1.5,0-3.1,0-4.6
							c0.3,2,0.5,4.1,0.5,6.2c0.1-2.2,0.1-4.4,0-6.5c0-2.5,0.2,0.3,0.2-2.8c-0.1-2.6-0.2-5.3-0.1-7.9l0,0c0.2-6.1-0.2-9.3,0-15v0.6
							c0.1-2,0-5.9,0-9.5c0,1-0.1,1.9-0.2,0c0-4.3,0-6.9,0.1-9.9l-0.1-2.9c0-14.3-0.2-70.7-0.2-85.1v0.6c0-21.9,0-66.8-0.3-89.4
							c0.2-3.5,0.1-8.3,0.2-11.9c0,2-0.2,1.3-0.2-0.3c0-11.1,0-0.8-0.2-12c-0.1-12.9,0-62.5,0.1-74c-0.2-6.2,0-13.9-0.2-19.9v0.6
							c0-6.5,0.1-43.1,0-50.8v1c-0.1-3.6,0-7.2,0.2-10.9c-0.2,0.6-0.4-5-0.4-7.1l0,0c0-3.3-0.3-10.6-0.3-16l0.3,0.3
							c-0.1-4.3,0-12.9,0-16.1c0-7.3,0.3-18.7,0-28.5l0.4-6.3V200c0,0-4.6-10.2-5.5,2.8H1.7v2.6c0,3.1,0,4.3,0,4.3v-4.3
							c0,3.1,0,0.9-0.2-0.3c0,1.3,0,2.5,0,3.6s0-0.5,0-0.9c0.1,2,0.1,4,0,6c0,3.1-0.2,0-0.2,3.9c0,19.3-0.2,38.2-0.1,57.9
							c0,0.4,0,0,0-0.6c0,5.9,0,11.2,0,16.6c0,0.8-0.1,1.6-0.2,2.3C1.1,292.7,1.1,323.6,1.1,324.1z"/>
					</g>
					<g transform="translate(16.000000, 0.000000)" class="st1">
						<path class="st2" d="M1.3,197.9c-0.1,1.1-0.2,2.2-0.1,3.3C1.3,200.1,1.3,199,1.3,197.9z"/>
						<polygon class="st2" points="1.1,201 1.1,201 1.1,201 						"/>
						<path class="st2" d="M1.6,257.6h0.2c0,2.8-0.2,0.8-0.1,3.4c0.3,1,0,4.3,0.2,5.1c0,0,0,1.2,0,1.2s0,1.3,0.1,2.1s0-0.2,0-0.4
							v1.8c0,0.7-0.1,0.9-0.1,0c0,4.7,0.3,27.5,0.4,32.6c0-0.6,0-2.2,0.1-2.8c0.1,1.3,0,2,0.1,2.6c0.1,0.6,0,2.9-0.2,4v0.4v0.7
							c0.1,2.2,0.2,4.4,0.1,6.6c0,3.1,0.2,4.3,0.2,6.2c0,0,0-0.9,0,0c0,0,0,2.1,0,2.5c0,0.4,0,3.3,0.1,2.4c0,0.4,0,2.7-0.1,1.3
							c0,0.7,0,1.4,0,2v-0.8c0,2.5,0,3.9,0,5.6v-0.9c0.1,1.1,0.1,2.3,0,3.4V335c0,2.5,0,4.1,0.1,6.1v-0.7c0.1,2.7,0.4,16.7,0.5,19.2
							v-1.1v2.1c0-0.3-0.2-1-0.2-1.3c0,4.6,0.3,27.9,0.4,32.5c0,1.7,0,0.3,0,0.3c0,1.6,0,1.5,0,2.7c0,0.5,0,0,0-0.4c0,0.5,0,1,0,1.6
							c0-0.3,0-0.6,0-0.9v2.2c0,1.2,0,2.3,0,3.5c0,3.8,0,7.8,0.1,11.6c0-0.6,0-1.1,0-1.6c0,0.4,0,0.9,0,1.7c0-0.9,0,1.6,0,0.9
							c0,4.7,0,5.3,0,8.6c0,0,0,1.4,0,2.7c0,1.3,0,2.4,0,2.5v1.8c0-0.9,0-1.7,0-2.5l0,0c0-1.4,0-0.9,0-2.2v3v-3.1v-1.3
							c0-1,0-2.2,0-3.6l0,0c0-3.3,0-4,0-7.1v0.3c0-1.5,0-2.4,0-4.3c0,0.5,0,0.9,0,0c0-2.2,0-2.7,0-4.7v-1.4c0-6.8,0.4-33.6,0.5-40.4
							v0.3c0.1-10.4,0.4-31.7,0.4-42.5c0.1-1.6,0.1-3.9,0.2-5.7c0,0.9-0.1,0.6,0,0c0-5.3,0-0.3,0-5.7c0-6.2,0.4-29.7,0.5-35.1
							c-0.1-2.9,0-6.6,0-9.5v0.3c0-3.1,0.3-20.5,0.3-24.1v0.5c0-1.7,0-3.5,0.2-5.2c-0.2,0.3-0.3-2.3-0.3-3.4l0,0
							c0-1.6-0.2-5-0.2-7.6h0.1c-0.1-2.2,0-6.1,0-7.6c0.2-4.5,0.3-9,0.2-13.6l1.5-3.2v-0.4c-0.8-0.8-1.6-1.5-2.5-1.8
							c-1.3-0.3-2.7,0-3.1,3.1l-0.1-0.1v1.3c0,1.5,0.1,2.2,0,2.1v-2.1c0,1.5-0.1,0.4-0.2,0c0,0.6,0,1.2,0,1.7s0-0.2,0-0.4
							c0.1,0.9,0.2,1.9,0.1,2.8c0,1.5-0.2,0-0.2,1.8c0,9.3,0,18.3,0.2,27.6c0,0,0,0,0-0.3c0,2.9,0.1,5.2,0.2,7.9
							c0,0.4-0.1,0.8-0.1,1.1c0-0.2,0.1,3.3,0.2,6.9C1.5,254,1.6,257.3,1.6,257.6z"/>
					</g>
					<g transform="translate(23.000000, 277.000000)" class="st3">
						<path class="st4" d="M5.4,445.2c0.1-1.1,0.2-2.2,0.1-3.4C5.4,442.9,5.3,444.1,5.4,445.2L5.4,445.2z"/>
						<path class="st4" d="M5.5,441.8L5.5,441.8L5.5,441.8z"/>
						<path class="st4" d="M5,380.8l-0.2-0.2c0-3,0.2-0.9,0.1-3.6c-0.3-1.1,0-4.6-0.2-5.6c0,0,0-1.3,0-1.2c0,0.1,0-1.4,0-2.2
							s0,0,0,0.5v-2c0-0.7,0.1-0.9,0.1,0c0-5.1-0.3-29.7-0.4-35.2c0,0.7,0,2.4,0,3c0-1.4,0-2.1,0-2.8c0-0.6,0-3.2,0.2-4.3v-0.4v-0.7
							c-0.2-6.4,0-1.5-0.1-7.2c0-3.3-0.2-4.9-0.2-6.7c0,0.3,0,1,0,0c0,0,0-2.2,0-2.7s0-3.5-0.1-2.6c0-0.4,0-2.8,0-1.4
							c0-0.8,0-1.6,0-2.2v1.1c0-2.8,0-4.3-0.1-6v1c-0.1-1.2-0.1-2.4,0-3.7v1.7c0-2.7,0-4.3-0.1-6.6v0.8c-0.1-2.9-0.3-18-0.4-20.6
							v1.2v-2.3c0,0.3,0.2,1.1,0.2,1.3c0-4.9-0.3-30.2-0.4-34.9c0-1.9,0-0.3,0-0.3c0-1.7,0-1.5,0-2.8c0-0.5,0,0,0,0.4
							c0-0.8,0-1.6,0-1.6c0,0.3,0,0.7,0,1v-2.3c0-0.6,0-1.4,0-3.7c0-4.3,0-8.6,0-12.5c0,0.6,0,1.2,0,1.8c0-0.5,0-1,0-1.9
							c0,0.9,0-1.7,0-0.9c0-4.9,0-5.8,0-9.4c0,0,0-1.5,0-2.9s0-2.5,0-2.7s0-1.4,0-1.9c0,0.9,0,1.8,0,2.7l0,0c0,1.6,0,1,0,2.4v-3.2
							c0,1.1,0,1.4,0,3.4c0,0.6,0,0.8,0,1.4s0,2.3,0,3.9l0,0c0,3.5,0,4.3-0.1,7.7v-0.3c0,1.5,0,2.7,0,4.8c0-0.5,0-1,0,0
							c0,2.3,0,2.9,0,5v1.5c0,7.3-0.4,36.2-0.5,43.6v-0.3C2.7,280,2.4,303,2.3,314.6c0,1.8,0,4.3-0.1,6.1c0-1,0-0.7,0,0
							c0,5.7,0,0.4,0,6.2c0,6.6-0.4,32-0.5,37.9c0.1,3.1,0,7.1,0,10.2v-0.3c0,3.5-0.3,22-0.3,25.9V400c0,1.9,0,3.7-0.2,5.6
							c0.2-0.3,0.3,2.5,0.3,3.7l0,0c0,1.6,0.2,5.4,0.2,8.1H1.5c0,2.3,0,6.6,0,8.2c0,3.7-0.4,9.6-0.2,14.6l-0.4,3.3v0.5
							c0.8,0.8,1.6,1.4,2.4,1.8c1.3,0.5,2.7,0,3.1-3.2h0.1v-1.3c0-1.6-0.1-2.3,0-2.2v2.2c0-1.6,0.1-0.5,0.2,0c0-0.6,0-1.2,0-1.8
							c0-0.3,0,0,0,0.5c-0.1-1-0.1-2.1-0.1-3.1c0-1.6,0.2,0,0.2-2c0-10,0-19.7-0.2-29.7c0,0,0,0,0,0.3c0-3.1-0.1-5.6-0.2-8.6
							c0-0.4,0.1-0.8,0.1-1.2c0,0-0.1-3.6-0.2-7.5C6.2,384,5.1,381,5,380.8z"/>
					</g>
				</g>
			</g>
			<g transform="translate(21.000000, 0.000000)">
				<g>
					
						<linearGradient id="SVGID_5_" gradientUnits="userSpaceOnUse" x1="-596.6334" y1="1507.4208" x2="-596.6334" y2="1506.5051" gradientTransform="matrix(30 0 0 -520 17919 784104.1875)">
						<stop  offset="0" style="stop-color:#444242"/>
						<stop  offset="0.13" style="stop-color:#474545"/>
						<stop  offset="0.24" style="stop-color:#515050"/>
						<stop  offset="0.33" style="stop-color:#606060"/>
						<stop  offset="0.49" style="stop-color:#5C5C5F"/>
						<stop  offset="0.52" style="stop-color:#5B5B5F"/>
						<stop  offset="0.79" style="stop-color:#606060"/>
						<stop  offset="0.87" style="stop-color:#5D5C5C"/>
						<stop  offset="0.94" style="stop-color:#535252"/>
						<stop  offset="1" style="stop-color:#444242"/>
					</linearGradient>
					<rect x="5" y="202.8" class="st9" width="30" height="520"/>
					<g transform="translate(31.000000, 7.000000)" class="st1">
						<path class="st2" d="M4,198.3c0,2.3-0.1,4.3-0.2,6.6C3.8,202.3,4,200.7,4,198.3z"/>
						<polygon class="st2" points="3.8,204.9 3.8,204.9 3.8,204.8 						"/>
						<path class="st2" d="M4.1,682.4c0-0.6,0-1.3,0-2V682.4z"/>
						<path class="st2" d="M1.2,324.1l0.2,0.4c0,5.8-0.2,1.7-0.3,7.1c0.3,2.1-0.1,9,0,10.9c0,0,0,2.6-0.2,2.4c0.1,1.4,0.1,2.9,0,4.3
							c0,0.6,0-0.4,0.1-0.9v3.8c0,1.5-0.2,1.9-0.2,0.2c-0.2,10-0.6,57.9-0.5,68.7c0.1-1.4,0-4.7,0.3-6c0.1,2.8,0,4.3,0,5.5
							c-0.3,1.1,0,6.2-0.4,8.6l0.2,0.8l-0.1,1.4c0.1,4.6,0.1,9.3,0,14c0,6.4,0.3,9.4,0.2,12.9c0-0.5,0-1.9,0.2-0.3
							c-0.2,0.3,0.1,4.3,0,5.2c0,1.6,0,6.9,0.2,5.1c-0.1,0.9-0.1,5.6-0.2,2.8c0,1.6,0,3.1,0,4.3v-2.1c-0.1,3.9-0.1,7.9,0,11.8v-2
							c0.1,2.4,0,4.8-0.2,7.1v-3.3c0,5.3,0,8.6,0.2,12.9v-1.6c0.2,5.6,0.6,35.2,0.9,40.4l0.4-2.5l0.2,4.3c0-0.5-0.5-2.2-0.5-2.6
							c0.1,9.6,0.7,59.3,0.7,68.3c0,3.6-0.1,0.6-0.2,0.6c0,4.3,0.1,1.9,0.2,5.6c0,1,0,0-0.1-0.8c0,1.6,0,3.1,0,3.2
							c0-2,0.1-1.2,0.2-2v4.8l0,0c0.1,2.4,0.2,4.9,0.3,7.3c0.1,7.9,0.2,16.4,0.4,24.3c0,0,0-1.8-0.1-3.4c0,1,0,2.4,0,3.7
							c0-1.9,0,3.3,0,1.9c0.2,5.8,0.3,13.3,0.4,18.4c0,0,0.3,3,0.4,5.6c0.1,2.7,0,5.3,0,5.3c0,1.6,0,3-0.1,3.7
							c0-1.2,0.1-3.6,0.2-5.2v-0.3c0.1-3.4,0-1.4,0.2-4.6c0,0,0,3.2-0.2,6.2c0-2.7,0.2-5.4,0.2-6.5s0-1,0.1-2.8
							c0.1-1.8,0.1-4.9,0.2-7.6l0,0c0.2-6.1,0.2-9.3,0.4-15v0.6c0-2.3,0.2-5.7,0.3-9.5c0,1-0.1,1.9,0,0c0.1-4.3,0.2-6.5,0.3-9.9
							v-2.9c0.4-14.3,1.1-70.7,1.1-85.1v0.6c0.2-21.9,0.4-66.8,0.2-89.4c0.2-3.5,0.1-8.3,0.2-11.9c0,2-0.2,1.3-0.2-0.3
							c0-11.1,0-0.8-0.2-12c-0.1-12.9-0.2-62.5-0.2-74c-0.2-6.2-0.1-13.9-0.3-19.9v0.6c0-6.5-0.3-43.1-0.5-50.8v1
							c-0.2-6.6,0-5.7,0-10.9c-0.2-2.3-0.4-4.7-0.3-7.1l0,0c0-3.2-0.3-10.8-0.4-16v0.2c-0.1-4.3-0.2-12.9-0.3-16.1
							c-0.1-7.3-0.3-18.7-0.5-28.5l-0.1-6.3V200c0,0,0.2-2.5,0.2-3.5c0,2.1-0.1,4.2-0.2,6.2l0,0v2.6c-0.1,3.1-0.1,4.3-0.1,4.3
							l0.1-4.3c0,3.1,0,0.9,0-0.3c0,1.2,0,2.4-0.1,3.6c-0.1,1.2,0-0.5,0-0.9c0,1.7-0.1,4-0.1,6c0,3.1,0,0-0.1,3.9
							c-0.6,19.5-1,38.3-1.4,58c0,0.4,0,0,0-0.6c0,5.9-0.2,11.1-0.2,16.6c0,0.8-0.1,1.6-0.2,2.3c0-0.4,0,7-0.2,14.6
							S1.2,323.8,1.2,324.1z"/>
					</g>
					<g transform="translate(0.000000, 7.000000)" class="st1">
						<path class="st2" d="M1.7,198.3c-0.1,2.2-0.2,4.4-0.2,6.6C1.7,202.7,1.7,200.5,1.7,198.3L1.7,198.3z"/>
						<path class="st2" d="M8,682.4v-1.9C8,681.1,8,681.8,8,682.4L8,682.4z"/>
						<path class="st2" d="M1.1,324.1l0.2,0.4c0,5.8-0.3,1.7-0.2,7.1c0.3,2.1,0,9,0.2,10.9c0,0,0,2.6-0.1,2.4c0.1,1.4,0.1,2.9,0,4.3
							c0,0.6,0-0.4,0.1-0.9v3.8c0,1.5-0.2,1.9-0.2,0.2C1.1,362.4,1,410.3,1,421c0.1-1.4,0-4.7,0.3-6c0.1,2.8,0,4.3,0,5.5
							c-0.3,1.1,0,6.2-0.4,8.6l0.2,0.8v1.4c0.1,4.7,0.1,9.3,0,14c0,6.4,0.3,9.4,0.2,12.9c0-0.5,0-1.9,0.2-0.3c-0.2,0.3,0,4.3,0,5.2
							c0,1.6,0,6.9,0.2,5.1c0,0.9-0.1,5.6-0.2,2.8c0,1.6,0,3.1,0,4.3v-2.1c0,5.4-0.1,8.3,0,11.8v-2c0.1,2.4,0,4.8-0.2,7.1V487
							c0,5.3,0,8.6,0.1,12.9v-1.6c0.2,5.6,0.4,35.2,0.7,40.4l0.2-2.4l0.1,4.3c0-0.5-0.5-2.2-0.5-2.6c0,9.6,0.1,59.4,0,68.3
							c0,3.6-0.3,0.6-0.3,0.6c0,4.3,0.2,1.9,0.2,5.6c0,1-0.1,0-0.2-0.8c0,1.1,0,2.2,0,3.2c0-2,0.3-1.2,0.4-2v4.8H1.8
							c0.2,2.4,0.3,4.9,0.3,7.3c0,7.9,0,16.5,0,24.3c-0.1-1.1-0.2-2.3-0.2-3.4c0,1.1,0,2.7,0,3.7c0.1-1.9,0,3.3,0.1,1.9
							c0.3,5.8,0,13.3,0.3,18.4c0.3,0.5,5,11,5.4,11c0,1.6,0,3.1,0,3.7c0.1-1.7,0.1-3.5,0-5.2l-0.2-0.3c0-1.5,0-3.1,0-4.6
							c0.3,2,0.5,4.1,0.5,6.2c0.1-2.2,0.1-4.4,0-6.5c0-2.5,0.2,0.3,0.2-2.8c-0.1-2.6-0.2-5.3-0.1-7.9l0,0c0.2-6.1-0.2-9.3,0-15v0.6
							c0.1-2,0-5.9,0-9.5c0,1-0.1,1.9-0.2,0c0-4.3,0-6.9,0.1-9.9l-0.1-2.9c0-14.3-0.2-70.7-0.2-85.1v0.6c0-21.9,0-66.8-0.3-89.4
							c0.2-3.5,0.1-8.3,0.2-11.9c0,2-0.2,1.3-0.2-0.3c0-11.1,0-0.8-0.2-12c-0.1-12.9,0-62.5,0.1-74c-0.2-6.2,0-13.9-0.2-19.9v0.6
							c0-6.5,0.1-43.1,0-50.8v1c-0.1-3.6,0-7.2,0.2-10.9c-0.2,0.6-0.4-5-0.4-7.1l0,0c0-3.3-0.3-10.6-0.3-16l0.3,0.3
							c-0.1-4.3,0-12.9,0-16.1c0-7.3,0.3-18.7,0-28.5l0.4-6.3V200c0,0-4.6-10.2-5.5,2.8H1.7v2.6c0,3.1,0,4.3,0,4.3v-4.3
							c0,3.1,0,0.9-0.2-0.3c0,1.3,0,2.5,0,3.6s0-0.5,0-0.9c0.1,2,0.1,4,0,6c0,3.1-0.2,0-0.2,3.9c0,19.3-0.2,38.2-0.1,57.9
							c0,0.4,0,0,0-0.6c0,5.9,0,11.2,0,16.6c0,0.8-0.1,1.6-0.2,2.3C1.1,292.7,1.1,323.6,1.1,324.1z"/>
					</g>
					<g transform="translate(16.000000, 0.000000)" class="st1">
						<path class="st2" d="M1.3,197.9c-0.1,1.1-0.2,2.2-0.1,3.3C1.3,200.1,1.3,199,1.3,197.9z"/>
						<polygon class="st2" points="1.1,201 1.1,201 1.1,201 						"/>
						<path class="st2" d="M1.6,257.6h0.2c0,2.8-0.2,0.8-0.1,3.4c0.3,1,0,4.3,0.2,5.1c0,0,0,1.2,0,1.2s0,1.3,0.1,2.1s0-0.2,0-0.4
							v1.8c0,0.7-0.1,0.9-0.1,0c0,4.7,0.3,27.5,0.4,32.6c0-0.6,0-2.2,0.1-2.8c0.1,1.3,0,2,0.1,2.6c0.1,0.6,0,2.9-0.2,4v0.4v0.7
							c0.1,2.2,0.2,4.4,0.1,6.6c0,3.1,0.2,4.3,0.2,6.2c0,0,0-0.9,0,0c0,0,0,2.1,0,2.5c0,0.4,0,3.3,0.1,2.4c0,0.4,0,2.7-0.1,1.3
							c0,0.7,0,1.4,0,2v-0.8c0,2.5,0,3.9,0,5.6v-0.9c0.1,1.1,0.1,2.3,0,3.4V335c0,2.5,0,4.1,0.1,6.1v-0.7c0.1,2.7,0.4,16.7,0.5,19.2
							v-1.1v2.1c0-0.3-0.2-1-0.2-1.3c0,4.6,0.3,27.9,0.4,32.5c0,1.7,0,0.3,0,0.3c0,1.6,0,1.5,0,2.7c0,0.5,0,0,0-0.4c0,0.5,0,1,0,1.6
							c0-0.3,0-0.6,0-0.9v2.2c0,1.2,0,2.3,0,3.5c0,3.8,0,7.8,0.1,11.6c0-0.6,0-1.1,0-1.6c0,0.4,0,0.9,0,1.7c0-0.9,0,1.6,0,0.9
							c0,4.7,0,5.3,0,8.6c0,0,0,1.4,0,2.7c0,1.3,0,2.4,0,2.5v1.8c0-0.9,0-1.7,0-2.5l0,0c0-1.4,0-0.9,0-2.2v3v-3.1v-1.3
							c0-1,0-2.2,0-3.6l0,0c0-3.3,0-4,0-7.1v0.3c0-1.5,0-2.4,0-4.3c0,0.5,0,0.9,0,0c0-2.2,0-2.7,0-4.7v-1.4c0-6.8,0.4-33.6,0.5-40.4
							v0.3c0.1-10.4,0.4-31.7,0.4-42.5c0.1-1.6,0.1-3.9,0.2-5.7c0,0.9-0.1,0.6,0,0c0-5.3,0-0.3,0-5.7c0-6.2,0.4-29.7,0.5-35.1
							c-0.1-2.9,0-6.6,0-9.5v0.3c0-3.1,0.3-20.5,0.3-24.1v0.5c0-1.7,0-3.5,0.2-5.2c-0.2,0.3-0.3-2.3-0.3-3.4l0,0
							c0-1.6-0.2-5-0.2-7.6h0.1c-0.1-2.2,0-6.1,0-7.6c0.2-4.5,0.3-9,0.2-13.6l1.5-3.2v-0.4c-0.8-0.8-1.6-1.5-2.5-1.8
							c-1.3-0.3-2.7,0-3.1,3.1l-0.1-0.1v1.3c0,1.5,0.1,2.2,0,2.1v-2.1c0,1.5-0.1,0.4-0.2,0c0,0.6,0,1.2,0,1.7s0-0.2,0-0.4
							c0.1,0.9,0.2,1.9,0.1,2.8c0,1.5-0.2,0-0.2,1.8c0,9.3,0,18.3,0.2,27.6c0,0,0,0,0-0.3c0,2.9,0.1,5.2,0.2,7.9
							c0,0.4-0.1,0.8-0.1,1.1c0-0.2,0.1,3.3,0.2,6.9C1.5,254,1.6,257.3,1.6,257.6z"/>
					</g>
					<g transform="translate(23.000000, 277.000000)" class="st3">
						<path class="st4" d="M5.4,445.2c0.1-1.1,0.2-2.2,0.1-3.4C5.4,442.9,5.3,444.1,5.4,445.2L5.4,445.2z"/>
						<path class="st4" d="M5.5,441.8L5.5,441.8L5.5,441.8z"/>
						<path class="st4" d="M5,380.8l-0.2-0.2c0-3,0.2-0.9,0.1-3.6c-0.3-1.1,0-4.6-0.2-5.6c0,0,0-1.3,0-1.2c0,0.1,0-1.4,0-2.2
							s0,0,0,0.5v-2c0-0.7,0.1-0.9,0.1,0c0-5.1-0.3-29.7-0.4-35.2c0,0.7,0,2.4,0,3c0-1.4,0-2.1,0-2.8c0-0.6,0-3.2,0.2-4.3v-0.4v-0.7
							c-0.2-6.4,0-1.5-0.1-7.2c0-3.3-0.2-4.9-0.2-6.7c0,0.3,0,1,0,0c0,0,0-2.2,0-2.7s0-3.5-0.1-2.6c0-0.4,0-2.8,0-1.4
							c0-0.8,0-1.6,0-2.2v1.1c0-2.8,0-4.3-0.1-6v1c-0.1-1.2-0.1-2.4,0-3.7v1.7c0-2.7,0-4.3-0.1-6.6v0.8c-0.1-2.9-0.3-18-0.4-20.6
							v1.2v-2.3c0,0.3,0.2,1.1,0.2,1.3c0-4.9-0.3-30.2-0.4-34.9c0-1.9,0-0.3,0-0.3c0-1.7,0-1.5,0-2.8c0-0.5,0,0,0,0.4
							c0-0.8,0-1.6,0-1.6c0,0.3,0,0.7,0,1v-2.3c0-0.6,0-1.4,0-3.7c0-4.3,0-8.6,0-12.5c0,0.6,0,1.2,0,1.8c0-0.5,0-1,0-1.9
							c0,0.9,0-1.7,0-0.9c0-4.9,0-5.8,0-9.4c0,0,0-1.5,0-2.9s0-2.5,0-2.7s0-1.4,0-1.9c0,0.9,0,1.8,0,2.7l0,0c0,1.6,0,1,0,2.4v-3.2
							c0,1.1,0,1.4,0,3.4c0,0.6,0,0.8,0,1.4s0,2.3,0,3.9l0,0c0,3.5,0,4.3-0.1,7.7v-0.3c0,1.5,0,2.7,0,4.8c0-0.5,0-1,0,0
							c0,2.3,0,2.9,0,5v1.5c0,7.3-0.4,36.2-0.5,43.6v-0.3C2.7,280,2.4,303,2.3,314.6c0,1.8,0,4.3-0.1,6.1c0-1,0-0.7,0,0
							c0,5.7,0,0.4,0,6.2c0,6.6-0.4,32-0.5,37.9c0.1,3.1,0,7.1,0,10.2v-0.3c0,3.5-0.3,22-0.3,25.9V400c0,1.9,0,3.7-0.2,5.6
							c0.2-0.3,0.3,2.5,0.3,3.7l0,0c0,1.6,0.2,5.4,0.2,8.1H1.5c0,2.3,0,6.6,0,8.2c0,3.7-0.4,9.6-0.2,14.6l-0.4,3.3v0.5
							c0.8,0.8,1.6,1.4,2.4,1.8c1.3,0.5,2.7,0,3.1-3.2h0.1v-1.3c0-1.6-0.1-2.3,0-2.2v2.2c0-1.6,0.1-0.5,0.2,0c0-0.6,0-1.2,0-1.8
							c0-0.3,0,0,0,0.5c-0.1-1-0.1-2.1-0.1-3.1c0-1.6,0.2,0,0.2-2c0-10,0-19.7-0.2-29.7c0,0,0,0,0,0.3c0-3.1-0.1-5.6-0.2-8.6
							c0-0.4,0.1-0.8,0.1-1.2c0,0-0.1-3.6-0.2-7.5C6.2,384,5.1,381,5,380.8z"/>
					</g>
				</g>
			</g>
			<g transform="translate(0.000000, 1036.000000)">
				<g id="img-tabla-down">
					<rect x="1.3" y="199.4" class="st10" width="721.8" height="57.1"/>
					<path class="st11" d="M1.3,223.8v32.7h211.6C135.4,210.6,1.3,223.8,1.3,223.8z"/>
					<path class="st11" d="M197.7,199.4c0,0,75.6,16.7,150,14.3c35.9-1.4,71.9,2,106.9,10.1c22.3,5.5,45.3,8.3,68.3,8.3
						c36.5-0.2,86.2-6.3,130.3-31.7L197.7,199.4z"/>
					<ellipse id="Oval" class="st11" cx="671.2" cy="227.9" rx="10.5" ry="11.9"/>
					<rect x="33" y="232" class="st11" width="363.6" height="4.7"/>
					<rect x="113.6" y="243.9" class="st11" width="363.6" height="4.7"/>
					<g transform="translate(5.908172, 0.000000)" class="st1">
						<polygon class="st2" points="265.4,202 265.1,202 264.6,202.2 						"/>
						<path class="st2" d="M223.1,201.7h-0.3C222.8,201.7,222.8,201.7,223.1,201.7z"/>
						<path class="st2" d="M606.6,201.3h0.3H606.6z"/>
						<path class="st2" d="M605.8,201.4c-0.9,0,0.3,0,0.7,0c-1-0.1-2.1-0.1-3.1,0C603.4,201.3,605.4,201.3,605.8,201.4z"/>
						<path class="st2" d="M715.6,229.8v-0.4V229.8z"/>
						<path class="st2" d="M715.7,207.6l-0.1-0.2C715.6,207.5,715.7,207.6,715.7,207.6z"/>
						<path class="st2" d="M264.7,202.2h-0.3H264.7z"/>
						<path class="st2" d="M183.9,201.6c-0.1-0.1-0.1-0.1-0.2-0.1h-0.1L183.9,201.6z"/>
						<path class="st2" d="M3.2,216.3c0,0,0,0,0-0.1l-0.1-0.8C3.2,215.8,3.2,216.1,3.2,216.3z"/>
						<path class="st2" d="M130.1,200.9h-0.2c0.9,0,3.4,0,6.4,0l0.2-0.2L130.1,200.9z"/>
						<path class="st2" d="M71.5,196.7l5.7,0.4c-18.4,0.2-27-0.2-42.7,0.1h0.9c-2.4-0.2-3.7,0.6-29-0.4H4.7l-3.2,0h4.2l2.4,0.2
							l-2.7,0.1l-4.3,0.1c0,1.8,0,3.7,0,5.8c0,0.7-0.1,1-0.2,1.1l0.1,8.6l-0.3,2.6c0.5,2.8,0.6,5.6,0.3,8.4c0.3-2.6,0.2,3.5,0.4,2.6
							c0,0.4,0,1.2-0.2,1.8c0,4.2,0.1,12,0.3,14c0,0,0.7-16.3,1.1-20.7c0,5.9,0,1.6,0.2,0.4v-0.4c0-3.5,0.3-3.5,0.4-5.3l0,0v0.2
							c0,0.2,0,0,0-0.1c0-0.1,0-0.1,0-1.1v0.2c0-1.5,0-4,0-5.1h0.2c-0.1-1.4-0.1-2.8,0-4.2c0-1.9,0.2-4.2,0.2-6.6l5.9,0.2
							c1.8,0,3.3,0.1,4,0.1c3.5,0.2,7.9,0,12.3,0c2.3,0,4.7,0.1,7,0.4c4.4,0.1-0.9-0.2,0.9-0.2l5.1,0.5c-3.1,0-1.4,0.1-0.8,0.2
							c4.5,0,11.7,0.4,13.1,0c6.1,0.2,6.1,0.3,8.8,0.3c-0.9,0-2.6-0.1-2.6-0.2c2.4,0.2,1.2,0,0.2,0c3.8-0.2,19.4,0.7,20.2,0.3l0,0
							c0.9-0.3-0.5-0.6,2-0.8l1.8,0.1l2.6-0.1c1.8,0,0.9,0.2,0.9,0.2c4.3-0.1,10.2,0,15.4,0l-5.5-0.8c4.4,0.2,12.3,0.6,13.1,0.3
							l2.6,0.3c8.8,0.5,6.1-0.2,9.6,0l4.5,0.2h-4.4c4.4,0.1,6.1,0.2,9.6,0.4l0,0h-0.4h0.6c2-0.2,4-0.3,6.1-0.3
							c4.4,0,7.8-0.2,14.8,0.1l1.7-0.3l5.3,0.2v0.2h-21.4l-0.1,0.1h11c1.3,0,4.5,0.3,2.2,0.5l2.4-0.2c13.1,0,13.2,0,26.8,0.2
							l-1.2-0.1c2.1-0.1,4.1-0.1,6.2,0c8.2,0,16.7,0.2,22,0.5l1.2-0.3c1.7,0.2,3.5,0.2,5.2,0l3.7-0.1c2.4,0,3.8-0.1,6.5,0l0,0h0.5
							l0,0c5.4,0.1,0-0.3,6.1-0.1c2,0.2,2.2-0.4,5.2-0.3l3,0.4c5.4,0.2,6.4-0.2,14.1-0.2c3.8,0.1,5.6,0.5,3.1,0.8
							c2-0.3,4-0.4,6.1-0.4c0.7,0.1,0.2,0.2-0.8,0.3c1.8,0.1,3.7,0,5.5-0.1c0.9-0.4,1.9-0.6,2.9-0.8h-1.2c3.2-0.2,6.8-0.2,10.5,0
							l-0.1,0.1h4l0.2,0.2h5.7h-0.8c1.3,0,5.7,0,8.3,0l-0.1,0.1c7.1,0.3,12.9-0.1,21.3-0.1l-1.1,0.2c2.8,0.2,0.8-0.3,4.2-0.2
							l0.2,0.3c2-0.2,3.9-0.1,5.9,0.2l-0.9-0.3h3.9c4.2,0.1,2.6,0.4,2,0.6l2.9-0.3l0.6,0.3c1.9-0.2,3.9-0.2,5.8-0.1
							c0.3,0.1-0.6,0.2,0.6,0.2l6.1-0.4l-3.7,0.1l0.4-0.4c3.8-0.3,5.2,0,7.9,0l-1.9,0.1c2.4-0.1,4.8,0,7.2,0.2c-0.8,0-2-0.2-0.2-0.3
							c0.7,0,1.4,0.1,2,0.2c2.1-0.4,4.3-0.5,6.4-0.3c0,0,0,0-0.3,0.1c0.8-0.1,1.6-0.1,2.4,0l-0.7,0.3l2.5-0.3c1.3-0.1,2.6-0.1,3.9,0
							h-0.9h12.6l0.2,0.3c1.3-0.4,6.8,0.1,6.4-0.3c2.4,0.2,9.3-0.2,7.9,0.3c8.3,0,12.7-0.4,22.7-0.2c3.6,0.4,13.3,0.3,19.8,0.3
							l33.6-0.5c7.7,0.6,19.3-0.2,27.6,0.1l2.3-0.2c5.5,0.4,14,0,21.7,0.3l3.3-0.2c-0.4,0-0.7,0-1.1-0.2c2.1-0.1,4.3,0,6.4,0.3h-0.6
							c-0.3,0.3,6.7-0.1,9.2,0.1l-1.4-0.3h4.2h-1.1c18.2-0.7,26.5,0.3,43.6-0.3c-2.3,0.3,3.4-0.2,3.6,0.2c3.8,0.2,7.7,0.2,11.5-0.2
							c0,0,0,0,0.2,0h6.2c-3.7,0.5,4.4-0.4,1.1,0c16.2,0.4,37.2,0,55.9,0.2l-0.8-0.1c4.7,0,10.6-0.1,14.1,0c3.1,0.1,6.3,0.1,9.4-0.1
							c4-0.2,7.5,0.2,5.8,0.2c4.2,0,8.2-0.5,14-0.3c1,0.1,2,0.2,3,0.1h2.2h1.3c0,0.5,0,1,0,1.5c0,0.9,0,1.8,0,2.6
							c0.1,0.8,0.1,1.7,0,2.5l0,0c-0.3,7.5,0.2,14.6,0,22.6v-0.4l1.4,16.4l1.5-4.7l1.3-14.1l-0.2-30.3l-13.1,0l-30.8-0.5l-74.8,0.2
							l-5.4,0.3c-14.7-0.6-33.6,0-49.4-0.3l-0.3,0.3c-1.8,0.1-3.5,0-5.3-0.2c-41.6,0-84.3,0.5-121.7,0c-3.6-0.2-14.6,0-17.4-0.3
							c-12.1,0.4-25.1,0.4-37.2,0.4h0.5h-5.7c-0.2,0-0.3,0-0.1,0c-6.5,0.3-16.6,0-24.6,0h0.5c-46.1,0-89,0.5-134.8,0
							c-21.3-0.6-46,0.1-70.5-0.3C125.2,196.3,75.8,196.5,71.5,196.7z"/>
						<path class="st2" d="M1.1,204.1v-0.2C0.9,203.9,1,204.2,1.1,204.1z"/>
						<polygon class="st2" points="100.7,200.5 100.4,200.5 101.6,200.7 						"/>
						<path class="st2" d="M35.4,200.7c2.9,0,3.1,0,2.7,0C36.9,200.6,36,200.6,35.4,200.7z"/>
						<path class="st2" d="M1.3,228.1c0,1.6,0,0.9,0.2,0c0-1.6,0-2.7,0-2.7C1.4,226.3,1.3,227.2,1.3,228.1z"/>
						<path class="st2" d="M3,221.8l0.1,0.5C3.1,221.3,3.1,221.4,3,221.8z"/>
					</g>
					<g transform="translate(0.000000, 2.688781)" class="st1">
						<polygon class="st2" points="239.7,256.4 239.4,256.4 238.9,256.5 						"/>
						<path class="st2" d="M198.6,256.1h-0.2C198.3,256.1,198.3,256.1,198.6,256.1z"/>
						<path class="st2" d="M334.4,255.9c0.2,0,0.5,0,0.7,0H334.4z"/>
						<polygon class="st2" points="570.5,255.7 570.4,255.7 570.8,255.7 						"/>
						<path class="st2" d="M569.7,255.8c-0.9,0,0.2,0,0.6-0.1c-1-0.1-2-0.1-3,0C567.4,255.7,569.3,255.7,569.7,255.8z"/>
						<path class="st2" d="M707.2,255.4h-0.4H707.2z"/>
						<path class="st2" d="M685.6,255.3l-0.2,0.2C685.6,255.4,685.6,255.4,685.6,255.3z"/>
						<path class="st2" d="M239,256.6h-0.3C238.8,256.6,238.9,256.6,239,256.6z"/>
						<path class="st2" d="M160.6,256c0,0,0,0-0.2-0.1l0,0L160.6,256z"/>
						<path class="st2" d="M1.5,221.6v0.1v0.8C1.5,222.2,1.5,221.9,1.5,221.6L1.5,221.6z"/>
						<path class="st2" d="M108.5,255.3h-0.2c0.9,0,3.2,0,6.2,0l0.2-0.2L108.5,255.3z"/>
						<path class="st2" d="M51.5,251.1l5.6,0.4c-17.8,0.2-26.1-0.2-41.4,0.1h0.8c-0.9,0-1.6,0-3.6,0.2c-1,0-2.4,0-4.3,0H5.4
							c-0.7,0-1.3,0-2,0V251c0-0.9,0-1.8,0-2.8c0-2,0.2-4.5,0.3-7.1l0,0c-0.1-0.8-0.1-1.7,0-2.5l-0.2,4.2c0-2.5-0.3-4.8-0.3-8.1
							c0-0.4,0-0.7,0.2-1.1v-8.3l0.2-2.5c-0.5-2.7-0.6-5.4-0.3-8.2c-0.2,2.4,0-3.5-0.2-2.7c0-0.4,0.1-1.1,0.2-1.8
							c0-4-0.1-11.7-0.3-13.5c0,0-0.7,15.8-1.1,20.1c0-5.7,0-1.5-0.2-0.4v0.4c0,3.4-0.3,3.4-0.4,5.1c0,0,0,0,0-0.1v-0.2
							c0-0.2,0,0,0,0s0,0.1,0,1.1v-0.2c0,1.4,0,3.9,0,4.9H1.1c0.4,2.5-0.5,17-0.5,20.4c0,0.9,0,1.8,0,2.8c0,1,0.1,2.5,0.1,3.8h3.6
							c1,0,2,0,3,0c2.3,0,4.5,0.1,6.8,0.4c4.3,0.1-0.9-0.2,0.8-0.2l5.1,0.2c-2.9,0-1.4,0.1-0.8,0.2c4.4,0,11.3,0.4,12.7,0
							c5.9,0.2,5.9,0.3,8.5,0.3c-0.9,0-1.7-0.1-2.6-0.2c2.4,0.2,1.1,0,0.2,0c3.6-0.1,18.8,0.7,19.6,0.3l0,0c0.8-0.3-0.5-0.6,2-0.7
							l1.7,0.1l2.5-0.1c1.7,0.1,0.9,0.2,0.9,0.2c4.1-0.1,9.9,0,15,0l-5.3-0.8c4.2,0.2,11.9,0.6,12.7,0.3l2.5,0.3
							c8.5,0.5,5.9-0.2,9.3,0l4.3,0.3H99c4.2,0.1,5.9,0.2,9.3,0.4l0,0h-0.4h0.6c1.9-0.2,3.8-0.3,5.7-0.2c4.2,0,7.6-0.2,14.4,0.1
							l1.7-0.3l5.1,0.2v0.2l-20.8,0.1h-0.1H125c1.2,0,4.4,0.3,2,0.5l2.3-0.2c12.7,0,12.8,0,26,0.2l-1.2-0.1c2-0.2,4-0.2,6.1,0
							c8,0,16.2,0.2,21.4,0.5l1.1-0.3c1.7,0.2,3.4,0.2,5,0l3.6-0.1c2.3,0,3.7-0.1,6.3,0h0.5c5.2,0.1,0-0.3,5.9,0c2,0.2,2-0.4,5-0.3
							l2.9,0.4c5.3,0.2,6.1-0.2,13.8-0.2c3.7,0.2,5.4,0.5,3,0.8c2-0.3,4-0.4,5.9-0.4c0.7,0.2,0.2,0.2-0.8,0.3c1.8,0.1,3.6,0,5.4-0.1
							c0.9-0.4,1.8-0.7,2.8-0.8h-1.1c3.1-0.2,6.5-0.2,10.1,0l-0.1,0.1h3.9l0.3,0.2h5.5h-0.8c1.3,0,5.6-0.1,8.1,0v0.1
							c6.9,0.3,12.6-0.1,20.6-0.1l-1.1,0.2c2.7,0.2,0.8-0.3,4-0.2l0.2,0.3c1.9-0.2,3.8-0.1,5.7,0.2l-0.9-0.3h3.8
							c4,0.1,2.5,0.4,1.9,0.6l2.8-0.3h0.6c1.9-0.1,3.8-0.2,5.6-0.1c0.3,0.1-0.6,0.2,0.6,0.2l5.9-0.4l-3.7,0.3l0.4-0.4
							c3.7-0.3,5,0,7.7,0l-1.8,0.1c2.3-0.1,4.7,0,7,0.2c-0.7,0-1.9-0.2-0.2-0.3c1.3,0,0.7,0.2,1.9,0.2c2-0.4,4.1-0.5,6.2-0.3
							c-0.1,0.1-0.2,0.1-0.3,0.1c0.8-0.1,1.6-0.1,2.3,0l-0.7,0.3l2.4-0.3c1.2-0.1,2.5-0.1,3.7,0h-0.9H354l0.2,0.3
							c1.2-0.4,6.6,0.1,6.2-0.3c2.3,0.2,9-0.2,7.7,0.3c8.1,0,12.3-0.4,22-0.2c3.5,0.4,13,0.3,19.2,0.3l32.6-0.5
							c7.5,0.6,18.7-0.2,26.8,0.1l2.2-0.2c5.4,0.4,13.5,0,21.1,0.3l3.2-0.1c-0.3,0-0.7-0.1-1-0.2c2.1-0.1,4.1,0,6.2,0.3h-0.5
							c-0.3,0.3,6.5-0.1,8.9,0.1l-1.3-0.3h4h-1.1c17.7-0.7,25.7,0.3,42.2-0.3c-2.2,0.4,3.3-0.2,3.5,0.2c3.7,0.2,7.5,0.2,11.2-0.2
							c0,0,0,0,0.2,0h6.1c-3.6,0.5,4.3-0.4,1,0c15.7,0.4,36,0,54.2,0.2l-0.8-0.1c4.6,0,10.3-0.1,13.8,0c3,0,6-0.1,9-0.3
							c3.8-0.2,7.3,0.2,5.7,0.2c4,0,7.9-0.5,13.6-0.3c2,0.4,15.5-0.4,15.6,0l0,0c7.2,0.3,14.1-0.2,21.9,0h-0.4l15.9-1.4l-4.5-1.6
							l-13.8-1.3l-37.4,0.3l-29.8-0.5l-72.6,0.2l-5.2,0.3c-14.3-0.6-32.5,0.1-47.9-0.3l-0.3,0.3c-1.7,0.1-3.4,0-5.1-0.2
							c-40.3,0-81.8,0.5-118,0c-3.5-0.2-14.1,0-16.9-0.3c-11.8,0.4-24.2,0.4-36,0.3h0.4h-5.6c-0.2,0-0.3,0,0-0.1
							c-6.3,0.3-16.2,0-23.8,0h0.4c-44.7,0-86.3,0.5-130.7,0c-20.6-0.5-44.6,0.2-68.3-0.2C103.7,250.7,55.8,250.9,51.5,251.1z"/>
						<path class="st2" d="M3.6,233.5v0.2C3.7,233.7,3.7,233.4,3.6,233.5z"/>
						<polygon class="st2" points="80,254.9 79.6,254.9 80.8,255.1 						"/>
						<path class="st2" d="M16.6,255c2.8,0,3,0,2.6,0C18.1,255,17.2,255,16.6,255z"/>
						<path class="st2" d="M3.3,210.2c0-1.5,0-0.9-0.1,0c0,1.5,0,2.6,0,2.6C3.3,212,3.3,211.1,3.3,210.2z"/>
						<path class="st2" d="M1.6,216.3v-0.5C1.5,216.8,1.6,216.7,1.6,216.3z"/>
					</g>
					<g transform="translate(197.550277, 2.688781)" class="st1">
						<polygon class="st2" points="262.9,219.7 263,219.7 263.3,219.7 						"/>
						<path class="st2" d="M284.7,224.3h0.1C284.8,224.3,284.8,224.3,284.7,224.3z"/>
						<polygon class="st2" points="82.7,207.5 82.8,207.5 82.5,207.5 						"/>
						<path class="st2" d="M83.1,207.4c0.5,0-0.1,0-0.3,0c0.5,0.1,1.1,0.1,1.6,0.2C84.4,207.6,83.4,207.5,83.1,207.4z"/>
						<path class="st2" d="M8.7,198.2h0.2H8.7z"/>
						<path class="st2" d="M305.1,226.8c0,0,0,0,0.1,0.1l0,0L305.1,226.8z"/>
						<polygon class="st2" points="408.5,217.7 408.5,217.7 408.1,217.8 						"/>
						<path class="st2" d="M333.4,228.1L333.4,228.1c-0.5,0-1.8,0-3.4,0l-0.1,0.1L333.4,228.1z"/>
						<path class="st2" d="M364.7,228.2l-3,0.2c9.7-1.4,14.1-2,22.4-3.9l-0.4,0.1c0.6,0,1.1-0.3,3-0.7c1.9-0.5,5.4-1.2,11.9-2.8l0,0
							c0.4-0.1,0.4-0.1,1.3-0.4l-2.2,0.6l4.3-1.3l0.5-0.1l4.3-1.4l1.4-0.4c1.3-0.4,0.7-0.3,4.2-1.5c-1.3,0.4,1.7-0.6,1.3-0.5
							l0.9-0.3l6.9-2.6l-4.3,1.6c-2.3,0.8-4.9,1.6-6.1,2c3-0.9,0.8-0.3,0.2,0H411c-1.8,0.6-1.8,0.5-2.7,0.8l0,0h0.1l0,0l-0.5,0.2
							l0,0l-2.6,0.7l0,0c-1.3,0.5-9,2.3-10.8,2.7c-1.8,0.4-4,1-6.3,1.4c-1.2,0.3-2.4,0.5-3.7,0.6c-2.3,0.4,0.5,0-0.4,0.2
							s-1.8,0.3-2.8,0.4c1.6-0.3,0.7-0.2,0.4-0.2c-2.4,0.4-6.1,0.9-6.8,1.1l-4.6,0.5c0.5,0,1.4-0.1,1.4-0.1c-1.3,0.1-0.6,0.1,0,0
							c-2,0.4-10.2,0.9-10.6,1.2l0,0c-0.4,0.2,0.3,0.3-1.1,0.5h-0.9l-1.4,0.2c-0.9,0-0.5,0-0.5,0c-2.2,0.3-5.4,0.5-8.1,0.6l2.9,0.3
							c-2.3,0-6.5,0.1-6.9,0.3l-1.4-0.1c-1.7,0-3.4,0.1-5.1,0.3l-2.4-0.3h2.3c-2.3,0-3.2,0-5.1-0.2l0,0h0.2h-0.3
							c-1,0.2-2.1,0.3-3.1,0.2c-2.3,0-4,0.2-7.8-0.1l-0.9,0.2l-2.8-0.2v-0.1c2.7,0.1,7.8,0,11.3,0l0,0c-2,0-4.4,0.1-5.8,0
							c-0.7,0-2.4-0.3-1.1-0.4l-1.3,0.2c-4.7,0-9.4-0.3-14.1-0.8l0.6,0.1c-1.1,0-2.2-0.1-3.2-0.3c-3.8-0.3-7.5-0.9-11.2-1.7
							l-0.6,0.2c-0.9-0.1-2.2-0.7-2.7-0.4l-2-0.1c-1.1-0.1-2.3-0.3-3.4-0.5l0,0h-0.3l0,0c-2.8-0.5,0,0.2-3.2-0.4
							c-1-0.4-1.2,0.1-2.7-0.2l-1.5-0.6c-2.8-0.7-3.3-0.4-7.4-1.2c-2-0.5-2.8-1.1-1.5-1.1c-1.1,0-2.2-0.1-3.2-0.3
							c-0.3-0.2,0-0.2,0.5-0.2c-2-0.6-1.3-0.2-2.9-0.5c-0.5,0.3-1.1,0.4-1.7,0.4l0.6,0.2c-1.8-0.3-3.6-0.7-5.4-1.2l0.1-0.1l-2-0.4
							v-0.2l-3-0.6l0.4,0.1c-0.7-0.1-3-0.6-4.3-0.9v-0.1c-3.7-0.9-7.4-1.6-11.1-2h0.6c-1.5-0.5-0.5,0.2-2.2-0.2v-0.3
							c-1.1,0-2.1-0.2-3.1-0.7l0.4,0.4l-2-0.4c-2.2-0.5-1.3-0.6-0.9-0.8h-1.6l-0.2-0.3c-1.2,0.2-1.1-0.2-3.1-0.3
							c-0.2-0.1,0.3-0.1-0.3-0.3h-3.3h2l-0.3,0.4c-1.5-0.1-2.9-0.3-4.3-0.5h1c-1.3-0.1-2.6-0.3-3.8-0.6c0.4,0.1,1,0.3,0,0.3
							c-1-0.1-0.4-0.2-1-0.3c-1.1,0.3-2.3,0.3-3.4,0c0,0,0.1,0,0.2,0c-0.4,0-0.9,0-1.3-0.1l0.4-0.3L209,211c-0.9-0.2-2.2,0-2-0.3
							h0.5l-6.5-0.8v-0.3c-0.7,0.3-3.6-0.4-3.5,0c-1.2-0.3-4.9-0.2-4.2-0.6c-4.4-0.2-6.8,0-12.1-0.4c-3.5-0.4-7-0.6-10.5-0.5
							c-6.7,0.1-11,0.3-17.9,0.7c-4.1-0.4-10.1,0.4-14.6,0.2l-1.2,0.2c-2.9-0.3-7.4,0-11.5-0.3c-1,0-1.5,0.1-1.8,0.1
							c0.2,0,0.4,0.1,0.6,0.2c-1.2,0-3.5,0-3.4-0.3h0.3c0.2-0.2-3.6,0-4.8-0.2l0.7,0.3h-2.2h0.6c-3.9,0.1-7.8,0.1-11.7-0.3
							c-3.4-0.3-6.8-0.4-11.3-0.5c1.2-0.2-1.8,0-1.9-0.3c-2-0.3-4-0.4-6.1-0.3h-0.1l-3.3-0.3c2-0.2-2.4,0-0.6,0
							c-8.5-0.9-19.6-1.7-29.4-3h0.4c-2.5-0.3-5.6-0.6-7.5-0.9c-1.9-0.3-4-0.4-4.9-0.5c-1,0-2.1-0.2-3-0.5c-2.2-0.3-4.3-0.4-7.4-0.9
							c-0.5-0.1-2.6-0.4-4.6-0.7l-2.7-0.4c-0.4,0-0.8-0.1-1.2-0.2l0,0c-3.9-0.7-7.6-1.2-11.8-2h0.2c-3-0.4-5.8-1-8.7-1.6l2.4,0.5
							l7.4,1.7c6.6,1.5,13.3,2.7,20.1,4c5.3,1,10.7,2,16.2,2.9c13,2,26.1,3.6,39.3,4.9h2.8c3.9,0.6,8.3,1,12.8,1.2
							c4.5,0.3,9.1,0.5,13.3,0.9l0.2-0.2c0.9,0,1.9,0.1,2.8,0.3c5.5,0.3,11.1,0.3,16.6,0.4c5.6,0.1,11.1-0.2,16.6-0.2
							c10.8-0.3,21.4-0.2,31.3,0.4c1.9,0.2,7.7,0.4,9.1,0.7c6.5,0.1,13,0.5,19.5,1.3h-0.2l3,0.3c0.1,0,0.1,0,0,0
							c4.3,0.3,8.6,0.9,12.8,1.8h-0.2c12.1,1.8,23.4,3.9,34.9,6.6c11.7,2.6,23.5,4.6,35.5,6c12.5,1.3,25,1.7,37.5,1.1
							c1.2,0,8.4-0.3,15.5-1S363.5,228.4,364.7,228.2z"/>
						<path class="st2" d="M402.4,219.9h-0.1C402.3,219.9,402.4,219.9,402.4,219.9z"/>
						<polygon class="st2" points="349,227.6 349.1,227.6 348.5,227.5 						"/>
						<path class="st2" d="M383.2,223.3c-1.5,0.2-1.6,0.3-1.4,0.2C382.4,223.5,382.9,223.4,383.2,223.3z"/>
						<path class="st2" d="M414.5,216C415.3,215.7,415,215.8,414.5,216l-1.3,0.4L414.5,216z"/>
						<path class="st2" d="M411.3,216.8l0.2-0.1C411,216.9,411.1,216.9,411.3,216.8z"/>
					</g>
					<g transform="translate(660.340720, 18.174515)" class="st1">
						<path class="st2" d="M23.7,206.8h0.2H23.7z"/>
						<path class="st2" d="M23.4,210.1L23.4,210.1C23.4,210.1,23.5,210.2,23.4,210.1z"/>
						<path class="st2" d="M3.4,199.5L3.4,199.5c0.1,0,0.2-0.1,0.2-0.1C3.6,199.3,3.5,199.5,3.4,199.5z"/>
						<path class="st2" d="M20.9,216.5L20.9,216.5c0.1-0.1,0.2-0.2,0.3-0.4H21L20.9,216.5z"/>
						<path class="st2" d="M16.5,217.9c0.1,0,0.2-0.1,0.3-0.1c-0.5,0.7-1.1,1.3-1.8,1.8l0,0c-0.1,0,0,0.4-1.5,0.9l0,0h-0.1h0.2
							c-0.1,0.1-0.3,0.2-0.4,0.3l0,0c-0.2,0.1-0.3,0.2-0.5,0.2h-0.2c-0.1,0.1-0.3,0.2-0.5,0.3c0.2,0-0.2,0-0.2,0h-0.1l-0.9,0.2
							l1.4-0.2c-0.4,0,0,0,0,0l0,0c0.1,0,0.2,0,0.3,0l0,0l0,0l0,0l0,0h0.3l0,0c0.4-0.1,0.9-0.2,1.4-0.3c0.3-0.1,0.5-0.2,0.8-0.3
							c0.4-0.2,0.2,0,0.5,0s0,0,0-0.1h0.4c-0.2,0,0,0,0,0s0.8-0.2,0.8-0.4c0.4-0.1,0.5-0.1,0.6-0.2c0.2-0.1-0.2,0-0.2,0s0,0,0,0
							s1.3-0.5,1.2-0.7l0,0c0-0.1-0.3-0.2-0.2-0.4h0.1v-0.2c0.1,0,0,0,0.1,0c0.2-0.3,0.5-0.5,0.8-0.7h-0.6c0.3-0.1,0.8-0.4,0.7-0.6
							h0.3c0.6-0.3,0.1-0.4,0.3-0.6l0.3-0.2c0,0.1-0.1,0.2-0.2,0.3c0.2-0.2,0.4-0.3,0.6-0.4l0,0l0,0c-0.1-0.1-0.1-0.3,0-0.4
							c0.2-0.3,0.1-0.5,0.6-0.9l-0.2-0.2l0.3-0.3h0.2c-0.2,0.3-0.4,1-0.6,1.4l0,0c0.2-0.2,0.2-0.6,0.3-0.7c0.1-0.2,0.3-0.2,0.4,0
							v-0.2c0.2-0.6,0.5-1.2,0.9-1.8h-0.1c0-0.2,0-0.4,0.2-0.4c0.2-0.6,0.4-1.1,0.8-1.6l-0.2-0.1c0-0.1,0.4-0.3,0.1-0.4v-0.3
							c0-0.2,0-0.3,0-0.5l0,0l0,0l0,0c0.1-0.4-0.2,0,0-0.5c0.2-0.1-0.3-0.2-0.3-0.4l0.4-0.2c0.2-0.4-0.1-0.5-0.2-1.1
							c0-0.1,0.1-0.3,0.3-0.3c0.1-0.1,0.3-0.1,0.4,0c-0.4-0.2-0.2-0.1-0.4-0.4c0.1,0,0.2,0,0.3,0c0.1-0.3-0.2-0.2-0.2-0.4
							c0-0.2-0.7,0-0.8,0v0.1c-0.2-0.2-0.3-0.5-0.2-0.7h0.1l-0.1-0.3h0.2c0-0.1-0.1-0.3-0.2-0.4l0,0c-0.1-0.2-0.2-0.4-0.2-0.6h0.1
							c0.2-0.6-0.4-0.9-0.7-1.5H22c0.1-0.3-0.3,0-0.3-0.2l0.2-0.1c-0.4,0,0-0.3,0-0.5l-0.3,0.2v-0.3c0-0.3,0.3-0.4,0.4-0.4h-0.3
							L22,202c-0.4,0,0-0.2-0.4-0.3c0.1,0,0.2,0,0.2-0.2l-0.6-0.2l0.3,0.1l-0.4,0.2c-0.4,0-0.2-0.4-0.4-0.5h0.2
							c-0.3-0.2-0.2-0.3-0.2-0.6c0,0.1,0,0.2-0.2,0.2c-0.2-0.1,0.1-0.1,0-0.2c-0.1,0.1-0.2,0.1-0.3,0.1s-0.2-0.1-0.2-0.3H20
							c0,0-0.1,0-0.2-0.1l0.3-0.2h-0.4c0-0.2-0.3-0.1-0.1-0.3l0,0l-0.6-0.8l0.2-0.2c-0.3,0.2-0.3-0.4-0.6,0c0-0.3-0.7-0.3-0.3-0.7
							c-0.5-0.4-1.1-0.2-1.7-0.8c0-0.5-0.8-0.8-1.3-1c-0.9-0.2-1.9-0.2-2.8-0.2c-0.5-0.6-1.6,0-2.2-0.2l-0.2,0.2
							c-0.5-0.3-1.1,0.2-1.7,0l-0.2,0.2c0,0,0,0,0.1,0.1s-0.5,0.2-0.5,0l0,0c0-0.3-0.5,0.3-0.7,0.1l0.2,0.2H6.9v-0.1
							c-1,1.1-2,0.7-2.7,2c0-0.3-0.1,0.3-0.3,0c-0.2-0.3-0.4,0.5-0.5,0.7c-0.1,0.2,0,0,0,0c-0.1,0.1-0.2,0.2-0.3,0.3
							c0-0.4,0,0.4,0,0c-1,0.9-1.7,2.1-2.2,3.4l0,0c-0.1,0.3-0.2,0.7-0.4,0.9s0,0.6,0,0.7s-0.2,0.5-0.2,0.4c0,0.3,0,0.7-0.1,1
							c-0.1,0.1,0,1.1-0.1,1.1l0,0c0,0.5,0,1,0,1.5l0,0c0.1,0.4,0.1,0.7,0.1,1.1c0-0.1,0-0.2,0-0.3c0.1-0.4,0.2-0.7,0.4-1
							c0.3-0.8,0.6-1.6,0.9-2.3c0.3-0.6,0.7-1.1,1.1-1.6c0.8-1.2,1.9-2.2,3-3l0.1-0.4c0.9,0,1.6-0.9,2.5-0.8v-0.2
							c0.2,0,0.3,0.1,0.3,0.1c2-0.7,4.2-0.3,5.8,0.9c0,0.2,0.5,0.5,0.5,0.7c0.6,0.1,1.2,0.5,1.6,1.1l0,0l0.2,0.2l0,0
							c0.4,0,0.5,0.7,0.6,1.1l0,0c1.4,2,2.1,4.4,1.7,6.9c-0.4,1.1-0.2,2.6-1,3.7c-0.3,0.5-0.6,0.9-0.8,1.4
							C17,217.1,16.5,217.8,16.5,217.9z"/>
						<path class="st2" d="M13.2,220.7L13.2,220.7C13.2,220.7,13.2,220.7,13.2,220.7z"/>
						<polygon class="st2" points="19.3,218 19.3,218 19.5,218 						"/>
						<path class="st2" d="M15.8,220.7c0.2,0,0.2,0,0.2-0.1L15.8,220.7z"/>
						<path class="st2" d="M11.8,221.3C11.7,221.3,11.8,221.3,11.8,221.3h0.2H11.8z"/>
						<path class="st2" d="M12.2,221.4L12.2,221.4C12.2,221.4,12.2,221.4,12.2,221.4z"/>
					</g>
					<g transform="translate(32.310249, 33.979640)" class="st1">
						<path class="st2" d="M2.1,200c1.2,0,3.2,0.1,5.1,0.1C5.7,200,4.1,200,2.1,200z"/>
						<path class="st2" d="M99.8,200.4l0.3-0.2c4.5,0,1.3,0.2,5.5,0.1c1.6-0.2,7,0,8.4-0.1c0.6,0,1.3,0,1.9,0.1
							c1.1-0.1,2.3-0.1,3.4,0c0.5,0-0.3,0-0.7,0h3c1.2,0,1.5,0.1,0.2,0.1c7.8,0,45,0.2,53.3,0.1c-1.1,0-3.7,0-4.6-0.2
							c2.2,0,3.3,0,4.2,0c1,0,4.8,0,6.5,0.3l0.6-0.1h1.1c9.7-0.1,2.2,0,10.8,0c5,0,7.3-0.2,10.1-0.1c-0.4,0-1.5,0-0.2-0.1
							c0.2,0.1,3.4,0,4,0c1.3,0,5.4,0,4-0.1c0.7,0,4.3,0.1,2.2,0.2c1.2,0,2.4,0,3.3,0h-1.6c4.2,0,6.4,0,9.1,0h-1.6
							c1.9-0.1,3.7,0,5.6,0.1h-2.5c4,0,6.6,0,10.1,0h-1.4c4.4-0.1,27.3-0.3,31.3-0.4l-1.9-0.1l3.5-0.1c-0.4,0-1.7,0.4-2,0.3
							c7.5,0,46.1-0.1,53,0c2.8,0,0.5,0.2,0.5,0.2c3.4,0,1.5-0.1,4.3-0.1c0.8,0-0.2,0.1-0.6,0.1c1.3,0,2.4,0,2.5,0
							c-1.6,0-0.9-0.2-1.6-0.3h3.8l-0.2,0.1c0.8,0,2-0.3,5.7-0.2c6.1,0,12.8,0,18.9,0c0,0-1.4,0-2.7,0.1c0.8,0,2,0,2.8,0
							c-1.5,0,2.6,0,1.4-0.1c4.5-0.2,10.3,0,14.3-0.2c0.3-0.2,8.5-3.4,8.5-3.6h2.8c-0.3,0-2.7,0-4,0l-0.2,0.1c-3,0-0.7,0-3.6,0
							c1.6-0.1,3.2-0.2,4.9-0.1c-2.1,0-4.2,0-5.1,0c-2,0,0.2-0.1-2.2-0.2c-1.7,0-4,0.1-5.9,0l0,0c-4.8-0.1-7.3,0.1-11.6,0h0.5
							c-1.5,0-4.6,0-7.3,0c0.8,0,1.5,0.1-0.2,0.1c-3.2,0-5.4,0-7.7,0h-2.2c-11.1,0-54.9,0.1-66.1,0.1h0.4c-17,0-51.9,0-69.4,0.2
							c-2.7-0.1-6.5,0-9.3-0.1c1.6,0,1,0.1-0.2,0.1c-8.6,0-0.6,0-9.3,0.1c-10.1,0-48.5,0-57.4,0c-4.8,0.1-10.8,0-15.5,0.1h0.5
							c-5,0-33.6,0-39.5,0h0.8c-5.1,0-4.4,0-8.4-0.1c-1.8,0.2-3.7,0.3-5.5,0.3l0,0c-2.5,0-8.2,0.2-12.4,0.2l0.2-0.1
							c-3.5,0.1-10.1,0-12.5,0c-5.7,0-14.5-0.2-22.2,0L4,196.6H3.3c0,0-7.9,3.1,2.1,3.7H5.3h2c2.4,0,3.5,0,3.3,0H7.4
							c2.4,0,0.7,0-0.2,0.1H10c0.5,0-0.3,0-0.7,0c1.3,0,3.1-0.1,4.7,0c2.5,0,0.2,0.1,3,0.1c15.1,0,29.8,0.2,45.1,0.2
							c0.4,0,0,0-0.5,0c4.6,0,8.7,0,12.9,0c0.6,0,1.2,0.1,1.8,0.1C75.5,200.4,99.4,200.4,99.8,200.4z"/>
					</g>
					<g transform="translate(701.397922, 10.766343)" class="st1">
						<path class="st2" d="M9.6,246c0.2-0.1,0.2-0.4,0.2-0.7C9.6,245.5,9.5,245.8,9.6,246L9.6,246z"/>
						<path class="st2" d="M9.8,245.4L9.8,245.4L9.8,245.4z"/>
						<path class="st2" d="M9,233.1H8.7c0-0.6,0.3-0.2,0.2-0.7c-0.4-0.2,0-0.9-0.3-1.1c-0.3-0.2,0-0.3,0.1-0.2c-0.2,0,0-0.3-0.2-0.4
							s0,0-0.1,0l-0.1-0.4c0-0.2,0.2-0.2,0.2,0c0-1-0.4-5.9-0.7-7c-0.1,0.1,0,0.5-0.2,0.6c-0.1-0.3,0-0.4-0.1-0.5
							c0.3-0.1,0-0.6,0.3-0.9H7.7v-0.1c-0.2-0.5-0.2-0.9-0.2-1.4c-0.1-0.4-0.3-0.9-0.3-1.3c0,0,0,0.2-0.1,0c-0.1-0.2-0.1-0.4,0-0.5
							c0.1-0.1,0-0.7-0.2-0.5c-0.2,0.2,0-0.6,0.2-0.3c0-0.1,0-0.3,0-0.4v0.2c0-0.5,0-0.8-0.2-1.2v0.2c0-0.3,0-0.6,0-0.7v0.3
							c0-0.5-0.1-0.9-0.2-1.3v0.2c-0.2-0.6-0.6-3.6-0.8-4.1v0.3L5.7,211c0,0,0.3,0.2,0.3,0.3c-0.1-1-0.6-6.1-0.6-7c0-0.4,0,0,0,0
							c0-0.2,0-0.4,0-0.6l0,0c0-0.1,0-0.2,0-0.3c0,0.2,0,0.1,0,0.2v-0.5l0,0c-0.1-0.2-0.1-0.5-0.1-0.7c0-0.9-0.1-1.7-0.2-2.5
							c0,0.1,0,0.2,0,0.4v-0.4c0,0.2,0-0.3,0-0.2c0-0.6-0.1-1.4-0.2-1.9c-0.1-0.4-0.2-0.7-0.2-1.1v-0.4v0.5l0,0v0.5
							c0-0.4,0-0.5,0-0.6s0,0,0,0.7v0.3c0,0.2,0,0.4,0,0.8l0,0c-0.1,0.8,0,0.7-0.2,1.5l0,0c0,0.5,0,0.4-0.1,1c0,0,0-0.2,0,0L4,201.9
							v0.3c-0.2,1.5-0.7,7.2-0.9,8.7l0,0c-0.2,2.3-0.7,6.9-0.8,9.2c-0.1,0.4-0.2,0.8-0.3,1.2c0-0.2,0.2-0.1,0.1,0
							c-0.1,1.2,0,0,0,1.2c-0.1,2.5-0.4,5.1-0.9,7.6c0.2,0.6,0,1.4,0,2l0,0c0,0.7-0.6,4.4-0.5,5.2v-0.1c0.1,0.7-0.2,0.6-0.4,1.1
							c0.3,0,0.5,0.5,0.5,0.7l0,0c0.1,0.5,0.2,1.1,0.3,1.6H1.1c0.1,0.5,0.1,1.1,0,1.7c-0.3,0.9-0.5,1.9-0.4,2.9L0,245.9l0,0
							c0,0,1.9,0.3,4,0.4c1.8,0.3,3.6,0,5.2-0.6h0.2v-0.3c0-0.3-0.2-0.5,0-0.4v0.4c0-0.3,0.2-0.1,0.3,0c0-0.1,0-0.2,0-0.4
							c0,0,0,0-0.1,0.1s-0.3-0.4-0.2-0.6c0.1-0.2,0.3,0,0.3-0.4c0-2-0.1-4-0.3-6c0,0,0,0,0.1,0c-0.1-0.6-0.2-1.1-0.3-1.7
							c0-0.1,0.1-0.2,0.2-0.2c-0.2-0.5-0.3-1-0.3-1.5L9,233.6C9,233.4,9,233.3,9,233.1z"/>
					</g>
				</g>
			</g>
			<g transform="translate(4.000000, 502.000000)">
				<g id="img-tabla-up" transform="translate(0.000000, 1.000000)">
					<rect x="1.7" y="201.6" class="st10" width="714.9" height="56.6"/>
					<ellipse class="st11" cx="66.1" cy="234.2" rx="10.4" ry="10"/>
					<ellipse class="st11" cx="96.1" cy="219.7" rx="5.2" ry="5"/>
					<path class="st11" d="M716.4,201.6H245.2c0,0,368.9,39.2,471.1,32.1V201.6z"/>
					<rect x="196.2" y="223.4" class="st11" width="360.1" height="4.6"/>
					<rect x="363.8" y="242.1" class="st11" width="352.5" height="4.6"/>
					<g transform="translate(42.000000, 0.000000)" class="st1">
						<path class="st12" d="M0,195.8"/>
						<polygon class="st2" points="453.8,197.2 454.1,197.2 454.6,196.9 						"/>
						<path class="st2" d="M492.4,197.8h0.2C492.6,197.8,492.7,197.7,492.4,197.8z"/>
						<path class="st2" d="M364.9,198.1c-0.2,0-0.4,0-0.6,0H364.9z"/>
						<polygon class="st2" points="143.3,198.4 143.5,198.4 143.1,198.4 						"/>
						<path class="st2" d="M144.1,198.3c0.9,0-0.2,0.1-0.6,0.2c0.9,0.1,1.9,0.1,2.8,0C145.6,198.3,144.8,198.3,144.1,198.3
							L144.1,198.3z"/>
						<path class="st2" d="M15.1,198.8h0.4C15.4,198.8,15.2,198.8,15.1,198.8L15.1,198.8z"/>
						<path class="st2" d="M368.7,205.7h-0.6C368.3,205.7,368.5,205.7,368.7,205.7z"/>
						<path class="st2" d="M35.3,199l0.2-0.2C35.4,198.8,35.3,199,35.3,199z"/>
						<path class="st2" d="M454.6,196.9h0.3H454.6z"/>
						<path class="st2" d="M528.1,198c0,0,0,0.1,0.2,0.2h0.1L528.1,198z"/>
						<path class="st2" d="M674.3,234.7c0,0,0-0.1,0-0.1l-0.2-0.7C674.2,234.1,674.3,234.4,674.3,234.7L674.3,234.7z"/>
						<path class="st2" d="M576.9,199h0.2c-0.8,0-3-0.1-5.9-0.1l-0.2,0.3L576.9,199z"/>
						<path class="st2" d="M630.4,206l-5.2-0.6c16.7-0.3,24.5,0.3,38.8-0.2l-0.8,0.1c1,0,2-0.1,2.9-0.2c0.8,0,1.8-0.1,3.1-0.1h1
							c0.3,0,0.5,0,0.8,0l-0.1,0.8v0.4c0,0.2,0,0.5,0,0.7v0.9c-0.1,2.5-0.3,5.3-0.5,8.6l0,0c0.1,0.8,0.1,1.6,0,2.4l0.4-4
							c0.2,2.4,0.4,4.5,0.5,7.6c0,0.7-0.2,0.9-0.3,1l0.1,7.8l-0.4,2.4c0.2,2.4,1,1.3,0.6,7.7c0.6-2.4,0.4,3.2,0.6,2.4l-0.3,1.6
							c0,3.8,0.2,10.9,0.5,12.7c0,0,1.2-14.8,1.8-18.8c-0.1,5.3,0,1.4,0.3,0.4l-0.1-0.4c0.1-1.6,0.3-3.2,0.6-4.8h-0.1v0.2
							c0,0.2-0.1,0-0.1,0c0,0-0.1-0.1-0.1-1v0.2c0-1.3,0-3.6,0-4.6h0.3c-0.6-2.4,0.9-16,0.9-19.1c0.1-1.3,0.2-2.7,0.1-4
							c0-1.7,0-3.5,0-5.3c-1.1,0-2.1,0-3.1,0h-2.4h-1.3c-0.4,0-0.8-0.1-1.1-0.2c-0.6-0.3-1.3-0.4-2-0.4c-4-0.2,0.8,0.3-0.8,0.4
							l-4.8-0.4c2.8,0,1.3-0.2,0.8-0.3c-4.1,0-10.7-0.6-12,0c-5.6-0.3-5.6-0.5-8-0.6c0.8,0.1,1.6,0.2,2.4,0.3
							c-2.2-0.3-1.1,0-0.2,0.1c-3.4,0.3-17.7-1.1-18.4-0.4v-0.5c-0.8,0.5,0.5,1-1.9,1.2l-1.6-0.2L619,200c-1.6-0.2-0.8-0.3-0.8-0.3
							c-3.9,0.2-9.3,0-14-0.1l5,1.3c-4-0.3-11.1-0.9-12-0.5l-2.4-0.4c-8-0.9-5.6,0.4-8.8,0.1l-4-0.5h4c-4-0.3-5.6-0.4-8.8-0.7l0,0
							c0.1,0,0.3,0,0.4,0H577c-1.8,0.4-3.6,0.5-5.4,0.4c-4,0-7.1,0.3-13.5-0.2l-1.6,0.5l-4.8-0.3V199l19.4-0.2l0.1-0.2
							c-3.6,0-7.6,0.2-10,0.1c-1.1,0-4-0.5-2-0.8l-2.2,0.4c-12,0-12,0-24.4-0.4l1.1,0.2c-1.9,0.3-3.8,0.3-5.6,0
							c-7.5,0-15.2-0.3-20-0.8l-1.1,0.5c-1.6,0-4-0.7-4.7,0l-3.4,0.2c-2,0.1-4,0.1-6,0l0,0h-0.5l0,0c-4.9-0.2,0,0.4-5.5,0.1
							c-1.8-0.3-2,0.6-4.7,0.5l-2.7-0.9c-4.9-0.4-5.8,0.3-12.9,0.3c-3.4-0.2-5.1-0.8-2.8-1.3c-1.8,0.5-3.7,0.7-5.6,0.7
							c-0.6-0.3-0.2-0.3,0.7-0.5c-1.7-0.1-3.4,0-5.1,0.2c-0.8,0.6-1.7,1.1-2.6,1.3l1.1,0.1c-3.2,0.3-6.4,0.3-9.6,0.1l0.1-0.2
							l-3.6,0.1l-0.2-0.3H434h0.7c-1.2,0-5.2,0.2-7.5,0v-0.2c-6.5-0.5-11.8,0.2-19.4,0.2l1-0.3c-2.6-0.4-0.7,0.5-3.8,0.4l-0.1-0.4
							c-1.8,0.3-3.6,0.2-5.4-0.3l0.9,0.6l-3.4,0c-3.9-0.2-2.4-0.7-1.8-1l-2.6,0.4l-0.5-0.5c-2,0.6-2,0-5.3,0.2
							c-0.3-0.2,0.6-0.3-0.6-0.4l-5.5,0.7l3.3-0.3l-0.4,0.7c-2.4,0.2-4.8,0.3-7.2,0.1l1.7-0.2c-2.2,0.1-4.4,0-6.6-0.3
							c0.7,0.1,1.8,0.3,0.1,0.4c-1.2,0-0.6-0.3-1.8-0.3c-0.3,0.5-3.2,0.8-5.8,0.5c0,0,0-0.1,0.3-0.2c-0.7,0.1-1.5,0.1-2.2,0l0.6-0.4
							l-2.3,0.5c-1.5-0.1-3.7,0.2-3.5-0.1l0.9-0.1l-11.3-0.1l-0.2-0.4c-1.1,0.6-6.2-0.2-5.8,0.5c-2.2-0.4-8.5,0.3-7.2-0.5
							c-7.5,0-11.6,0.7-20.7,0.3c-3.3-0.7-12.2-0.5-18-0.6L264,198c-7-1-17.5,0.3-25.1-0.2l-2,0.4c-5-0.6-12.7,0.1-19.8-0.5
							c-1.7,0.2-2.6,0.2-3,0.2c0.3,0,0.8,0,1,0.3c-2-0.2-6,0-5.8-0.5h0.5c0.3-0.5-6.1,0.2-8.4-0.2l1.2,0.5l-3.9-0.1h1
							c-16.6,1.2-24-0.5-39.7,0.6c2-0.6-3.1,0.3-3.3-0.3c-4-0.8-7.3,0.2-10.5,0.4c0,0,0,0-0.2,0.1h-5.6c3.4-0.8-4,0.7-1,0
							c-14.6-0.8-33.8-0.2-50.8-0.5l0.7,0.2c-4.3,0-9.7,0.2-12.9-0.1c-2.8-0.1-5.6,0.1-8.4,0.6c-3.6,0.4-6.9-0.3-5.4-0.3
							c-4.2,0.4-8.5,0.6-12.8,0.5c-1.8-0.7-14.5,0.7-14.7,0l0,0c-6.8-0.6-13.2,0.4-20.6-0.1c0.1-0.1,0.3-0.1,0.4-0.2l-14.9,2.4
							l4.3,2.6l12.9,2.1l35.1-0.5l28,0.8l68.1-0.3l4.9-0.6c13.4,1,30.6-0.2,45,0.6l0.3-0.5c1.6-0.1,3.2,0,4.8,0.4
							c37.8-0.1,76.7-0.8,110.8-0.1c3.3,0.3,13.3,0.1,15.8,0.5c11.1-0.6,22.8-0.6,33.8-0.5h-0.4h5.2c0.2,0,0.2,0,0,0.1
							c5.9-0.4,15.1,0,22.3,0.2h-0.4c42,0.1,81-0.8,122.6-0.1c19.4,0.8,41.9-0.3,64.1,0.4C581.5,206.6,626.4,206.3,630.4,206z"/>
						<path class="st2" d="M670.8,223.5v-0.2C670.7,223.4,670.7,223.6,670.8,223.5z"/>
						<polygon class="st2" points="603.7,199.6 604,199.6 602.9,199.3 						"/>
						<path class="st2" d="M663.2,199.5c-2.7,0-2.8,0-2.4,0C661.7,199.5,662.6,199.5,663.2,199.5z"/>
						<path class="st2" d="M671.2,245.4c0,1.4,0.1,0.9,0.2,0c0-1.4,0-2.4,0-2.4C671.4,243.8,671.3,244.6,671.2,245.4z"/>
						<path class="st2" d="M674.1,239.6l0.2,0.4C674.2,239.3,674.1,239.3,674.1,239.6z"/>
					</g>
					<g transform="translate(0.000000, 5.000000)" class="st1">
						<path class="st13" d="M0,195.8"/>
						<path class="st2" d="M218.3,257.5h-0.2c-0.2,0.1-0.3,0.2-0.5,0.2L218.3,257.5z"/>
						<path class="st2" d="M180.3,256.9h-0.2C180.1,256.9,180.1,257,180.3,256.9z"/>
						<path class="st2" d="M305.9,256.6c0.2,0,0.4,0,0.6,0H305.9z"/>
						<polygon class="st2" points="524.2,256.2 524,256.2 524.4,256.2 						"/>
						<path class="st2" d="M523.4,256.4c-0.8,0,0.2-0.1,0.6-0.2c-0.9-0.1-1.9-0.1-2.8,0C521.2,256.3,523,256.3,523.4,256.4z"/>
						<path class="st2" d="M650.5,255.8h-0.4H650.5z"/>
						<path class="st2" d="M302.1,249h0.6C302.5,249,302.3,249,302.1,249z"/>
						<path class="st2" d="M630.6,255.7l-0.2,0.3C630.5,255.8,630.6,255.8,630.6,255.7z"/>
						<path class="st2" d="M217.6,257.8l-0.3,0.1L217.6,257.8z"/>
						<path class="st2" d="M145.2,256.7c0,0-0.1-0.1-0.2-0.2l0,0L145.2,256.7z"/>
						<path class="st2" d="M2,219.6C2,219.6,2,219.6,2,219.6l0.1,0.8C2.1,220.2,2.1,219.9,2,219.6L2,219.6z"/>
						<path class="st2" d="M97.1,255.7c0,0-0.2,0-0.2,0.1c0.8,0,3,0.1,5.8,0l0.2-0.3L97.1,255.7z"/>
						<path class="st2" d="M44.4,248.7l5.1,0.6c-16.5,0.3-24.2-0.3-38.3,0.2l0.8-0.1c-0.9,0-1.8,0.1-2.7,0.2c-0.7,0-1.7,0.1-2.8,0.2
							c-0.4,0-0.9,0-1.3,0c0-0.3,0-0.6,0-0.9v-0.4c0-0.6,0-1.1,0-1.7c0.1-2.6,0.3-5.6,0.6-9.1l0,0c-0.1-0.8-0.1-1.6,0-2.4l-0.4,4
							c-0.1-2.3-0.4-4.4-0.5-7.5c0-0.7,0.2-0.9,0.3-1L5.1,223l0.4-2.4c-0.2-2.4-1-1.3-0.6-7.6c-0.2,2.3,0-3.2-0.3-2.4
							c0-0.3,0.2-1,0.3-1.6c0-3.7-0.2-10.8-0.5-12.5c0,0-1.2,14.6-1.8,18.5c0.2-5.3-0.1-1.3-0.3-0.4l0.1,0.4
							c-0.1,1.6-0.3,3.1-0.6,4.7l0,0v-0.2c0-0.1,0.1,0,0.1,0.1c0,0.1,0.1,0.1,0.1,1v-0.2c0,1.3,0,3.6,0,4.6H1.7
							c0.6,2.3-0.9,15.6-0.9,18.7c-0.2,1.5-0.2,3-0.2,4.4c0,1.9,0,3.8,0,5.8h2c1.9,0,3.1,0,3.8,0.1c0.4,0,0.8,0.1,1.1,0.2
							c0.6,0.3,1.3,0.5,2,0.4c4,0.2-0.8-0.4,0.8-0.4l4.7,0.4c-2.7,0-1.2,0.2-0.7,0.3c4,0,10.5,0.6,11.7,0c5.5,0.3,5.5,0.5,7.9,0.6
							c-0.8,0-1.6-0.1-2.4-0.3c2.2,0.3,1.1,0,0.2-0.1c3.4-0.3,17.4,1.1,18.1,0.4v0.1c0.8-0.5-0.5-1,1.9-1.2l1.6,0.2l2.4-0.2
							c1.6,0.2,0.8,0.3,0.8,0.3c3.8-0.2,9.2,0,13.8,0.1l-4.8-1.2c4,0.3,11,0.9,11.8,0.5l2.3,0.4c7.9,0.9,5.5-0.4,8.6-0.1l4,0.5h-4
							c4,0.2,5.5,0.4,8.6,0.7l0,0c-0.1,0-0.3,0-0.4,0H97c1.7-0.4,3.5-0.5,5.3-0.4c4,0,7-0.3,13.3,0.2l1.6-0.5l4.7,0.3v0.3h-19.1v0.2
							c3.5,0,7.5-0.2,9.8-0.1c1.1,0,4,0.5,2,0.8l2.2-0.4c11.7,0,11.8,0,24,0.4l-1.1-0.2c1.8-0.2,3.7-0.2,5.5,0
							c7.4,0,15,0.3,19.8,0.8l1-0.5c1.6,0,3.9,0.7,4.6,0l3.3-0.2c1.9-0.1,3.9-0.1,5.8,0l0,0h0.4l0,0c4.8,0.2,0-0.4,5.5-0.1
							c1.8,0.3,2-0.6,4.6-0.5l2.7,0.7c4.9,0.4,5.7-0.3,12.7-0.3c3.4,0.2,5,0.8,2.8,1.3c1.8-0.5,3.6-0.7,5.5-0.7
							c0.6,0.2,0.2,0.3-0.7,0.5c1.7,0.1,3.3,0,5-0.2c0.8-0.6,1.6-1.1,2.6-1.3l-1.1-0.1c3.1-0.3,6.3-0.3,9.4-0.1l-0.1,0.2l3.6-0.1
							l0.2,0.3h5.1h-0.7c1.2,0,5.1-0.1,7.4,0v0.2c6.4,0.5,11.6-0.2,19.1-0.2l-1,0.4c2.5,0.3,0.7-0.5,3.7-0.4l0.1,0.4
							c1.8-0.3,3.6-0.2,5.3,0.3l-0.9-0.6l3.5,0.1c3.8,0.2,2.3,0.7,1.8,1l2.6-0.4l0.5,0.5c2-0.6,2,0,5.2-0.2c0.3,0.2-0.6,0.3,0.6,0.4
							l5.5-0.7l-3.3,0.3l0.4-0.7c2.4-0.2,4.7-0.3,7.1-0.1l-1.7,0.2c2.2-0.1,4.3,0,6.5,0.3c-0.7-0.1-1.8-0.3-0.1-0.4
							c1.2,0,0.6,0.3,1.8,0.3c0.3-0.5,3.1-0.7,5.8-0.5c-0.1,0.1-0.2,0.2-0.3,0.2c0.7-0.1,1.4-0.1,2.2,0l-0.7,0.5l2.2-0.5
							c1.5,0.1,3.7-0.3,3.5,0.1l-0.8,0.1l11.2,0.1l0.2,0.4c1.1-0.6,6.1,0.2,5.8-0.5c2.1,0.4,8.4-0.3,7.1,0.6
							c7.4,0,11.4-0.7,20.4-0.3c3.2,0.7,12,0.5,17.7,0.6l30-0.8c6.9,1,17.3-0.3,24.7,0.2l2-0.4c4.9,0.6,12.5-0.1,19.5,0.5
							c1.7-0.2,2.6-0.2,3-0.2c-0.3,0-0.8-0.1-0.9-0.3c2,0.2,6,0,5.7,0.5h-0.5c-0.3,0.5,6-0.2,8.2,0.2l-1.2-0.5l3.8,0.1h-1
							c16.3-1.2,23.7,0.5,39.1-0.6c-2,0.6,3-0.3,3.2,0.3c3.9,0.8,7.2-0.2,10.3-0.4c0,0,0,0,0.2-0.1h5.5c-3.3,0.8,4-0.7,1,0
							c14.5,0.6,33.3,0,50,0.3l-0.7-0.2c4.2,0,9.5-0.2,12.7,0.1c2.8,0.1,5.6-0.1,8.3-0.6c3.5-0.3,6.7,0.4,5.2,0.3
							c4.2-0.4,8.4-0.6,12.6-0.5c1.8,0.7,14.3-0.7,14.5,0.1l0,0c6.7,0.5,13-0.4,20.3,0.1h-0.4l14.7-2.3l-4.2-2.6l-12.7-2l-34.5,0.5
							l-27.6-0.8l-67.1,0.3l-4.8,0.6c-13.2-1-30,0.1-44.3-0.6l-0.3,0.5c-1.6,0.1-3.2,0-4.7-0.4c-37.3,0.1-75.6,0.8-109.1,0.1
							c-3.2-0.3-13-0.1-15.6-0.5c-10.9,0.6-22.4,0.6-33.3,0.5h0.4l-5.1,0.1c-0.2,0-0.2-0.1,0-0.1c-5.8,0.4-14.9,0-22-0.2h0.4
							c-41.4,0-79.8,0.8-120.8,0.1c-19.1-0.8-41.3,0.3-63.1-0.4C92.6,248.1,48.3,248.4,44.4,248.7z"/>
						<path class="st2" d="M5.5,230.6v0.2C5.7,230.8,5.6,230.5,5.5,230.6z"/>
						<polygon class="st2" points="70.7,255.1 70.4,255.1 71.5,255.3 						"/>
						<path class="st2" d="M12.1,255.2c2.6,0,2.7,0,2.4,0C13.7,255.2,12.9,255.2,12.1,255.2z"/>
						<path class="st2" d="M5.1,209.1c0-1.4-0.1-0.8-0.3,0c0,1.4,0,2.4,0,2.4C5,210.7,5,209.8,5.1,209.1z"/>
						<path class="st2" d="M2.3,214.7l-0.2-0.4C2.1,215.1,2.2,215.1,2.3,214.7z"/>
					</g>
					<g transform="translate(334.703704, 26.000000)" class="st1">
						<polygon class="st2" points="110.2,201.8 110.2,201.8 110,201.9 						"/>
						<path class="st2" d="M94.9,201.4L94.9,201.4C94.9,201.4,94.8,201.4,94.9,201.4z"/>
						<path class="st2" d="M145.4,201.2c0.1,0,0.2,0,0.3,0H145.4z"/>
						<polygon class="st2" points="233.4,201 233.4,201 233.5,201 						"/>
						<path class="st2" d="M233,201.1c-0.3,0,0.1,0,0.2-0.1c-0.4-0.1-0.7-0.1-1.1,0C232.2,201,232.9,201,233,201.1z"/>
						<path class="st2" d="M284.2,200.8H284H284.2z"/>
						<path class="st2" d="M276.2,200.6l-0.1,0.2C276.2,200.8,276.2,200.7,276.2,200.6z"/>
						<path class="st2" d="M109.9,201.9L109.9,201.9C109.8,201.9,109.8,201.9,109.9,201.9z"/>
						<path class="st2" d="M80.7,201.3c0,0,0-0.1,0-0.1l0,0V201.3z"/>
						<polygon class="st2" points="9.5,198.9 9.5,198.9 9.7,198.9 						"/>
						<path class="st2" d="M61.3,200.6L61.3,200.6c0.3,0,1.2,0,2.3,0v-0.2L61.3,200.6z"/>
						<path class="st2" d="M40.1,196.4l2,0.4c-6.6,0.2-9.7-0.2-15.4,0.1H27c-0.8,0-1.3,0.7-10.4-0.3l0,0c-0.3,0-0.6,0-0.9,0l1.6,0.2
							c-1,0-1.8,0.3-3,0.3c-0.3,0-0.4-0.1-0.4-0.2h-3.1l-0.9-0.2c-1,0.1-0.5,0.6-3.1,0.4c1,0.3-1.2,0.2-0.9,0.4l-0.6-0.2
							c-1.7,0-3.4,0.1-5,0.3c0,0,5.9,0.7,7.5,1.1c-2.1-0.1-0.6,0-0.1,0.1h0.1c0.6,0.1,1.3,0.2,1.9,0.4l0,0l0,0l0,0c0,0,0,0,0.4,0
							l0,0c0.6,0,1.2,0,1.8,0v0.2c2.5,0,5.1,0.2,7.6,0.5c1.3,0.2,2.8,0,4.4,0c2.5,0,1.3,0.3,2.5,0.4c1.6,0.1-0.3-0.2,0.3-0.2
							l1.9,0.2c-1.1,0-0.5,0.1-0.3,0.2c1.6,0.2,3.2,0.2,4.7,0c2.2,0.2,2.2,0.3,3.2,0.3c-0.3,0-0.9-0.1-0.9-0.2c0.9,0.2,0.4,0,0,0
							c1.3-0.2,7,0.7,7.3,0.3l0,0c0.3-0.3-0.2-0.6,0.8-0.7l0.6,0.1l1-0.1c0.6,0.1,0.3,0.2,0.3,0.2c1.5-0.1,3.7,0,5.6,0l-2-0.8
							c1.6,0.3,3.2,0.4,4.7,0.3l1,0.3c3.2,0.5,2.2-0.2,3.5,0l1.6,0.3h-1.6c1.6,0.2,2.2,0.3,3.5,0.4l0,0h-0.2h0.2
							c0.7-0.2,1.4-0.3,2.1-0.2c1.8-0.1,3.6,0,5.3,0.1l0.6-0.3l1.9,0.2v0.2c-1.9,0-5.4,0-7.8,0.1l0,0c1.4,0,3,0,4,0
							c0.5,0,1.6,0.3,0.8,0.5l0.9-0.2c4.7,0,4.8,0,9.7,0.2l-0.4-0.1c0.7-0.2,1.5-0.2,2.2,0c2.7,0,5.3,0.2,8,0.5l0.4-0.3
							c0.6,0,1.6,0.4,1.9,0l1.3-0.1c0.8-0.1,1.6-0.1,2.4,0l0,0h0.2l0,0c2,0.1,0-0.3,2.2,0c0.7,0.2,0.8-0.4,1.9-0.3l1.1,0.4
							c1.7,0,3.4,0,5.1-0.2c1.4,0.1,2,0.5,1.1,0.8c0.7-0.3,1.5-0.4,2.2-0.4c0.3,0.2,0,0.2-0.3,0.3c1.5,0.2,0.9-0.1,2-0.1
							c0.3-0.3,0.7-0.8,1-0.8h-0.4c1.3-0.2,2.5-0.2,3.8,0v0.1h1.4l0.1,0.2h2h-0.3c1-0.1,2-0.1,3,0v0.1c2.6,0.1,5.1,0.1,7.7-0.1
							l-0.4,0.2c1,0.2,0.3-0.3,1.5-0.2v0.3c1.1-0.3,1.4,0,2.1,0.2l-0.3-0.3h1.4c1.5,0.1,0.9,0.4,0.7,0.6l1-0.3l0.2,0.3
							c0.8-0.3,0.8,0,2-0.1c0.1,0.1-0.2,0.2,0.2,0.2l2.2-0.4l-1.3,0.2l0.2-0.4c1-0.1,1.9-0.1,2.9,0l-0.7,0.1c0.9-0.1,1.7,0,2.6,0.2
							c-0.3,0-0.7-0.2,0-0.3c0.7-0.1,0.3,0.2,0.7,0.2c0-0.3,1.3-0.4,2.3-0.3c0,0-0.1,0-0.1,0c0.3-0.1,0.6-0.1,0.9,0l-0.3,0.3
							l0.9-0.3c0.6,0.1,1.5-0.1,1.4,0h-0.3h4.5v0.3c0.5-0.4,2.5,0.1,2.3-0.3c0.9,0.2,3.4-0.2,2.9,0.3c3,0,4.6-0.4,8.2-0.2
							c2.4,0.3,4.8,0.4,7.1,0.3c4.5-0.2,7.5-0.3,12.1-0.5c2.8,0.6,7-0.2,10,0.1l0.8-0.2c2,0.4,5,0,7.8,0.3c0.4-0.1,0.8-0.1,1.2-0.1
							c-0.1,0-0.3,0-0.4-0.2c0.8,0.1,2.4,0,2.3,0.3H207c-0.1,0.3,2.4-0.1,3.3,0.1l-0.5-0.3h1.5H211c6.6-0.7,9.6,0.3,15.7-0.3
							c-0.8,0.4,1.2-0.2,1.3,0.2c1.4,0.2,2.8,0.2,4.2-0.2h2.2c-1.3,0.5,1.6-0.4,0.4,0c5.8,0.4,13.4,0,20.2,0.2l-0.3-0.1
							c1.7-0.1,3.4-0.1,5.1,0c1.1,0.1,2.3-0.1,3.4-0.3c1.4-0.2,2.7,0.2,2.1,0.2c1.7-0.2,3.4-0.4,5.1-0.3c0.7,0.4,5.7-0.4,5.8,0l0,0
							c2.7,0.3,5.2-0.2,8.2,0h-0.2l6-1.4l-1.7-1.5l-5.1-1.2l-14,0.3l-11.1-0.5l-27,0.2l-2,0.3c-5.3-0.6-12.1,0.1-17.8-0.3l-0.1,0.3
							c-0.6,0.1-1.3,0-1.9-0.2c-15,0-30.4,0.5-44,0c-1.3-0.2-5.3,0-6.3-0.3c-4.4,0.4-9,0.4-13.4,0.3h0.3h-2l0,0
							c-3,0.2-5.9,0.1-8.9-0.1h0.2c-16.7,0-32.1,0.5-48.7,0.1c-7.7-0.5-16.6,0.2-25.4-0.2C59.5,196.1,41.7,196.3,40.1,196.4z"/>
						<path class="st2" d="M13.9,196.8L13.9,196.8C14,196.8,13.8,196.8,13.9,196.8z"/>
						<polygon class="st2" points="50.7,200.3 50.6,200.3 51,200.5 						"/>
						<path class="st2" d="M27.1,200.4c1.1,0,1.1,0,1,0C27.8,200.4,27.4,200.4,27.1,200.4L27.1,200.4z"/>
						<path class="st2" d="M5.2,197.1c-0.6,0-0.4,0,0,0.1h1C5.8,197.2,5.5,197.1,5.2,197.1z"/>
						<path class="st2" d="M7.5,198.8l-0.2,0.1C7.6,198.8,7.6,198.8,7.5,198.8z"/>
					</g>
					<g transform="translate(189.703704, 44.296296)" class="st1">
						<path class="st2" d="M110.2,202.5L110.2,202.5c-0.2,0.1-0.2,0.1-0.3,0.2L110.2,202.5z"/>
						<path class="st2" d="M94.9,202.1L94.9,202.1C94.8,202.1,94.8,202.2,94.9,202.1z"/>
						<path class="st2" d="M145.4,202h0.3H145.4z"/>
						<polygon class="st2" points="233.4,201.8 233.4,201.8 233.5,201.8 						"/>
						<path class="st2" d="M233,201.9c-0.3,0,0,0,0.3-0.1c-0.4-0.1-0.8-0.1-1.1,0C232.1,201.8,232.9,201.8,233,201.9z"/>
						<path class="st2" d="M284.2,201.5h-0.1H284.2z"/>
						<path class="st2" d="M143.9,197.4h0.2C144.1,197.4,144,197.4,143.9,197.4z"/>
						<path class="st2" d="M276.2,201.4v0.2C276.2,201.5,276.2,201.5,276.2,201.4L276.2,201.4z"/>
						<path class="st2" d="M109.9,202.7L109.9,202.7L109.9,202.7z"/>
						<path class="st2" d="M80.7,202c0,0,0-0.1,0-0.1l0,0V202z"/>
						<path class="st2" d="M9.5,199.7L9.5,199.7l0.3-0.1C9.6,199.6,9.5,199.7,9.5,199.7L9.5,199.7z"/>
						<path class="st2" d="M61.3,201.4L61.3,201.4c0.8,0,1.5,0,2.3,0v-0.2L61.3,201.4z"/>
						<path class="st2" d="M40.1,197.2l2,0.4c-6.6,0.2-9.7-0.2-15.4,0H27c-0.8,0-1.3,0.7-10.4-0.3l0,0c-0.3,0.1-0.6,0.1-0.9,0
							l1.6,0.2c-1,0.2-2,0.3-3,0.3c-0.3,0-0.4-0.1-0.4-0.2h-3.1l-0.9-0.2c-0.9,0.1-0.5,0.6-3,0.3c0.9,0.3-1.3,0.2-0.9,0.4L5.1,198
							c-1.7,0-3.4,0.1-5,0.3c0,0,6,0.7,7.5,1.1c-2.1-0.1-0.6,0-0.1,0.2l0.1-0.1c0.7,0.1,1.3,0.2,2,0.4l0,0l0,0l0,0c0,0,0-0.1,0.4,0
							l0,0c0.5,0,1.4,0,1.8,0v0.2c2.5,0,5.1,0.2,7.6,0.5c1.3,0.2,2.8,0,4.4,0c2.5,0,1.3,0.3,2.5,0.4c1.3,0.2-0.3-0.2,0.3-0.2l2,0.2
							c-1.1,0-0.5,0.1-0.3,0.2c1.6,0.2,3.2,0.2,4.7,0c2.2,0.2,2.2,0.3,3.2,0.3c-0.3,0-1-0.1-1-0.2c0.9,0.2,0.4,0,0,0
							c1.4-0.2,7,0.6,7.3,0.3l0,0c0.3-0.3-0.2-0.6,0.7-0.7l0.6,0.1l0.9-0.1c0.6,0.1,0.3,0.2,0.3,0.2c1.6-0.1,3.7,0,5.6,0l-2-0.8
							c1.6,0.3,3.2,0.4,4.7,0.3l0.9,0.3c3.2,0.5,2.2-0.2,3.5,0l1.6,0.3h-1.6c1.6,0.1,2.2,0.2,3.5,0.4l0,0h-0.2h0.2
							c0.7-0.2,1.4-0.3,2.1-0.2c1.8-0.1,3.6,0,5.4,0.1l0.6-0.3l1.9,0.2v0.2c-1.9,0-5.4,0-7.7,0.1l0,0c1.4,0,3,0,4,0
							c0.5,0,1.6,0.3,0.8,0.5l0.9-0.2c4.7,0,4.8,0,9.7,0.2l-0.4-0.1c0.7-0.2,1.5-0.2,2.2,0c2.7,0,5.3,0.2,8,0.5l0.4-0.3
							c0.6,0,1.6,0.5,1.9,0l1.3-0.1c0.8-0.1,1.6-0.1,2.3,0H95c2,0.1,0-0.3,2.2,0c0.7,0.2,0.8-0.4,1.9-0.3l1.1,0.4
							c1.7,0,3.4,0,5.1-0.2c1.4,0.2,2,0.5,1.1,0.8c0.7-0.3,1.4-0.4,2.2-0.4c0.3,0.2,0,0.2-0.3,0.3c1.5,0.2,0.9-0.1,2-0.1
							c0.3-0.3,0.7-0.7,1-0.8l-0.4-0.1c1.3-0.1,2.5-0.1,3.8,0v0.1h1.4l0.1,0.2h2H118c1-0.1,2-0.1,3,0v0.1c2.6,0.1,5.1,0.1,7.7-0.1
							l-0.4,0.2c1,0.2,0.3-0.3,1.5-0.2v0.3c1.1-0.3,1.4,0,2.1,0.2l-0.3-0.3h1.4c1.5,0.1,0.9,0.4,0.7,0.6l1-0.3l0.2,0.3
							c0.8-0.3,0.8,0,2-0.1c0.1,0.1-0.2,0.2,0.2,0.2l2.2-0.4l-1.3,0.2l0.2-0.4c1-0.1,1.9-0.1,2.9,0l-0.7,0.1c0.9-0.1,1.8,0,2.6,0.2
							c-0.3,0-0.7-0.2,0-0.3s0.3,0.2,0.7,0.2c0.1-0.3,1.3-0.4,2.3-0.3c0,0-0.1,0.1-0.1,0.1c0.3-0.1,0.6-0.1,0.9,0l-0.3,0.3l0.9-0.3
							c0.6,0,1.5-0.2,1.4,0h-0.3h4.5v0.3c0.4-0.4,2.5,0.1,2.3-0.3c0.9,0.2,3.4-0.2,2.9,0.3c3,0,4.6-0.4,8.2-0.2
							c2.4,0.3,4.8,0.5,7.1,0.3c4.5-0.2,7.5-0.3,12.1-0.5c2.8,0.6,7-0.2,10,0.1l0.8-0.2c2,0.4,5,0,7.8,0.3l1.2-0.1
							c-0.1,0-0.3,0-0.4-0.2c0.8,0,2.4,0,2.3,0.3h-0.2c-0.1,0.3,2.4-0.1,3.3,0.1l-0.5-0.3h1.5h-0.4c6.6-0.7,9.5,0.3,15.7-0.4
							c-0.8,0.4,1.2-0.2,1.3,0.2c1.4,0.2,2.8,0.2,4.2-0.2l0,0h2.2c-1.3,0.5,1.6-0.4,0.4,0c5.8,0.4,13.4,0,20.2,0.2l-0.3-0.1
							c1.7-0.1,3.4-0.1,5.1,0c1.1,0,2.2-0.1,3.3-0.3c1.4-0.2,2.7,0.2,2,0.2c1.7-0.2,3.4-0.4,5.1-0.3c0.7,0.4,5.8-0.4,5.8,0l0,0
							c2.7,0.3,5.3-0.2,8.2,0h-0.2l6-1.4l-1.7-1.5l-5.1-1.2l-14,0.3l-11.1-0.5l-27,0.2l-2,0.3c-5.3-0.6-12.1,0.1-17.8-0.3l-0.1,0.3
							c-0.6,0.1-1.3,0-1.9-0.2c-15,0-30.4,0.5-44,0c-1.3-0.2-5.3,0-6.3-0.3c-4.4,0.4-9,0.4-13.4,0.3h0.2h-2l0,0
							c-2.9,0.2-5.9,0.3-8.9,0.2h0.2c-16.7,0-32.1,0.5-48.7,0c-7.7-0.5-16.6,0.2-25.4-0.2C59.5,196.8,41.7,197.1,40.1,197.2z"/>
						<path class="st2" d="M13.9,197.6L13.9,197.6C13.9,197.5,13.8,197.5,13.9,197.6z"/>
						<polygon class="st2" points="50.7,201 50.6,201 51,201.2 						"/>
						<path class="st2" d="M27.1,201.1c1.1,0,1.1,0,1,0C27.8,201.1,27.4,201.1,27.1,201.1L27.1,201.1z"/>
						<path class="st2" d="M5.2,197.8c-0.6,0-0.3,0,0,0.2h1L5.2,197.8z"/>
						<path class="st2" d="M7.5,199.6H7.3C7.6,199.6,7.6,199.6,7.5,199.6z"/>
					</g>
					<g transform="translate(12.703704, 12.296296)" class="st1">
						<path class="st2" d="M10.1,245.6c0.2-0.2,0.2-0.4,0.2-0.7C10.1,245.1,10.1,245.4,10.1,245.6z"/>
						<polygon class="st2" points="10.4,245 10.4,245 10.3,245 						"/>
						<path class="st2" d="M9.6,232.9H9.3c0-0.6,0.3-0.2,0.2-0.7c-0.4-0.2,0-0.9-0.3-1.1c-0.3-0.2,0-0.3,0.1-0.3
							c-0.2,0-0.1-0.3-0.2-0.4c-0.1-0.2,0,0-0.1,0.1L8.9,230c0-0.1,0.2-0.2,0.2,0c0-1-0.4-5.9-0.7-7c-0.1,0.1,0,0.5-0.2,0.6
							c-0.1-0.3,0-0.4-0.1-0.6c0.3-0.1,0-0.6,0.3-0.8H8.3v-0.2c-0.2-0.4-0.2-0.9-0.2-1.4c-0.1-0.4-0.2-0.9-0.3-1.3c0,0,0,0.2-0.1,0
							c-0.1-0.2-0.1-0.5,0-0.5c0.1-0.1,0-0.7-0.2-0.5c-0.2,0.2,0-0.6,0.2-0.3c0-0.1,0-0.3,0-0.4v0.2c0-0.5,0-0.8-0.2-1.2v0.2
							c0-0.3,0-0.6,0-0.7v0.3c-0.1-0.4-0.1-0.9-0.2-1.3v0.2c-0.2-0.6-0.6-3.6-0.8-4.1v0.2L6.3,211c0,0,0.3,0.2,0.3,0.3
							c-0.1-1-0.6-6-0.6-6.9c0-0.4,0,0,0,0c0-0.4,0-0.2,0-0.6s0,0,0,0c0-0.1,0-0.2,0-0.3c0,0.2,0,0.1,0,0.2v-0.5h0
							c-0.1-0.2-0.1-0.5-0.1-0.7c0-0.9-0.1-1.6-0.2-2.5c0,0.1,0,0.2,0,0.4v-0.4c0,0.2,0-0.3,0-0.2c0-0.6-0.1-1.3-0.2-1.9
							c-0.1-0.4-0.2-0.7-0.2-1.1v-0.4v0.5l0,0v0.5v-0.6v0.7v0.3c0,0.2,0,0.4,0,0.8l0,0c0,0.8,0,0.7-0.2,1.5l0,0c0,0.5,0,0.4-0.1,1
							c0-0.1,0-0.2,0,0c0,0.6,0,0.4-0.1,1v0.3c-0.2,1.4-0.8,7.2-0.9,8.6l0,0c-0.2,2.2-0.7,6.8-0.8,9.1c-0.1,0.4-0.2,0.8-0.3,1.2
							c0-0.2,0.2-0.1,0.1,0c-0.1,1.1,0,0,0,1.2c-0.3,2.5-0.6,5-1.2,7.4c0.2,0.6,0,1.4,0,2l0,0c0,0.7-0.6,4.4-0.5,5.2v-0.1
							c0.1,0.7-0.2,0.6-0.4,1.1c0.3,0,0.5,0.5,0.5,0.7l0,0c0.1,0.5,0.2,1.1,0.3,1.6H1.7c0.1,0.5,0.1,1.1,0,1.6
							c-0.3,0.9-0.5,1.9-0.4,2.9l-0.7,0.6v0.1c0,0,1.9,0.3,4,0.4c1.8,0.2,3.5,0,5.2-0.6H10V245c0-0.3-0.2-0.5,0-0.4v0.4
							c0-0.3,0.2,0,0.3,0c0-0.1,0-0.2,0-0.4c0,0,0,0-0.1,0s-0.3-0.4-0.2-0.6c0.1-0.2,0.3,0,0.3-0.4c0-1.9-0.1-3.9-0.3-5.8
							c0,0,0,0,0.1,0c-0.1-0.6-0.2-1.1-0.3-1.7c0-0.1,0.1-0.2,0.2-0.2c-0.2-0.5-0.3-1-0.3-1.5c0-0.4,0-0.8-0.1-1.1
							C9.5,233,9.6,232.9,9.6,232.9z"/>
					</g>
				</g>
			</g>
		</g>
	</g>
</g>
</svg>
