<svg xmlns="http://www.w3.org/2000/svg" width="173.667" height="177.667"><path fill="#FFF" d="M4.9 7.792h159.362v161.786H4.9z"/><g fill="#151515"><path d="M8.994 164.088a79.963 79.963 0 00-.081 4.325c.065-.993.071-2.705.081-4.325zM8.996 164.056l-.001-.025-.001.057.002-.032zM164.462 6.295l1.334-.004-1.334.004z"/><path d="M9.153 9.392l.004-.025.008-.045.033.004.018.002.307.002c4.223-.012 6.23-.125 8.58-.084-.349-.001-1.28-.051-.187-.072.187.072 2.912-.051 3.445.021 1.072-.009 4.543 0 3.368-.098.589.049 3.687.069 1.843.111 1.045.003 2.057.017 2.809-.004l-1.341-.027c3.529-.014 5.452.061 7.75-.027l-1.304-.039c2.11-.006 3.874-.014 4.702.083l-2.166.03a463.77 463.77 0 008.525-.06l-1.041-.003c3.715-.097 23.151-.176 26.574-.297l-1.577-.075 2.944-.063c-.348-.001-1.421.244-1.713.219l44.948-.015c2.351.042.423.119.396.131 2.86-.028 1.234-.08 3.666-.073.664.014-.138.059-.511.07 1.066-.009 2.054.017 2.136-.018-1.333-.027-.769-.12-1.333-.181l3.129.008-.139.059c.698.002 1.769-.161 4.843-.129l16.03.018c-.081.035-1.176.056-2.273.077.699.002 1.764-.007 2.408.018-1.259-.062 2.188-.041 1.204-.068 3.819-.144 8.76-.012 12.13-.11.295-.129 7.218-2.22 7.218-2.374l2.408.018c-.27-.036-2.327-.053-3.421-.033l-.189.082c-2.516.029-.589-.049-3.045-.043-.131-.067 2.129-.082 4.119-.088-1.792-.008-3.577-.057-4.306.017-1.684-.028.187-.082-1.841-.111-1.445.02-3.342.086-5.002.046l.029-.012c-4.035-.07-6.173.102-9.86.033l.397-.022-6.219-.028c.671.014 1.253.062-.16.07-2.703-.042-4.547 0-6.523-.052l-1.896.066-56.034.091.37-.011-58.852.12-3.375-.049-4.905-.014-.006 1.76c.027-2.457.073-1.545.07.326l.004 3.665c.004.505.011.569.019.636.016.134.036.278.05 3.979.06 8.523-.008 41.139-.064 48.704.096 4.064.023 9.137.084 13.118l-.023-.401-.018 33.45.014-.668c.059 4.333-.045 3.743-.078 7.158.108-.449.168 3.265.177 4.681l-.024-.054.126 10.5-.059-.138c.063 2.941.037 8.472.043 10.585-.024 4.835-.127 12.29-.049 18.755l-.168 4.176.017.611s2.023 6.726 2.454-1.812l.059.136-.008-1.688c.029-2.025-.039-2.962.019-2.824l-.007 2.775c.017-2.035.048-.614.081.163l.031-2.351c-.023-.401-.024.295-.037.611-.021-1.095-.076-2.619-.049-3.952.006-2.084.095-.133.101-2.564l.1-38.209c.024-.295.023.056.034.431l-.042-10.931c.026-.988.062-1.257.087-1.549-.024.293-.038-4.616-.043-9.638l.004-10.318-.106-.247c-.002-3.845.121-1.119.095-4.674-.15-1.391.016-5.905-.064-7.133l.019-.832c.008-.418.021-.825.045-.77-.081-.533-.019-1.79-.04-2.888-.023-.398-.024.292-.049.589l-.029-2.515c.026-.983.074-1.226.083-.157L9.2 21.733c-.061.91-.02 3.095-.117 3.926-.054-1.871.019-2.755-.038-3.58.144-.718.034-4.113.18-5.53l-.081-.537.05-.93-.05-4.821.007-.592.002-.277zM105.795 168.605c-.128-.005-.191.004 0 0zM165.83 131.708l-.001-.097a36.853 36.853 0 00-.067-.199l.068.296zM165.995 115.773l.007-.097c-.015.008-.031-.011-.007.097zM76.593 168.746l.07-.002-.171-.016.101.018zM76.663 168.744c.388.036.776.039 1.17.022-.003-.041-.745-.035-.919-.065.351.02-.097.038-.251.043zM168.086 166.862l.01.24a1.79 1.79 0 00-.01-.24zM31.981 168.901l.092-.065c-.081.027-.1.047-.092.065zM166.037 101.05c.02-.006.036-.039.049-.078v-.042l-.049.12zM167.044 26.874l.046.296a3.23 3.23 0 00-.021-.336.114.114 0 00-.025.04zM166.319 80.853c-.007-.018-.014-.066-.023-.069-.022.345-.027 1.256-.024 2.421l.08.071-.033-2.423z"/><path d="M168.177 58.767l-.16 2.153c-.074-6.91.087-10.134-.042-16.049l.035.328c.037-.861-.323-1.347.117-10.858h.016c-.003-.33-.035-.328.008-.987l-.098 1.644c-.04-.985-.117-1.846-.128-3.159.018-.279.051-.374.076-.402l-.027-3.221.104-.987c-.056-.985-.275-.536-.153-3.169-.152.993-.091-1.307-.168-.982l.073-.678c-.018-1.566-.06-4.516-.138-5.245 0 0-.319 6.128-.481 7.776.041-2.205-.019-.582-.07-.147l.038.147c-.037 1.321-.133 1.321-.159 1.981.008 0 .017-.02.027-.038l-.013-.084c.017-.062.029-.026.038.045.02-.016.037.045.031.405l-.01-.069c.014.552-.001 1.505-.008 1.919l-.08.008c.152.979-.232 6.582-.237 7.896-.101 1.321.025 2.959-.025 4.608-.026 2.628-.117 1.315-.186 2.634-.05 1.648.093-.333.099.328l-.111 1.974c-.01-1.147-.058-.525-.089-.315-.014 1.707-.16 4.397-.001 4.923-.076 2.302-.14 2.308-.148 3.295.029-.331.055-.987.088-.993-.07.922.017.441.033.063.069 1.407-.291 7.3-.116 7.596h-.032c.13.327.257-.198.329.784l-.058.655.056.987c-.042.662-.077.336-.093.336.06 1.608-.012 3.851-.029 5.799l.356-2.063c-.082 1.643-.249 4.607-.134 4.935l-.12.987c-.228 3.294.099 2.3.03 3.615l-.13 1.655.002-1.646c-.066 1.646-.109 2.305-.193 3.618l.003.014a.68.68 0 01.019-.161l.003.23c.065.2.109 1.058.105 2.218-.018 1.647.078 2.935-.06 5.566l.133.656-.079 1.975h-.106l-.039-8.063-.048-.044.037 4.127c-.021.475-.131 1.691-.203.809l.104.911c.012 4.923.017 4.954-.103 10.091l.053-.446c.031 1.019.062 2.035-.024 2.319-.018 3.084-.084 6.28-.219 8.283l.125.438c-.007.651-.196 1.628-.021 1.945l.055 1.392c-.01.89.062 1.436-.01 2.449v.006l-.015.191.01-.011c-.055 2.015.112-.02.04 2.287-.089.74.159.819.13 1.943l-.179 1.129c-.103 2.037.077 2.386.077 5.337-.064 1.417-.217 2.102-.352 1.163.164 1.291.107.587.186 2.3-.068.263-.082.081-.143-.297-.079 1.521.061.938.057 2.085.127.333.33.717.338 1.09l.04-.444c.068 1.214.1 2.54.036 3.952l-.064-.053.032 1.502-.082.094.025 2.145.022-.294c.011.504.039 2.157-.004 3.103l-.045-.034c-.142 2.668.044 4.867.059 7.992l-.093-.41c-.092 1.064.143.292.097 1.56l-.114.063c.15 1.117-.032 1.444-.088 2.213l.149-.36-.031 1.449c-.05 1.596-.189.979-.267.746l.118 1.087-.132.212c.153.794-.025.794.058 2.186-.05.115-.078-.237-.1.236l.186 2.294-.082-1.384.193.168c.146 1.441-.021 1.953.033 2.982l-.057-.709c.047 1.68-.035 1.77-.078 2.718.036-.294.089-.744.114-.063.011.499-.068.271-.089.743.064.056.113.386.139.838a13.31 13.31 0 01.014 1.103l-.017.133a.114.114 0 01-.047-.05c.02.082.052.157.025.277l-.01-.002-.005-.014a1.523 1.523 0 00-.129-.178l.037.087a.275.275 0 01-.104.098.59.59 0 00-.151-.008l-.422.013c-.295.009-.502.011-.461-.037l.354-.029-4.718-.034-.066-.114c-.466.157-2.57-.06-2.415.136-.89-.107-3.504.076-2.98-.146-3.1-.017-4.774.196-8.542.088-1.342-.188-5.019-.127-7.438-.147l-12.615.209c-2.906-.262-7.249.09-10.376-.058l-.857.104c-2.078-.166-5.252.037-8.169-.124l-1.256.064c.132.005.333.025.397.091-.833-.046-2.517.012-2.397-.12l.212-.014c.122-.132-2.527.062-3.457-.053l.51.141-1.577-.024.422-.027c-6.852.314-9.948-.135-16.382.152.853-.154-1.268.081-1.352-.088-1.622-.212-3.006.046-4.337.102 0 .008-.016.018-.092.031l-2.326-.02c1.389-.213-1.675.177-.399-.005-6.064-.159-13.978.003-20.998-.07l.308.055c-1.78-.01-3.995.056-5.345-.031-1.352-.087-2.955.139-3.479.148-1.287.082-2.468-.049-2.34-.078-1.529.035-2.993.213-5.12.132-.751-.181-5.994.177-6.06-.026l-.024.017c-2.814-.143-5.468.101-8.498-.029l.16-.029-6.167.618 1.756.68 5.346.552 14.486-.12 11.562.216 28.138-.073 2.009-.153c5.529.268 12.619-.04 18.576.151l.123-.132c1.679-.008 1.565.074 1.98.097 15.621-.029 31.702-.205 45.757-.039 1.355.087 5.477.036 6.54.128 2.167-.077 4.394-.117 6.625-.136l7.707-.01.002-1.287.015.326-.025-2.782c.011-.091.027-.102.037-.033-.117-2.428-.001-6.254.046-9.228l.014.174c.024-17.349-.222-33.455-.038-50.662.215-8-.082-17.307.098-26.485.127-1.685.029-20.254-.033-21.894z"/><path d="M168 31.436l.001.072c.055-.004.034-.11-.001-.072zM166.48 69.79l.002-.121-.079.456zM166.453 46.222c.003-.399-.001-.749-.018-1-.018 1.104-.004 1.156.018 1zM167.894 22.418c.004-.58-.029-.359-.066-.018l.01 1.003.056-.985zM167.139 24.784l-.045-.181c.011.341.028.327.045.181zM105.356 157.827l.048-.001a.824.824 0 01.099-.067l-.147.068zM113.248 157.992l.048.007c-.004-.016.006-.032-.048-.007zM41.832 158.162l.034-.002c-.028-.005-.056-.009-.085-.016l.051.018zM41.866 158.16c.192.036.385.039.579.022-.001-.041-.369-.035-.455-.065.175.019-.048.037-.124.043zM120.539 158.034c.003.02.019.036.039.049h.021l-.06-.049zM157.274 159.041l-.147.046a.806.806 0 00.166-.021c-.002-.008-.009-.016-.019-.025zM130.542 158.315c.009-.008.033-.014.034-.023-.171-.022-.622-.027-1.199-.024l-.035.08 1.2-.033zM25.275 158.211c.025-.001.049-.005.073-.006a.192.192 0 00-.073.006z"/><path d="M28.96 160.221l13.935-.073.995-.153c2.738.268 6.25-.04 9.2.151l.061-.132c.831-.008.775.074.98.097 7.736-.029 15.7-.205 22.66-.039.671.087 2.712.036 3.239.128 2.261-.161 4.656-.16 6.919-.143l-.086.014 1.066-.025c.045.011.051.027.017.037 1.203-.117 3.097-.001 4.57.046l-.086.014c8.592.024 16.568-.222 25.089-.038 3.962.215 8.571-.082 13.116.097.834.131 10.03.033 10.843-.029l-1.066-.16c3.422-.074 5.019.087 7.948-.042l-.162.035c.426.037.667-.323 5.377.117v.016c.163-.003.162-.035.489.008l-.814-.098c.488-.04.914-.117 1.564-.128.138.018.185.051.199.076l1.595-.027.489.104c.488-.056.265-.275 1.57-.153-.492-.152.647-.091.486-.168.066.019.215.047.336.073.775-.018 2.236-.06 2.598-.138 0 0-3.035-.319-3.851-.482 1.092.041.288-.019.073-.07l-.073.038c-.654-.037-.654-.133-.981-.159 0 .008.01.017.019.027l.042-.013c.031.017.013.029-.022.038.008.02-.022.037-.2.031l.034-.01c-.273.014-.745-.001-.951-.008l-.004-.08c-.485.152-3.26-.232-3.911-.237-.654-.101-1.465.025-2.282-.026-1.301-.026-.651-.117-1.304-.186-.816-.05.165.093-.162.099l-.978-.111c.568-.01.26-.058.156-.089-.845-.014-2.178-.16-2.438-.001-1.14-.076-1.143-.14-1.632-.148.164.029.489.055.492.088-.457-.07-.218.017-.031.033-.697.069-3.615-.291-3.762-.116v-.032c-.162.13.098.257-.388.329l-.325-.058-.489.056c-.328-.042-.167-.077-.167-.093-.796.06-1.907-.012-2.872-.029l1.022.356c-.814-.082-2.282-.249-2.444-.134l-.489-.12c-1.632-.228-1.139.099-1.79.03l-.819-.13.815.002c-.815-.066-1.142-.109-1.792-.193l-.007.003c.045.005.074.012.08.019l-.114.003c-.099.065-.524.109-1.099.105-.816-.018-1.454.078-2.756-.06l-.325.133-.978-.079v-.106c.958.006 2.761-.034 3.993-.039l.022-.048c-.73 0-1.561.047-2.044.037-.235-.021-.837-.131-.4-.203l-.451.104c-2.438.012-2.454.017-4.998-.103l.221.053c-.505.031-1.008.062-1.148-.025-1.528-.017-3.11-.084-4.102-.218l-.217.125c-.323-.007-.806-.196-.963-.021l-.689.055c-.441-.01-.711.062-1.213-.01h-.003a1.695 1.695 0 01-.095-.015c0 .004.003.007.006.01-.998-.055.01.112-1.133.04-.367-.089-.405.158-.962.13l-.559-.179c-1.009-.103-1.182.077-2.643.077-.702-.064-1.041-.217-.576-.352-.639.164-.291.107-1.139.186-.13-.067-.04-.082.147-.143-.753-.079-.465.061-1.033.057-.165.127-.355.33-.54.338l.22.04c-.601.068-1.258.1-1.957.036l.026-.064-.744.032-.047-.082-1.062.025.146.022c-.249.011-1.068.039-1.537-.004l.017-.045c-1.321-.142-2.41.044-3.958.059l.203-.093c-.527-.092-.144.143-.773.097l-.031-.114c-.553.15-.715-.032-1.096-.088l.178.149-.718-.031c-.79-.05-.485-.189-.369-.267l-.538.118-.105-.132c-.393.153-.393-.025-1.082.058-.057-.05.118-.078-.117-.1l-1.136.186.685-.082-.083.193c-.714.146-.967-.021-1.477.033l.351-.057c-.832.047-.876-.035-1.346-.078.146.036.368.089.031.114-.247.011-.134-.068-.368-.089-.056.128-.653.196-1.194.136.007-.018.018-.036.053-.048-.138.021-.21.054-.45.023l.142-.143-.463.136c-.308-.039-.758.064-.718-.032l.175-.029-2.337-.034-.032-.114c-.231.157-1.273-.06-1.196.136-.441-.107-1.735.076-1.476-.146-1.535-.017-2.364.196-4.23.088-.664-.188-2.486-.127-3.683-.147-2.341.078-3.854.149-6.247.209-1.439-.262-3.59.09-5.138-.058l-.424.104c-1.029-.166-2.601.037-4.045-.124-.354.045-.54.06-.622.064.066.005.165.025.196.091-.412-.046-1.247.012-1.187-.12l.105-.014c.061-.132-1.252.062-1.712-.053l.252.141-.781-.024.209-.027c-3.393.314-4.926-.135-8.113.152.422-.154-.628.081-.67-.088-.804-.212-1.489.046-2.148.102 0 .008-.008.018-.046.031l-1.152-.02c.688-.213-.829.177-.198-.005-3.003-.159-6.922.003-10.399-.071l.152.055c-.882-.01-1.978.056-2.647-.031-.669-.087-1.463.139-1.723.148-.637.082-1.222-.049-1.159-.078-.757.035-1.482.213-2.536.132-.372-.181-2.968.177-3.001-.026l-.012.017c-1.393-.143-2.708.101-4.209-.029 0 0 .029-.015.079-.029l-3.054.618.87.68 2.647.552 7.174-.12 5.73.216z"/><path d="M155.014 159.997l-.035.001c.002.055.054.034.035-.001zM136.02 158.477l.06.001-.226-.078.166.077zM147.692 158.45c.198.003.371-.001.495-.018-.547-.018-.572-.005-.495.018zM159.48 159.891c.287.004.178-.029.009-.066a60 60 0 01-.497.01c.162.013.323.043.488.056zM158.309 159.136l.09-.045c-.17.011-.163.028-.09.045z"/></g><path fill="#EDEDED" d="M14.216 19.154h143.045v128.705H14.216z"/></svg>