<?xml version="1.0" encoding="utf-8"?>
<!-- Generator: Adobe Illustrator 17.0.0, SVG Export Plug-In . SVG Version: 6.00 Build 0)  -->
<!DOCTYPE svg PUBLIC "-//W3C//DTD SVG 1.1//EN" "http://www.w3.org/Graphics/SVG/1.1/DTD/svg11.dtd">
<svg version="1.1" id="photo-frame" xmlns="http://www.w3.org/2000/svg" xmlns:xlink="http://www.w3.org/1999/xlink" x="0px"
	 y="0px" width="173.667px" height="177.667px" viewBox="0 0 173.667 177.667" enable-background="new 0 0 173.667 177.667"
	 xml:space="preserve">
<g id="polaroid">
	<rect id="bg" x="4.9" y="7.792" fill="#FFFFFF" width="159.362" height="161.786"/>
	<g id="outlines">
		<path fill="#151515" d="M8.994,164.088c-0.061,1.247-0.088,2.574-0.081,4.325C8.978,167.42,8.984,165.708,8.994,164.088z"/>
		<path fill="#151515" d="M8.996,164.056c0,0-0.001-0.018-0.001-0.025c0,0.022,0,0.038-0.001,0.057
			C8.995,164.075,8.995,164.066,8.996,164.056z"/>
		<path fill="#151515" d="M164.462,6.295c0.468-0.001,0.929-0.003,1.334-0.004C165.359,6.292,164.909,6.293,164.462,6.295z"/>
		<path fill="#151515" d="M9.153,9.392l0.004-0.025c0.002-0.011,0.004-0.025,0.008-0.045l0.033,0.004l0.018,0.002
			c0.097,0.001,0.199,0.001,0.307,0.002c4.223-0.012,6.23-0.125,8.58-0.084c-0.349-0.001-1.28-0.051-0.187-0.072
			c0.187,0.072,2.912-0.051,3.445,0.021c1.072-0.009,4.543,0,3.368-0.098c0.589,0.049,3.687,0.069,1.843,0.111
			c1.045,0.003,2.057,0.017,2.809-0.004L28.04,9.177c3.529-0.014,5.452,0.061,7.75-0.027l-1.304-0.039
			c2.11-0.006,3.874-0.014,4.702,0.083l-2.166,0.03c3.499-0.003,5.609-0.009,8.525-0.06l-1.041-0.003
			c3.715-0.097,23.151-0.176,26.574-0.297l-1.577-0.075l2.944-0.063c-0.348-0.001-1.421,0.244-1.713,0.219
			c6.308-0.002,39.101-0.013,44.948-0.015c2.351,0.042,0.423,0.119,0.396,0.131c2.86-0.028,1.234-0.08,3.666-0.073
			c0.664,0.014-0.138,0.059-0.511,0.07c1.066-0.009,2.054,0.017,2.136-0.018c-1.333-0.027-0.769-0.12-1.333-0.181l3.129,0.008
			l-0.139,0.059c0.698,0.002,1.769-0.161,4.843-0.129c5.191,0.006,10.815,0.012,16.03,0.018c-0.081,0.035-1.176,0.056-2.273,0.077
			c0.699,0.002,1.764-0.007,2.408,0.018c-1.259-0.062,2.188-0.041,1.204-0.068c3.819-0.144,8.76-0.012,12.13-0.11
			c0.295-0.129,7.218-2.22,7.218-2.374c1.042,0.008,2.065,0.016,2.408,0.018c-0.27-0.036-2.327-0.053-3.421-0.033l-0.189,0.082
			c-2.516,0.029-0.589-0.049-3.045-0.043c-0.131-0.067,2.129-0.082,4.119-0.088c-1.792-0.008-3.577-0.057-4.306,0.017
			c-1.684-0.028,0.187-0.082-1.841-0.111c-1.445,0.02-3.342,0.086-5.002,0.046l0.029-0.012c-4.035-0.07-6.173,0.102-9.86,0.033
			l0.397-0.022c-1.356-0.006-3.84-0.017-6.219-0.028c0.671,0.014,1.253,0.062-0.16,0.07c-2.703-0.042-4.547,0-6.523-0.052
			l-1.896,0.066c-9.41,0.015-46.581,0.076-56.034,0.091l0.37-0.011C59.014,6.411,29.471,6.471,14.561,6.501
			c-1.031-0.015-2.188-0.032-3.375-0.049C9.527,6.447,7.831,6.443,6.281,6.438c-0.002,0.606-0.004,1.194-0.006,1.76
			c0.027-2.457,0.073-1.545,0.07,0.326c0.002,2.044,0.004,3.098,0.004,3.665c0.004,0.505,0.011,0.569,0.019,0.636
			c0.016,0.134,0.036,0.278,0.05,3.979c0.06,8.523-0.008,41.139-0.064,48.704c0.096,4.064,0.023,9.137,0.084,13.118l-0.023-0.401
			c-0.002,4.29-0.016,28.469-0.018,33.45l0.014-0.668c0.059,4.333-0.045,3.743-0.078,7.158c0.108-0.449,0.168,3.265,0.177,4.681
			l-0.024-0.054c0.025,2.127,0.084,6.996,0.126,10.5l-0.059-0.138c0.063,2.941,0.037,8.472,0.043,10.585
			c-0.024,4.835-0.127,12.29-0.049,18.755l-0.168,4.176l0.017,0.611c0,0,2.023,6.726,2.454-1.812l0.059,0.136l-0.008-1.688
			c0.029-2.025-0.039-2.962,0.019-2.824l-0.007,2.775c0.017-2.035,0.048-0.614,0.081,0.163c0.011-0.844,0.022-1.657,0.031-2.351
			c-0.023-0.401-0.024,0.295-0.037,0.611c-0.021-1.095-0.076-2.619-0.049-3.952c0.006-2.084,0.095-0.133,0.101-2.564
			c0.034-12.826,0.066-25.254,0.1-38.209c0.024-0.295,0.023,0.056,0.034,0.431c-0.015-3.91-0.029-7.368-0.042-10.931
			c0.026-0.988,0.062-1.257,0.087-1.549c-0.024,0.293-0.038-4.616-0.043-9.638C9.178,90.857,9.18,85.733,9.18,85.561l-0.106-0.247
			c-0.002-3.845,0.121-1.119,0.095-4.674c-0.15-1.391,0.016-5.905-0.064-7.133c0.001-0.059,0.009-0.42,0.019-0.832
			c0.008-0.418,0.021-0.825,0.045-0.77c-0.081-0.533-0.019-1.79-0.04-2.888c-0.023-0.398-0.024,0.292-0.049,0.589l-0.029-2.515
			c0.026-0.983,0.074-1.226,0.083-0.157C9.143,60.358,9.19,28.822,9.2,21.733c-0.061,0.91-0.02,3.095-0.117,3.926
			c-0.054-1.871,0.019-2.755-0.038-3.58c0.144-0.718,0.034-4.113,0.18-5.53l-0.081-0.537l0.05-0.93
			c-0.038-3.663-0.046-4.441-0.05-4.821c0.002-0.19,0.003-0.284,0.007-0.592C9.151,9.591,9.152,9.501,9.153,9.392z"/>
		<path fill="#151515" d="M105.795,168.605C105.667,168.6,105.604,168.609,105.795,168.605L105.795,168.605z"/>
		<path fill="#151515" d="M165.83,131.708c0-0.039,0-0.058-0.001-0.097c-0.026-0.078-0.049-0.146-0.067-0.199L165.83,131.708z"/>
		<path fill="#151515" d="M165.995,115.773c0.003-0.038,0.005-0.062,0.007-0.097C165.987,115.684,165.971,115.665,165.995,115.773z"
			/>
		<path fill="#151515" d="M76.593,168.746c0,0,0.04-0.001,0.07-0.002c-0.056-0.005-0.106-0.01-0.171-0.016L76.593,168.746z"/>
		<path fill="#151515" d="M76.663,168.744c0.388,0.036,0.776,0.039,1.17,0.022c-0.003-0.041-0.745-0.035-0.919-0.065
			C77.265,168.721,76.817,168.739,76.663,168.744z"/>
		<path fill="#151515" d="M168.086,166.862c0.003,0.08,0.007,0.162,0.01,0.24C168.097,166.978,168.092,166.91,168.086,166.862z"/>
		<path fill="#151515" d="M31.981,168.901l0.092-0.065C31.992,168.863,31.973,168.883,31.981,168.901z"/>
		<path fill="#151515" d="M166.037,101.05c0.02-0.006,0.036-0.039,0.049-0.078c0-0.018,0-0.032,0-0.042L166.037,101.05z"/>
		<path fill="#151515" d="M167.044,26.874l0.046,0.296c-0.004-0.156-0.011-0.265-0.021-0.336
			C167.062,26.84,167.053,26.853,167.044,26.874z"/>
		<path fill="#151515" d="M166.319,80.853c-0.007-0.018-0.014-0.066-0.023-0.069c-0.022,0.345-0.027,1.256-0.024,2.421l0.08,0.071
			L166.319,80.853z"/>
		<path fill="#151515" d="M168.177,58.767l-0.16,2.153c-0.074-6.91,0.087-10.134-0.042-16.049l0.035,0.328
			c0.037-0.861-0.323-1.347,0.117-10.858h0.016c-0.003-0.33-0.035-0.328,0.008-0.987l-0.098,1.644
			c-0.04-0.985-0.117-1.846-0.128-3.159c0.018-0.279,0.051-0.374,0.076-0.402l-0.027-3.221l0.104-0.987
			c-0.056-0.985-0.275-0.536-0.153-3.169c-0.152,0.993-0.091-1.307-0.168-0.982c0.017-0.157,0.047-0.435,0.073-0.678
			c-0.018-1.566-0.06-4.516-0.138-5.245c0,0-0.319,6.128-0.481,7.776c0.041-2.205-0.019-0.582-0.07-0.147l0.038,0.147
			c-0.037,1.321-0.133,1.321-0.159,1.981c0.008,0,0.017-0.02,0.027-0.038l-0.013-0.084c0.017-0.062,0.029-0.026,0.038,0.045
			c0.02-0.016,0.037,0.045,0.031,0.405l-0.01-0.069c0.014,0.552-0.001,1.505-0.008,1.919l-0.08,0.008
			c0.152,0.979-0.232,6.582-0.237,7.896c-0.101,1.321,0.025,2.959-0.025,4.608c-0.026,2.628-0.117,1.315-0.186,2.634
			c-0.05,1.648,0.093-0.333,0.099,0.328l-0.111,1.974c-0.01-1.147-0.058-0.525-0.089-0.315c-0.014,1.707-0.16,4.397-0.001,4.923
			c-0.076,2.302-0.14,2.308-0.148,3.295c0.029-0.331,0.055-0.987,0.088-0.993c-0.07,0.922,0.017,0.441,0.033,0.063
			c0.069,1.407-0.291,7.3-0.116,7.596h-0.032c0.13,0.327,0.257-0.198,0.329,0.784l-0.058,0.655l0.056,0.987
			c-0.042,0.662-0.077,0.336-0.093,0.336c0.06,1.608-0.012,3.851-0.029,5.799l0.356-2.063c-0.082,1.643-0.249,4.607-0.134,4.935
			l-0.12,0.987c-0.228,3.294,0.099,2.3,0.03,3.615l-0.13,1.655l0.002-1.646c-0.066,1.646-0.109,2.305-0.193,3.618l0.003,0.014
			c0.005-0.091,0.012-0.149,0.019-0.161l0.003,0.23c0.065,0.2,0.109,1.058,0.105,2.218c-0.018,1.647,0.078,2.935-0.06,5.566
			l0.133,0.656l-0.079,1.975h-0.106c-0.009-1.933-0.027-5.579-0.039-8.063l-0.048-0.044c0.013,1.467,0.028,3.152,0.037,4.127
			c-0.021,0.475-0.131,1.691-0.203,0.809l0.104,0.911c0.012,4.923,0.017,4.954-0.103,10.091l0.053-0.446
			c0.031,1.019,0.062,2.035-0.024,2.319c-0.018,3.084-0.084,6.28-0.219,8.283l0.125,0.438c-0.007,0.651-0.196,1.628-0.021,1.945
			l0.055,1.392c-0.01,0.89,0.062,1.436-0.01,2.449l0,0.006c-0.005,0.061-0.01,0.124-0.015,0.191l0.01-0.011
			c-0.055,2.015,0.112-0.02,0.04,2.287c-0.089,0.74,0.159,0.819,0.13,1.943l-0.179,1.129c-0.103,2.037,0.077,2.386,0.077,5.337
			c-0.064,1.417-0.217,2.102-0.352,1.163c0.164,1.291,0.107,0.587,0.186,2.3c-0.068,0.263-0.082,0.081-0.143-0.297
			c-0.079,1.521,0.061,0.938,0.057,2.085c0.127,0.333,0.33,0.717,0.338,1.09l0.04-0.444c0.068,1.214,0.1,2.54,0.036,3.952
			l-0.064-0.053l0.032,1.502l-0.082,0.094l0.025,2.145l0.022-0.294c0.011,0.504,0.039,2.157-0.004,3.103l-0.045-0.034
			c-0.142,2.668,0.044,4.867,0.059,7.992l-0.093-0.41c-0.092,1.064,0.143,0.292,0.097,1.56l-0.114,0.063
			c0.15,1.117-0.032,1.444-0.088,2.213l0.149-0.36l-0.031,1.449c-0.05,1.596-0.189,0.979-0.267,0.746l0.118,1.087l-0.132,0.212
			c0.153,0.794-0.025,0.794,0.058,2.186c-0.05,0.115-0.078-0.237-0.1,0.236l0.186,2.294l-0.082-1.384l0.193,0.168
			c0.146,1.441-0.021,1.953,0.033,2.982l-0.057-0.709c0.047,1.68-0.035,1.77-0.078,2.718c0.036-0.294,0.089-0.744,0.114-0.063
			c0.011,0.499-0.068,0.271-0.089,0.743c0.064,0.056,0.113,0.386,0.139,0.838c0.013,0.226,0.02,0.483,0.02,0.751
			c-0.002,0.114-0.004,0.231-0.006,0.352c-0.005,0.042-0.011,0.086-0.017,0.133c-0.018-0.011-0.036-0.026-0.047-0.05
			c0.02,0.082,0.052,0.157,0.025,0.277l-0.01-0.002l-0.005-0.014c-0.043-0.068-0.086-0.128-0.129-0.178l0.037,0.087
			c-0.017,0.033-0.052,0.066-0.104,0.098c-0.051-0.01-0.1-0.011-0.151-0.008c-0.145,0.005-0.293,0.009-0.422,0.013
			c-0.295,0.009-0.502,0.011-0.461-0.037l0.354-0.029l-4.718-0.034l-0.066-0.114c-0.466,0.157-2.57-0.06-2.415,0.136
			c-0.89-0.107-3.504,0.076-2.98-0.146c-3.1-0.017-4.774,0.196-8.542,0.088c-1.342-0.188-5.019-0.127-7.438-0.147
			c-4.728,0.078-7.811,0.13-12.615,0.209c-2.906-0.262-7.249,0.09-10.376-0.058l-0.857,0.104c-2.078-0.166-5.252,0.037-8.169-0.124
			c-0.754,0.038-1.104,0.056-1.256,0.064c0.132,0.005,0.333,0.025,0.397,0.091c-0.833-0.046-2.517,0.012-2.397-0.12l0.212-0.014
			c0.122-0.132-2.527,0.062-3.457-0.053l0.51,0.141l-1.577-0.024l0.422-0.027c-6.852,0.314-9.948-0.135-16.382,0.152
			c0.853-0.154-1.268,0.081-1.352-0.088c-1.622-0.212-3.006,0.046-4.337,0.102c0,0.008-0.016,0.018-0.092,0.031l-2.326-0.02
			c1.389-0.213-1.675,0.177-0.399-0.005c-6.064-0.159-13.978,0.003-20.998-0.07l0.308,0.055c-1.78-0.01-3.995,0.056-5.345-0.031
			c-1.352-0.087-2.955,0.139-3.479,0.148c-1.287,0.082-2.468-0.049-2.34-0.078c-1.529,0.035-2.993,0.213-5.12,0.132
			c-0.751-0.181-5.994,0.177-6.06-0.026l-0.024,0.017c-2.814-0.143-5.468,0.101-8.498-0.029c0,0,0.077-0.014,0.16-0.029
			l-6.167,0.618l1.756,0.68l5.346,0.552l14.486-0.12l11.562,0.216l28.138-0.073l2.009-0.153c5.529,0.268,12.619-0.04,18.576,0.151
			l0.123-0.132c1.679-0.008,1.565,0.074,1.98,0.097c15.621-0.029,31.702-0.205,45.757-0.039c1.355,0.087,5.477,0.036,6.54,0.128
			c2.167-0.077,4.394-0.117,6.625-0.136c2.595-0.003,5.179-0.007,7.707-0.01c0.001-0.433,0.002-0.861,0.002-1.287l0.015,0.326
			l-0.025-2.782c0.011-0.091,0.027-0.102,0.037-0.033c-0.117-2.428-0.001-6.254,0.046-9.228l0.014,0.174
			c0.024-17.349-0.222-33.455-0.038-50.662c0.215-8-0.082-17.307,0.098-26.485C168.337,78.976,168.239,60.407,168.177,58.767z"/>
		<path fill="#151515" d="M168,31.436l0.001,0.072C168.056,31.504,168.035,31.398,168,31.436z"/>
		<polygon fill="#151515" points="166.48,69.79 166.482,69.669 166.403,70.125 		"/>
		<path fill="#151515" d="M166.453,46.222c0.003-0.399-0.001-0.749-0.018-1C166.417,46.326,166.431,46.378,166.453,46.222z"/>
		<path fill="#151515" d="M167.894,22.418c0.004-0.58-0.029-0.359-0.066-0.018c0.006,0.592,0.01,1.003,0.01,1.003
			C167.856,23.097,167.877,22.731,167.894,22.418z"/>
		<path fill="#151515" d="M167.139,24.784l-0.045-0.181C167.105,24.944,167.122,24.93,167.139,24.784z"/>
		<path fill="#151515" d="M105.356,157.827c0.019,0,0.029-0.001,0.048-0.001c0.035-0.027,0.067-0.049,0.099-0.067L105.356,157.827z"
			/>
		<path fill="#151515" d="M113.248,157.992c0.018,0.003,0.031,0.004,0.048,0.007C113.292,157.983,113.302,157.967,113.248,157.992z"
			/>
		<path fill="#151515" d="M41.832,158.162c0,0,0.02-0.001,0.034-0.002c-0.028-0.005-0.056-0.009-0.085-0.016L41.832,158.162z"/>
		<path fill="#151515" d="M41.866,158.16c0.192,0.036,0.385,0.039,0.579,0.022c-0.001-0.041-0.369-0.035-0.455-0.065
			C42.165,158.136,41.942,158.154,41.866,158.16z"/>
		<path fill="#151515" d="M120.539,158.034c0.003,0.02,0.019,0.036,0.039,0.049c0.009,0,0.016,0,0.021,0L120.539,158.034z"/>
		<path fill="#151515" d="M157.274,159.041l-0.147,0.046c0.077-0.004,0.131-0.011,0.166-0.021
			C157.291,159.058,157.284,159.05,157.274,159.041z"/>
		<path fill="#151515" d="M130.542,158.315c0.009-0.008,0.033-0.014,0.034-0.023c-0.171-0.022-0.622-0.027-1.199-0.024l-0.035,0.08
			L130.542,158.315z"/>
		<path fill="#151515" d="M25.275,158.211c0.025-0.001,0.049-0.005,0.073-0.006C25.307,158.204,25.285,158.206,25.275,158.211z"/>
		<path fill="#151515" d="M28.96,160.221l13.935-0.073l0.995-0.153c2.738,0.268,6.25-0.04,9.2,0.151l0.061-0.132
			c0.831-0.008,0.775,0.074,0.98,0.097c7.736-0.029,15.7-0.205,22.66-0.039c0.671,0.087,2.712,0.036,3.239,0.128
			c2.261-0.161,4.656-0.16,6.919-0.143l-0.086,0.014l1.066-0.025c0.045,0.011,0.051,0.027,0.017,0.037
			c1.203-0.117,3.097-0.001,4.57,0.046l-0.086,0.014c8.592,0.024,16.568-0.222,25.089-0.038c3.962,0.215,8.571-0.082,13.116,0.097
			c0.834,0.131,10.03,0.033,10.843-0.029l-1.066-0.16c3.422-0.074,5.019,0.087,7.948-0.042l-0.162,0.035
			c0.426,0.037,0.667-0.323,5.377,0.117v0.016c0.163-0.003,0.162-0.035,0.489,0.008l-0.814-0.098
			c0.488-0.04,0.914-0.117,1.564-0.128c0.138,0.018,0.185,0.051,0.199,0.076l1.595-0.027l0.489,0.104
			c0.488-0.056,0.265-0.275,1.57-0.153c-0.492-0.152,0.647-0.091,0.486-0.168c0.066,0.019,0.215,0.047,0.336,0.073
			c0.775-0.018,2.236-0.06,2.598-0.138c0,0-3.035-0.319-3.851-0.482c1.092,0.041,0.288-0.019,0.073-0.07l-0.073,0.038
			c-0.654-0.037-0.654-0.133-0.981-0.159c0,0.008,0.01,0.017,0.019,0.027l0.042-0.013c0.031,0.017,0.013,0.029-0.022,0.038
			c0.008,0.02-0.022,0.037-0.2,0.031l0.034-0.01c-0.273,0.014-0.745-0.001-0.951-0.008l-0.004-0.08
			c-0.485,0.152-3.26-0.232-3.911-0.237c-0.654-0.101-1.465,0.025-2.282-0.026c-1.301-0.026-0.651-0.117-1.304-0.186
			c-0.816-0.05,0.165,0.093-0.162,0.099l-0.978-0.111c0.568-0.01,0.26-0.058,0.156-0.089c-0.845-0.014-2.178-0.16-2.438-0.001
			c-1.14-0.076-1.143-0.14-1.632-0.148c0.164,0.029,0.489,0.055,0.492,0.088c-0.457-0.07-0.218,0.017-0.031,0.033
			c-0.697,0.069-3.615-0.291-3.762-0.116v-0.032c-0.162,0.13,0.098,0.257-0.388,0.329l-0.325-0.058l-0.489,0.056
			c-0.328-0.042-0.167-0.077-0.167-0.093c-0.796,0.06-1.907-0.012-2.872-0.029l1.022,0.356c-0.814-0.082-2.282-0.249-2.444-0.134
			l-0.489-0.12c-1.632-0.228-1.139,0.099-1.79,0.03l-0.819-0.13l0.815,0.002c-0.815-0.066-1.142-0.109-1.792-0.193
			c0,0.001-0.007,0.002-0.007,0.003c0.045,0.005,0.074,0.012,0.08,0.019l-0.114,0.003c-0.099,0.065-0.524,0.109-1.099,0.105
			c-0.816-0.018-1.454,0.078-2.756-0.06l-0.325,0.133l-0.978-0.079v-0.106c0.958,0.006,2.761-0.034,3.993-0.039l0.022-0.048
			c-0.73,0-1.561,0.047-2.044,0.037c-0.235-0.021-0.837-0.131-0.4-0.203l-0.451,0.104c-2.438,0.012-2.454,0.017-4.998-0.103
			l0.221,0.053c-0.505,0.031-1.008,0.062-1.148-0.025c-1.528-0.017-3.11-0.084-4.102-0.218l-0.217,0.125
			c-0.323-0.007-0.806-0.196-0.963-0.021l-0.689,0.055c-0.441-0.01-0.711,0.062-1.213-0.01c0,0,0,0,0,0c-0.001,0-0.003,0-0.003,0
			c-0.031-0.004-0.063-0.009-0.095-0.015c0,0.004,0.003,0.007,0.006,0.01c-0.998-0.055,0.01,0.112-1.133,0.04
			c-0.367-0.089-0.405,0.158-0.962,0.13l-0.559-0.179c-1.009-0.103-1.182,0.077-2.643,0.077c-0.702-0.064-1.041-0.217-0.576-0.352
			c-0.639,0.164-0.291,0.107-1.139,0.186c-0.13-0.067-0.04-0.082,0.147-0.143c-0.753-0.079-0.465,0.061-1.033,0.057
			c-0.165,0.127-0.355,0.33-0.54,0.338l0.22,0.04c-0.601,0.068-1.258,0.1-1.957,0.036l0.026-0.064l-0.744,0.032l-0.047-0.082
			l-1.062,0.025l0.146,0.022c-0.249,0.011-1.068,0.039-1.537-0.004l0.017-0.045c-1.321-0.142-2.41,0.044-3.958,0.059l0.203-0.093
			c-0.527-0.092-0.144,0.143-0.773,0.097l-0.031-0.114c-0.553,0.15-0.715-0.032-1.096-0.088l0.178,0.149l-0.718-0.031
			c-0.79-0.05-0.485-0.189-0.369-0.267l-0.538,0.118l-0.105-0.132c-0.393,0.153-0.393-0.025-1.082,0.058
			c-0.057-0.05,0.118-0.078-0.117-0.1l-1.136,0.186l0.685-0.082l-0.083,0.193c-0.714,0.146-0.967-0.021-1.477,0.033l0.351-0.057
			c-0.832,0.047-0.876-0.035-1.346-0.078c0.146,0.036,0.368,0.089,0.031,0.114c-0.247,0.011-0.134-0.068-0.368-0.089
			c-0.056,0.128-0.653,0.196-1.194,0.136c0.007-0.018,0.018-0.036,0.053-0.048c-0.138,0.021-0.21,0.054-0.45,0.023l0.142-0.143
			l-0.463,0.136c-0.308-0.039-0.758,0.064-0.718-0.032l0.175-0.029l-2.337-0.034l-0.032-0.114c-0.231,0.157-1.273-0.06-1.196,0.136
			c-0.441-0.107-1.735,0.076-1.476-0.146c-1.535-0.017-2.364,0.196-4.23,0.088c-0.664-0.188-2.486-0.127-3.683-0.147
			c-2.341,0.078-3.854,0.149-6.247,0.209c-1.439-0.262-3.59,0.09-5.138-0.058l-0.424,0.104c-1.029-0.166-2.601,0.037-4.045-0.124
			c-0.354,0.045-0.54,0.06-0.622,0.064c0.066,0.005,0.165,0.025,0.196,0.091c-0.412-0.046-1.247,0.012-1.187-0.12l0.105-0.014
			c0.061-0.132-1.252,0.062-1.712-0.053l0.252,0.141l-0.781-0.024l0.209-0.027c-3.393,0.314-4.926-0.135-8.113,0.152
			c0.422-0.154-0.628,0.081-0.67-0.088c-0.804-0.212-1.489,0.046-2.148,0.102c0,0.008-0.008,0.018-0.046,0.031l-1.152-0.02
			c0.688-0.213-0.829,0.177-0.198-0.005c-3.003-0.159-6.922,0.003-10.399-0.071l0.152,0.055c-0.882-0.01-1.978,0.056-2.647-0.031
			c-0.669-0.087-1.463,0.139-1.723,0.148c-0.637,0.082-1.222-0.049-1.159-0.078c-0.757,0.035-1.482,0.213-2.536,0.132
			c-0.372-0.181-2.968,0.177-3.001-0.026l-0.012,0.017c-1.393-0.143-2.708,0.101-4.209-0.029c0,0,0.029-0.015,0.079-0.029
			l-3.054,0.618l0.87,0.68l2.647,0.552l7.174-0.12L28.96,160.221z"/>
		<path fill="#151515" d="M155.014,159.997l-0.035,0.001C154.981,160.053,155.033,160.032,155.014,159.997z"/>
		<path fill="#151515" d="M136.02,158.477c0.021,0,0.04,0.001,0.06,0.001l-0.226-0.078L136.02,158.477z"/>
		<path fill="#151515" d="M147.692,158.45c0.198,0.003,0.371-0.001,0.495-0.018C147.64,158.414,147.615,158.427,147.692,158.45z"/>
		<path fill="#151515" d="M159.48,159.891c0.287,0.004,0.178-0.029,0.009-0.066c-0.293,0.007-0.497,0.01-0.497,0.01
			C159.154,159.848,159.315,159.878,159.48,159.891z"/>
		<path fill="#151515" d="M158.309,159.136l0.09-0.045C158.229,159.102,158.236,159.119,158.309,159.136z"/>
	</g>
</g>
<rect id="photo-area" x="14.216" y="19.154" fill="#EDEDED" width="143.045" height="128.705"/>
</svg>
