<?xml version="1.0" encoding="utf-8"?>
<!-- Generator: Adobe Illustrator 23.1.1, SVG Export Plug-In . SVG Version: 6.00 Build 0)  -->
<svg version="1.1" id="Capa_1" xmlns="http://www.w3.org/2000/svg" xmlns:xlink="http://www.w3.org/1999/xlink" x="0px" y="0px"
	 viewBox="0 0 1024 624" style="enable-background:new 0 0 1024 624;" xml:space="preserve">
<style type="text/css">
	.st0{fill:#3B270C;}
	.st1{fill:#21190F;}
	.st2{fill:#FFFFFF;}
	.st3{fill:none;stroke:#000000;stroke-miterlimit:10;}
</style>
<rect x="0" y="-1" class="st0" width="1024" height="625"/>
<path class="st1" d="M2.2,269.4c6.8-1.3,232.5,35,599.5,5.2s422.4,3.3,422.4,3.3V115c0,0-548.2,11.7-792,45.4S2.2,148.8,2.2,148.8
	V269.4z"/>
<path class="st1" d="M1023.9,523.3c-6.8-1.3-232.5,35-599.5,5.2S2,531.7,2,531.7V369c0,0,548.2,11.7,792,45.4s229.9-11.7,229.9-11.7
	V523.3z"/>
<polygon points="796.8,449.7 660.1,401 696.2,300.4 832.6,349.5 "/>
<g>
	<path class="st2" d="M724.6,362.8l1.5,0.7l-3.5,7.9c-1.4,3.1-3.3,3.4-5.4,2.5c-0.6-0.2-1.2-0.7-1.5-1l0.8-1.1
		c0.3,0.3,0.7,0.6,1.2,0.8c1.4,0.6,2.4,0.3,3.4-2L724.6,362.8z"/>
	<path class="st2" d="M731.5,377.1c-0.4,0.9-0.7,1.6-0.9,2.3l-1.4-0.6l0.5-1.4l0,0c-0.7,0.5-2,1-3.5,0.3c-1.3-0.6-2.6-2-1.3-5
		l2.2-4.9l1.5,0.7l-2.1,4.7c-0.7,1.6-0.7,2.9,0.7,3.5c1,0.5,2.1,0.1,2.6-0.5c0.2-0.2,0.4-0.4,0.5-0.7l2.3-5.2l1.5,0.7L731.5,377.1z"
		/>
	<path class="st2" d="M735.7,374.4c0.4-0.9,0.7-1.6,0.9-2.3l1.3,0.6l-0.5,1.4l0.1,0c0.8-0.6,1.9-1,3.3-0.4c1.2,0.5,1.7,1.6,1.6,2.7
		l0,0c0.5-0.4,1-0.6,1.4-0.7c0.7-0.2,1.3-0.1,2.1,0.2c1.1,0.5,2.5,2,1.2,4.9l-2.2,5l-1.5-0.7l2.1-4.8c0.7-1.6,0.6-2.9-0.7-3.4
		c-0.9-0.4-1.8,0-2.4,0.6c-0.2,0.2-0.3,0.4-0.5,0.7l-2.3,5.2l-1.5-0.7l2.2-5.1c0.6-1.3,0.4-2.6-0.7-3.1c-1-0.4-2,0-2.6,0.7
		c-0.2,0.2-0.3,0.4-0.5,0.7l-2.2,5.1l-1.5-0.7L735.7,374.4z"/>
	<path class="st2" d="M752.2,389l0.3-1.1l-0.1,0c-0.8,0.5-1.9,0.7-3.1,0.1c-1.7-0.8-2.1-2.3-1.5-3.6c0.9-2,3.2-2.4,6.5-0.9l0.1-0.2
		c0.3-0.7,0.7-2-1.1-2.8c-0.8-0.3-1.7-0.5-2.5-0.3l0.1-1.2c0.9-0.1,2,0,3.1,0.5c2.6,1.1,2.4,3.2,1.7,4.9l-1.4,3.2
		c-0.3,0.7-0.6,1.5-0.8,2.1L752.2,389z M753.9,384.6c-1.7-0.8-3.7-1.3-4.4,0.3c-0.4,1,0,1.8,0.8,2.1c1.1,0.5,2.1,0.1,2.7-0.5
		c0.1-0.1,0.2-0.3,0.3-0.5L753.9,384.6z"/>
	<path class="st2" d="M758.7,384.5c0.4-0.9,0.7-1.6,0.9-2.3l1.4,0.6l-0.5,1.4l0,0c0.8-0.6,2.1-1,3.5-0.4c1.2,0.5,2.7,2,1.4,4.9
		l-2.2,5l-1.5-0.7l2.1-4.9c0.6-1.4,0.6-2.7-0.9-3.4c-1-0.4-2.1-0.1-2.8,0.7c-0.2,0.2-0.3,0.4-0.4,0.7l-2.2,5.1l-1.5-0.7L758.7,384.5
		z"/>
	<path class="st2" d="M762.5,396.5c0.7,0.3,1.4,0.3,2,0.1c0.6-0.3,1.1-0.9,2-2.9l3.1-7.1l1.5,0.7l-3.4,7.7c-0.7,1.6-1.5,2.6-2.5,3
		c-1,0.4-2.2,0.2-3-0.2L762.5,396.5z M772.3,384.9c-0.2,0.5-0.8,0.8-1.4,0.5c-0.6-0.3-0.8-0.9-0.5-1.4c0.2-0.5,0.8-0.8,1.4-0.5
		C772.4,383.8,772.6,384.4,772.3,384.9z"/>
	<path class="st2" d="M769.9,396.8l3.7-8.4l1.5,0.7l-3.7,8.5L769.9,396.8z M776.4,386.7c-0.2,0.5-0.8,0.8-1.4,0.5
		c-0.5-0.2-0.7-0.8-0.5-1.3c0.2-0.5,0.8-0.8,1.4-0.5C776.4,385.6,776.6,386.2,776.4,386.7z"/>
</g>
<path class="st0" d="M616.9,395.6c37.9,25.8,134-55.1,201.4-55.1s70.9-22.5,70.9-22.5l-172.9-26.8h-95.1L616.9,395.6z"/>
<path class="st3" d="M2,87.8c0,0-46.2-18.2,88.7-7.8s182.8,22,242.5,7.8S496.7,33.3,566,38.5s171.8,42.8,209.4,49.3
	c37.6,6.5,112.8-1.3,154.3-7.8c41.5-6.5,94.3-6.5,94.3-6.5"/>
<path class="st3" d="M2,315.4c0,0-46.2-18.2,88.7-7.8s182.8,22,242.5,7.8S496.7,261,566,266.2c69.3,5.2,171.8,42.8,209.4,49.3
	c37.6,6.5,112.8-1.3,154.3-7.8c41.5-6.5,94.3-6.5,94.3-6.5"/>
<path class="st3" d="M2,561.8c0,0-46.2-18.2,88.7-7.8s182.8,22,242.5,7.8c59.7-14.3,163.5-54.5,232.8-49.3
	c69.3,5.2,171.8,42.8,209.4,49.3c37.6,6.5,112.8-1.3,154.3-7.8c41.5-6.5,94.3-6.5,94.3-6.5"/>
<circle class="st1" cx="74.3" cy="48.9" r="10.8"/>
<circle class="st1" cx="656.9" cy="118.5" r="10.8"/>
<circle class="st1" cx="519.6" cy="336.6" r="10.8"/>
<circle class="st1" cx="597.1" cy="557.6" r="10.8"/>
<circle class="st1" cx="790.9" cy="75.5" r="10.8"/>
<circle class="st1" cx="430.4" cy="99.5" r="10.8"/>
<circle class="st1" cx="276.9" cy="583.4" r="10.8"/>
<circle class="st1" cx="118.8" cy="140.1" r="10.8"/>
<circle class="st1" cx="843.4" cy="336.6" r="10.8"/>
<circle class="st1" cx="202.5" cy="325.8" r="10.8"/>
<circle class="st1" cx="180.9" cy="557.6" r="10.8"/>
<circle class="st1" cx="555.2" cy="115" r="7.6"/>
<circle class="st1" cx="276.9" cy="347.4" r="7.6"/>
<circle class="st1" cx="873.6" cy="354.9" r="7.6"/>
</svg>
